<?xml version="1.0" standalone="no"?>
<!DOCTYPE svg PUBLIC "-//W3C//DTD SVG 1.1//EN" "http://www.w3.org/Graphics/SVG/1.1/DTD/svg11.dtd" >
<svg xmlns="http://www.w3.org/2000/svg" xmlns:xlink="http://www.w3.org/1999/xlink" version="1.1">
<metadata></metadata>
<defs>
<font id="felt_thatregular" horiz-adv-x="737" >
<font-face units-per-em="2048" ascent="1382" descent="-666" />
<missing-glyph horiz-adv-x="659" />
<glyph unicode="&#xfb01;" horiz-adv-x="821" d="M-82 -389q8 104 72 295q77 236 190 471q27 56 100.5 224t116.5 253q139 275 238 285q78 9 115 -41q47 -60 6 -156q-31 -77 -215 -309q-203 -254 -299 -332q-24 -53 -39 -92q151 -15 258 43q114 64 213 213q20 44 49.5 104.5t34.5 73.5q9 27 43 12q22 -10 34 -33.5 t1 -48.5q-81 -167 -125 -301q-56 -167 -19 -188q27 -14 92.5 46t141.5 157q127 162 151 219q8 16 20.5 12t22.5 -20q15 -27 4 -52q-33 -77 -137 -215q-153 -208 -242 -221q-63 -9 -106 37q-31 32 -43 82t-2 104q0 5 2 9q-37 -34 -70 -54q-97 -60 -225 -67q25 -42 34 -100.5 t-3 -140.5t-49 -171q-53 -125 -116.5 -192.5t-117.5 -67.5q-58 0 -96 35q-40 40 -35 127zM0 -481q18 -19 58.5 10t90 110t82.5 189q32 106 28 172.5t-27.5 96.5t-59.5 30h-2q-53 -131 -115 -311q-88 -262 -55 -297zM334 514q24 28 160 201q228 291 198 340 q-24 38 -66.5 -6.5t-99.5 -149.5q-24 -43 -139 -274q-4 -9 -23 -46.5t-30 -64.5zM816.5 927.5q-1.5 30.5 19.5 39.5q20 10 52.5 7t61.5 -18q29 -14 39 -39.5t-10 -37.5t-65.5 -9t-71.5 15q-24 12 -25.5 42.5z" />
<glyph unicode="&#xfb02;" horiz-adv-x="923" d="M-82 -389q8 104 72 295q77 236 190 471q27 56 100.5 224t116.5 253q139 275 238 285q78 9 115 -41q47 -60 6 -156q-31 -77 -215 -309q-203 -254 -299 -332q-24 -53 -39 -92q151 -15 258 43q113 61 209 207q34 126 82 260q61 163 125.5 293t97.5 157q68 53 127 23 q37 -21 50.5 -67.5t-3.5 -108.5q-29 -98 -150 -293q-114 -179 -256 -354q-22 -114 -28 -191q-7 -124 28 -137q55 -23 250 213q61 73 114 145.5t67 102.5q9 16 20 17.5t18 -9.5q10 -11 13 -31t-4 -39q-14 -33 -64.5 -107.5t-112.5 -150.5q-157 -196 -221 -219 q-53 -20 -108 10q-62 36 -78 103q-19 73 -2 207q-50 -58 -109 -95q-97 -60 -225 -67q25 -42 34 -100.5t-3 -140.5t-49 -171q-53 -125 -116.5 -192.5t-117.5 -67.5q-58 0 -96 35q-40 40 -35 127zM0 -481q18 -19 58.5 10t90 110t82.5 189q32 106 28 172.5t-27.5 96.5t-59.5 30 h-2q-53 -131 -115 -311q-88 -262 -55 -297zM334 514q24 28 160 201q228 291 198 340q-24 38 -66.5 -6.5t-99.5 -149.5q-24 -43 -139 -274q-4 -9 -23 -46.5t-30 -64.5zM799 567l155 248q46 76 79 146t44.5 111.5t3.5 49.5q-31 31 -100 -99q-24 -47 -53 -112 q-46 -106 -76 -186q-23 -59 -53 -158z" />
<glyph horiz-adv-x="0" />
<glyph horiz-adv-x="682" />
<glyph unicode="&#xd;" horiz-adv-x="442" />
<glyph unicode=" "  horiz-adv-x="659" />
<glyph unicode="&#x09;" horiz-adv-x="659" />
<glyph unicode="&#xa0;" horiz-adv-x="659" />
<glyph unicode="!" horiz-adv-x="587" d="M318 -63q13 28 47 38q34 12 71 -8.5t29 -46.5q-3 -11 -18 -31.5t-9 -31.5q-11 -15 -49 -9.5t-59 29.5q-25 32 -12 60zM428 322q7 68 125 362q135 330 137 360q1 33 24.5 33.5t45.5 -20.5q34 -30 28 -62q-6 -26 -153 -360q-148 -340 -146 -367q1 -19 -10.5 -25.5 t-25.5 3.5q-31 19 -25 76z" />
<glyph unicode="&#x22;" horiz-adv-x="649" d="M305 657q12 29 88 164q146 247 170 266q12 10 35.5 11t42.5 -8q43 -19 18 -56q-37 -42 -170 -246q-98 -152 -112 -192q-6 -13 -20 -14t-27 8q-16 10 -24 28t-1 39zM573 614.5q-6 21.5 0 40.5q18 52 115 215q100 167 137 207q18 18 37.5 19t30.5 -11q16 -14 18 -37 t-14 -47q-59 -80 -154 -229q-90 -146 -100 -176q-8 -26 -24 -28t-27 12q-13 13 -19 34.5z" />
<glyph unicode="#" horiz-adv-x="991" d="M186 55q8 25 111 232q-31 -2 -64 -2q-13 0 -24 13.5t-14 31.5q-5 23 2.5 40.5t29.5 18.5l125 8l142 279q-83 -13 -136 -27q-29 0 -53 27q-36 45 4 59q47 17 234 35l80 154q78 144 92 161q22 29 71 25q27 -2 40.5 -12.5t0.5 -28.5q-17 -17 -92 -154l-73 -133q93 9 108 11 l148 8l110 198q89 159 111 179q23 26 59 2q14 -9 19 -23.5t-3 -26.5q-19 -19 -102 -157l-100 -168q92 0 104 -6q13 -5 29.5 -18.5t23.5 -26.5q8 -10 3 -19.5t-25 -9.5q-45 3 -186 -8q-81 -138 -162 -299q134 4 159 0q29 -3 33 -29q2 -16 -11 -32t-34 -19l-190 -10 q-142 -291 -142 -322q-3 -16 -16.5 -19.5t-26.5 5.5q-18 10 -27.5 32.5t-2.5 47.5q3 22 118 250q-93 -9 -106 -11l-152 -14q-151 -292 -157 -309t-23 -14t-28 22q-17 29 -7 59zM459 403q72 6 145 9q68 0 101 2q104 196 159 295q-122 -10 -135 -11q-78 -4 -117 -8 q-28 -51 -80 -149.5t-73 -137.5z" />
<glyph unicode="$" horiz-adv-x="751" d="M98 268q-12 39 11 58q10 10 27.5 6.5t33.5 -21.5q38 -44 170 -51q91 186 94 191q10 19 50.5 99.5t64.5 125.5q-35 41 -82 84q-31 33 -37 77t18 90t76 79q90 59 246 73l90 156q53 89 80 123q34 36 70 4q19 -17 25 -42t-7 -30q-17 -3 -92 -116q-20 -30 -57 -91 q81 -3 110 -12q19 -6 30 -28.5t9 -45.5q-2 -26 -15 -35.5t-38 5.5q-33 20 -152 20q-89 -156 -118 -211q-7 -13 -41 -78q128 -140 114 -249q-27 -218 -313 -287q-39 -9 -70 -12q-84 -187 -84 -218q-1 -23 -18.5 -27.5t-34.5 7.5q-20 11 -30 32t-3 46q8 35 68 164 q-75 12 -129 44t-66 70zM446 262q143 17 199 82q75 94 -33 254l-94 -186zM524 868q-4 -14 12 -35t50 -57q2 -2 3.5 -3t3 -3t3.5 -4q68 126 117 211q-162 -29 -189 -109z" />
<glyph unicode="%" horiz-adv-x="1103" d="M242 625q-23 92 65 252q55 97 128.5 168.5t133.5 78.5q50 6 111 -41q31 -24 53 -52.5t25 -51.5q9 -44 -24 -127t-91 -168q-53 -76 -110 -128t-107 -62q-57 -11 -111 32q-27 22 -47.5 51t-25.5 48zM250 57q19 54 152 215t311 353q167 180 307 314.5t182 152.5q43 17 68 -5 q15 -12 17 -28.5t-11 -24.5q-25 -12 -171.5 -156.5t-311.5 -320.5q-200 -212 -334.5 -376.5t-134.5 -213.5q0 -26 -22.5 -27t-41.5 21q-29 37 -10 96zM349.5 685q-21.5 -78 2.5 -95q35 -15 98 33t119 137q59 95 79 174.5t-13 101.5q-34 19 -97 -40t-120 -154 q-47 -79 -68.5 -157zM729 102q-15 81 70 244q47 92 106.5 159t112.5 77q59 10 123 -47q80 -69 69 -170q-8 -91 -84 -215q-43 -70 -94 -122t-90 -65q-65 -26 -135 23q-63 43 -78 116zM846 31q16 -12 49 4.5t80.5 70.5t89.5 134q23 43 38.5 92t18 95.5t-25.5 59.5 q-20 10 -43.5 0.5t-65 -59.5t-92.5 -143q-112 -204 -49 -254z" />
<glyph unicode="&#x26;" horiz-adv-x="657" d="M-144 -30q-9 36 3 57q4 9 10.5 19.5t17.5 24.5t20 24.5t26.5 29.5t28 29.5t33.5 34.5t34 36q185 195 262 291q-3 56 0 111q9 253 67 434q39 122 92 200.5t109 104.5q51 22 85.5 4.5t55.5 -67.5q38 -87 19 -205q-14 -98 -98 -250q-78 -144 -209 -330l-27 -35 q6 -185 37 -360q51 43 96 106q52 75 43 111q-6 22 13 21q14 -1 32 -13q42 -29 39 -61q-3 -49 -55 -115q-46 -60 -127 -121l-23 -18q3 -16 11 -37q21 -76 71 -154q28 -44 54 -73t40 -31q9 -2 14.5 1.5t6.5 12t0.5 17t-1.5 21.5t-1 20q29 -19 41.5 -49.5t-0.5 -55.5 q-31 -52 -80 -47q-49 3 -111 63q-76 76 -127 261q-134 -81 -270 -103q-131 -19 -192 31q-31 24 -40 60zM-45 -18q10 -13 40 -17.5t80.5 3t110.5 28.5q62 22 129 55l25 12q-35 171 -43 314q-68 -74 -211 -217q-75 -77 -109 -120.5t-22 -57.5zM387 645q51 75 62 92 q55 89 116 209q127 257 66 336q-23 29 -67 -18q-52 -56 -97 -185q-35 -96 -59 -237q-14 -71 -21 -197z" />
<glyph unicode="'" horiz-adv-x="399" d="M324 563q-21 23 6.5 107.5t75.5 167.5q41 84 82 144t69 85q13 12 37 14t41 -6q15 -7 19 -18t-9 -27q-16 -16 -60 -84t-87 -143q-118 -205 -109 -234q7 -13 -2 -22q-6 -11 -26 -8.5t-37 24.5z" />
<glyph unicode="(" horiz-adv-x="575" d="M61 -147q9 316 230 774q124 257 278 458.5t248 227.5q48 12 66 -17q12 -19 7.5 -42.5t-22.5 -30.5q-80 -36 -233.5 -241.5t-267.5 -449.5q-135 -291 -185.5 -532.5t-13.5 -306.5q6 2 16 5t35 -1t43 -21q24 -23 10 -41.5t-57 -23.5q-30 -3 -56 6t-49.5 34t-36.5 76.5 t-12 125.5z" />
<glyph unicode=")" horiz-adv-x="921" d="M48.5 -385.5q5.5 26.5 41.5 45.5q42 27 111 98.5t141 171.5q156 219 256 469q101 259 115 457q5 44 2.5 88t-5.5 72t-10.5 57.5t-12.5 44.5t-12 33t-9 23q-7 26 -3 32.5t27 -4.5q22 -15 55 -41q34 -30 54.5 -119.5t13.5 -212.5q-14 -253 -131 -518q-119 -275 -295 -497 q-129 -162 -240 -242q-24 -16 -46.5 -14.5t-37.5 16.5q-20 14 -14.5 40.5z" />
<glyph unicode="*" horiz-adv-x="798" d="M104.5 918q-3.5 8 1 16t19.5 12q26 9 156 19l102 8q-11 47 -21 100q-18 105 -18 135q0 16 15 25.5t34 9.5q14 0 25.5 -8t11.5 -21t6 -69q10 -79 17 -119l86 113q92 120 102 127q9 9 41 -15q19 -13 25.5 -29t-7.5 -26q-11 -8 -75 -92q-86 -112 -93 -121q132 6 173 6 q16 -3 34 -28q25 -31 15 -43q-3 -4 -11 -3q-14 0 -260 -20q19 -68 56 -152q40 -85 53 -98q18 -24 -7 -34q-22 -9 -42 5q-26 26 -74 119q-26 53 -43 99q-34 -45 -84 -119q-93 -132 -96 -150q-8 -30 -37 2q-9 9 -16 21q-19 30 -19 49q0 9 96 145l74 103l-78 -8l-82 -9 q-12 -1 -32.5 9t-34.5 24q-9 9 -12.5 17z" />
<glyph unicode="+" horiz-adv-x="727" d="M238.5 571.5q4.5 17.5 29.5 14.5q45 -8 123 -11q12 0 42.5 -1t51.5 -1q27 61 58 121q51 96 82 123q15 13 41 -2q18 -11 27 -29t-1 -26q-22 -14 -74 -113l-36 -74h106q120 -3 148 -20q12 -5 16 -21q2 -15 -9.5 -28t-29.5 -12q-1 0 -129 -9q-80 -6 -145 -6 q-39 -83 -60 -137q-40 -95 -43 -150q2 -14 -26 5q-15 11 -29 26q-28 32 -23 51q6 31 41 111l43 94q-92 0 -145 12q-14 1 -28.5 14t-22.5 29q-12 22 -7.5 39.5z" />
<glyph unicode="," horiz-adv-x="407" d="M183.5 -203q-5.5 20 6.5 33q23 23 99 143q104 158 108 179q0 9 15 9.5t30 -7.5q17 -9 28.5 -24t8.5 -32q-6 -37 -82 -145q-41 -60 -87.5 -121t-59.5 -74q-19 -16 -45 6q-16 13 -21.5 33z" />
<glyph unicode="-" horiz-adv-x="864" d="M291 361.5q2 16.5 14 19.5q35 8 287 0q226 -7 270 -12q27 -3 39 -31q9 -19 1 -37t-30 -18h-268q-53 0 -113 0.5t-98.5 1t-40.5 0.5q-34 0 -55 41q-8 19 -6 35.5z" />
<glyph unicode="." horiz-adv-x="368" d="M207.5 -29.5q-1.5 30.5 19.5 39.5q20 11 53 8t62 -18q29 -14 39 -40t-10 -38t-66 -9t-72 15q-24 12 -25.5 42.5z" />
<glyph unicode="/" horiz-adv-x="638" d="M-8 -104q13 56 155 258.5t345 461.5q191 245 356 437t209 219q27 11 45 5.5t28 -22.5q9 -15 8.5 -33.5t-10.5 -25.5q-28 -18 -202.5 -222t-360.5 -437q-219 -275 -360 -477.5t-135 -252.5q5 -34 -6 -45.5t-29 -0.5t-31 36q-23 47 -12 99z" />
<glyph unicode="0" horiz-adv-x="835" d="M244 180q-14 151 71 393q38 112 86 204.5t86 127.5q3 37 22.5 80t53.5 76q88 81 207 47q37 -10 76.5 -44t66.5 -89q63 -126 33 -295q-28 -168 -135 -367q-73 -134 -160 -228.5t-157 -113.5q-87 -24 -154 27q-40 30 -66 78t-30 104zM333 140.5q4 -83.5 54 -99.5 q70 -22 174 97t189 298q54 111 84.5 218.5t27.5 181.5q-3 106 -49 149q-41 38 -121 27q-34 -4 -71 -42.5t-48 -76.5q23 -30 13 -37q-21 -12 -68 -102.5t-90 -204.5q-46 -119 -72.5 -222t-22.5 -186.5z" />
<glyph unicode="1" horiz-adv-x="591" d="M270 16q0 64 148 422q102 245 184 430q-156 -124 -188 -135q-14 -6 -31.5 1t-28.5 20q-12 13 -12 25.5t16 19.5q40 14 185 137q131 108 162 151q22 34 57 15q18 -11 25.5 -34t-3.5 -48q-154 -300 -264 -576q-177 -452 -166 -512q2 -12 -9 -11q-17 3 -40 24q-35 35 -35 71 z" />
<glyph unicode="2" d="M140.5 68q-0.5 30 23.5 57q5 6 49 51t91 94t115.5 123t125.5 139q335 385 272 463q-16 21 -47.5 21t-67 -14.5t-75.5 -40.5q-58 -38 -104.5 -85t-57.5 -77q-13 -29 -29 -22t-26 36q-15 43 2 72q18 31 58 75t87 80q99 74 180 66q85 -9 131 -74q33 -47 37 -108t-26 -125 q-49 -100 -246 -326q-70 -79 -173 -187.5t-153.5 -164t-46.5 -62.5q10 -18 223 -2q134 9 183 19q19 6 26 -6t4 -33q-3 -18 -16.5 -32t-32.5 -17q-149 -17 -172 -19q-161 -12 -205 -8q-70 3 -108 51q-21 26 -21.5 56z" />
<glyph unicode="3" horiz-adv-x="706" d="M102 28q4 7 11 3q19 -11 72.5 6.5t123.5 56.5q87 51 180 125q86 71 143 148t50 125q-6 38 -51 49.5t-105.5 -6t-107.5 -56.5q-13 -10 -30.5 3t-25.5 38q-20 57 21 92q12 12 49.5 38t94 64t96.5 68q162 119 149 179q-8 36 -62 38.5t-116 -20.5q-125 -39 -174 -84 q-16 -14 -28.5 0.5t-12.5 40.5q0 35 18 53q26 23 80 52.5t111 48.5q100 32 160 12q51 -18 81 -82q45 -93 -8 -172q-37 -59 -127 -125q-75 -56 -180 -111q55 17 111.5 1.5t91.5 -58.5q54 -64 28 -164q-29 -112 -180 -246q-100 -86 -200 -139q-71 -38 -131.5 -54.5 t-88.5 -10.5q-24 5 -39 36q-14 34 -4 51z" />
<glyph unicode="4" horiz-adv-x="833" d="M258 504q24 56 264 307q104 108 192 191t124 104q12 22 49 -4q38 -29 35 -58q-10 -59 -129 -387q-14 -38 -86 -233q145 0 155 -8q17 -17 17 -54q0 -19 -8.5 -30t-18.5 -2q-19 14 -176 10l-53 -150q-76 -222 -68 -247q7 -20 -6.5 -25t-32.5 4q-20 8 -34 24t-13 34 q2 31 63 215l48 143l-174 -8q-66 -3 -115 43q-66 63 -33 131zM354 436q12 -22 254 -14l99 280q28 76 84 242q-138 -132 -246 -250q-211 -226 -191 -258z" />
<glyph unicode="5" horiz-adv-x="819" d="M225 15q5 9 23 3q40 -12 174 76q90 61 149 117q101 95 164 202t45 162q-20 63 -166 19q-25 -8 -62 -21t-61.5 -21t-37.5 -9q-42 -6 -88 55q-39 52 -29 98q14 57 80 183q55 109 94 159q7 24 29 27q13 4 22 2l187 6q174 4 196 -6q24 -12 35 -45q9 -22 3.5 -39.5 t-24.5 -11.5q-42 7 -204 -4q-155 -12 -187 -25q-1 0 -2 -1t-2 -1q-10 -15 -22.5 -37t-28 -50.5t-25.5 -45.5q-80 -148 -61 -156q1 0 41 13t72 20q102 24 174 10q29 -5 62 -27t56 -57q52 -73 21 -170q-55 -178 -213 -315q-71 -63 -158 -119q-126 -81 -184 -78q-28 0 -55 35 q-27 37 -17 52z" />
<glyph unicode="6" horiz-adv-x="735" d="M203 207q9 145 217 528q35 65 89 158.5t80 141.5t29 63q8 27 24.5 20.5t33.5 -33.5q30 -47 18 -77q-12 -26 -92 -164q-114 -201 -139 -248q59 40 119 51q49 7 100 -11.5t78 -70.5q23 -47 20 -116q-4 -55 -52 -143t-116 -171q-125 -146 -223 -170q-56 -12 -100.5 9.5 t-67.5 74.5q-27 59 -18 158zM295 221q-49 -160 8 -180q42 -18 113.5 37t142.5 149q72 95 112.5 186.5t22.5 135.5q-10 24 -38.5 26.5t-64 -12.5t-75.5 -43q-87 -60 -139 -133q-14 -23 -27 -20q-34 -78 -55 -146z" />
<glyph unicode="7" horiz-adv-x="673" d="M178 31q2 11 21.5 43t63 96t74.5 109t99.5 143.5t95.5 136.5q257 367 252 391q-7 33 -188 25q-38 -2 -86 -5.5t-80 -6t-41 -2.5q-24 0 -43 38q-20 44 -9 67q7 10 19 7q22 -6 138 -2q166 5 211 2q43 -3 81 -25.5t60 -56.5q41 -64 8 -135t-236 -362q-35 -50 -99 -141 t-100.5 -143.5t-78.5 -113.5t-62 -94.5t-22 -42.5q-3 -13 -11 -17.5t-18 -1.5t-20 11q-17 14 -26.5 36t-2.5 44z" />
<glyph unicode="8" horiz-adv-x="770" d="M166 111q-18 117 92 254q56 71 236 243q-8 17 -23.5 49t-23 48.5t-16.5 37.5t-13 35q-12 37 -16.5 72.5t1.5 76.5t35 78.5t80 63.5q65 33 142 38t134.5 -10.5t86.5 -41.5q23 -13 34 -27q3 4 8 11t8 11.5t5 8.5q12 19 27.5 20.5t25.5 -12.5q13 -17 14.5 -45t-14.5 -66 q-18 -36 -180 -188l-193 -178q30 -87 47 -147t28.5 -133t1.5 -134.5t-42 -112.5q-38 -60 -111 -90.5t-144.5 -29t-121.5 25.5q-94 48 -108 142zM238 117q2 -36 30.5 -60t70.5 -30t87.5 1t87.5 35t66 70q64 116 -43 379q-142 -139 -222.5 -239.5t-76.5 -155.5zM495.5 889.5 q0.5 -17.5 11.5 -48.5t18 -46.5t26.5 -54.5t26.5 -52l157 150q90 90 125 127q-43 25 -111.5 39.5t-135 7.5t-93.5 -41q-15 -18 -20 -41t-4.5 -40.5z" />
<glyph unicode="9" horiz-adv-x="690" d="M257.5 -20q-3.5 21 6.5 36q22 22 131 183q33 47 140 209q-103 -33 -166 5.5t-72 139.5q-6 70 18.5 153t71.5 158q47 78 111 138t125 85q82 33 154 -8t87 -131q4 -23 4.5 -47.5t-3.5 -49.5t-8.5 -48.5t-14.5 -51t-18.5 -49t-23.5 -51t-25.5 -49.5t-28.5 -51t-28.5 -48.5 t-29.5 -49.5q-57 -94 -174 -267q-129 -184 -184 -249q-15 -16 -29.5 -13.5t-26.5 17.5q-13 18 -16.5 39zM381 508q9 -31 40 -37.5t63.5 5t54.5 32.5q17 13 28 2t13 -35q67 102 141 268q105 247 37 279q-51 23 -122 -33.5t-138 -157.5q-62 -93 -97 -185t-20 -138z" />
<glyph unicode=":" horiz-adv-x="503" d="M216.5 9.5q-1.5 30.5 19.5 39.5q20 11 52.5 8t61.5 -18q29 -14 39 -40t-10 -38t-65.5 -9t-71.5 15q-24 12 -25.5 42.5zM419.5 675.5q8.5 20.5 41.5 20.5q32 8 71.5 -8t55.5 -49q12 -23 -9.5 -43.5t-39.5 -20.5q-32 2 -53.5 11t-47.5 37q-27 32 -18.5 52.5z" />
<glyph unicode=";" horiz-adv-x="348" d="M61.5 -255.5q-0.5 13.5 10.5 24.5q54 62 121 163q90 130 92 158q2 9 15.5 8.5t27.5 -8.5q36 -20 30 -53q-5 -37 -96 -154q-103 -133 -141 -166q-13 -10 -26 -8t-23 12t-10.5 23.5zM460.5 653q8.5 21 41.5 21q31 8 71 -8.5t56 -49.5q12 -23 -9.5 -43t-39.5 -20 q-32 2 -53.5 11t-47.5 36q-27 32 -18.5 53z" />
<glyph unicode="&#x3c;" horiz-adv-x="751" d="M199 428q-30 73 34 117q47 32 240 106q10 4 36.5 14t37.5 14.5t34 13.5t35 14t30.5 13t29.5 14t24.5 13t22.5 13t16 12q22 17 36.5 3.5t17.5 -44.5q7 -54 -23 -78q-6 -5 -15 -11t-21.5 -12t-23.5 -11.5t-29 -13l-30 -12.5t-33.5 -13t-33.5 -12.5t-35.5 -13.5t-34.5 -13 q-5 -2 -16 -6q-49 -18 -73 -27.5t-56 -23t-45.5 -22.5t-14.5 -16q-3 -17 260 -127q38 -16 91 -37.5t81.5 -33t34.5 -15.5q13 -4 13 -15.5t-11 -22.5q-15 -16 -41 -25t-51 -2q-51 16 -190 76q-184 81 -222 102q-52 34 -75 82z" />
<glyph unicode="=" horiz-adv-x="927" d="M266.5 378.5q0.5 20.5 18.5 27.5q10 2 21.5 3t30.5 1h49.5t79 -0.5t118.5 0.5q222 -2 260 -8q32 -5 57 -17q19 -10 31 -25t14 -28q2 -10 -5 -15t-21 -4q-51 -4 -336 -4q-84 0 -149 -5t-95 -3q-34 0 -61 39q-13 18 -12.5 38.5zM400.5 681.5q-2.5 15.5 5.5 25t26 6.5 q70 -11 145 -12q44 -1 123 -1q136 0 196.5 -4t80.5 -20q20 -9 16 -35q-2 -13 -12.5 -22.5t-26.5 -8.5q-17 0 -136 -8t-159 -8q-135 0 -196 14q-28 3 -51 41q-9 17 -11.5 32.5z" />
<glyph unicode="&#x3e;" horiz-adv-x="847" d="M238 199q-5 29 5.5 59t35.5 41q38 16 262 78q234 64 239 86q2 9 -34 34q-21 15 -140 87q-162 97 -213 155q-23 26 -8 68q6 22 19.5 27.5t31.5 -11.5q33 -39 187 -135q173 -108 233 -158q15 -12 29.5 -38.5t15.5 -53.5q4 -63 -70 -88q-24 -9 -68 -22.5t-108 -33 t-106 -32.5q-219 -68 -258 -92q-22 -13 -35 -4t-18 33z" />
<glyph unicode="?" horiz-adv-x="782" d="M316 -56q8 20 42 33q27 9 61.5 -5t47.5 -27q20 -30 0.5 -55t-49.5 -25q-24 0 -53.5 11.5t-40.5 29.5q-16 18 -8 38zM430 268q-22 28 3 78.5t102 142.5q23 28 110 124t127 141q248 280 215 342q-29 55 -160 8q-96 -34 -180 -88q-37 -23 -72 12q-15 14 -13 36t26 38 q102 65 186 90q97 28 168 10q78 -18 107 -78q21 -43 17 -92.5t-28 -97.5q-33 -70 -229 -283q-17 -18 -55.5 -59.5t-59 -64t-49 -54t-49 -56t-35.5 -44.5q-44 -60 -41 -76q10 -40 23 -37v-2l-6 -10q-10 -20 -48 -12q-39 3 -59 32z" />
<glyph unicode="@" horiz-adv-x="1443" d="M390.5 105.5q-2.5 76.5 11 164t45.5 184.5t79 181q61 112 152.5 219t202.5 178q112 72 231 92q161 28 277.5 -27t156.5 -190q34 -127 5 -270t-111 -281q-72 -119 -154.5 -173t-155.5 -56q-62 1 -98 35t-39 86q-2 28 11 84q-90 -93 -162 -137q-71 -44 -129 18 q-24 26 -34.5 62.5t-2.5 66.5q28 109 98 221q48 75 107 125t123 60q41 6 88 -18t75 -71q19 26 23 29q10 9 26 -0.5t27 -28.5q23 -44 0 -69q-52 -58 -117 -199q-17 -38 -30 -72t-20 -62t-5 -46t14 -21q29 -7 86 26t113 97q92 102 141 246q69 213 39 338t-145 152 q-175 43 -361 -80q-155 -105 -284 -299q-52 -78 -90.5 -163.5t-59 -159.5t-30 -144.5t-9 -123t8.5 -91.5q40 -210 235 -164q92 18 168 59t113 76q12 10 24.5 6t18.5 -18q20 -40 -13 -82q-35 -39 -114.5 -77t-155.5 -48q-74 -10 -139.5 9t-123.5 77.5t-95 153.5 q-19 49 -21.5 125.5zM750 262q32 -25 202 152q86 89 170 190q-38 59 -67 62q-42 3 -93.5 -40.5t-99.5 -113.5q-36 -52 -66 -109.5t-42.5 -96t-3.5 -44.5z" />
<glyph unicode="A" horiz-adv-x="1148" d="M29 -70q-7 24 -7 56q0 88 50 239q68 207 194 404q149 234 293 377.5t244 185.5q41 18 80 17q1 1 3 1q40 0 71 -13.5t59 -37t47 -48t35 -52.5q35 -61 61 -131l47 65q12 16 30 10t34 -26q21 -27 21 -49q0 -14 -9 -27q-45 -66 -117 -190.5t-106 -206.5q-41 -94 -78 -211 q-50 -156 -50 -225q0 -43 19 -52q5 -2 11 -2q60 0 249 230q131 159 185 252q21 37 41 16q19 -20 13 -56q-2 -9 -5 -16q-39 -90 -191 -278q-130 -162 -209 -209q-28 -16 -58 -16q-34 0 -69 21q-66 40 -75 128q-2 16 -2 35q0 60 20 145q32 131 82 230q-176 -238 -315 -385 q-201 -211 -369 -308q-33 -18 -67 -18q-30 0 -60 14q-36 18 -63 53.5t-39 77.5zM143 122q-33 -108 -33 -170q0 -66 37 -81q8 -2 17 -2q106 0 403 328q255 284 523 639q-7 45 -16.5 80.5t-27.5 79t-48 74t-70 42.5q-7 2 -16 2q-28 0 -72 -22q-58 -29 -133 -92t-169.5 -176.5 t-185.5 -256.5q-141 -223 -209 -445z" />
<glyph unicode="B" horiz-adv-x="1095" d="M59 -131q5 11 49.5 125.5t105 268.5t103.5 259l246 602q10 19 31 12t37 -30q18 -23 18 -48q0 -8 -2 -16q-3 -6 -85 -187t-118 -271l-18 -41q273 71 549 270q247 183 247 297q0 13 -3 25q-14 49 -109 83t-217 44q-69 6 -137 5q-51 0 -101 -3q-93 -7 -176 -22.5 t-137.5 -33.5t-94.5 -37.5t-58 -34t-19 -22.5q-2 -27 -32 -6q-15 11 -29 29q-16 25 -16 42q0 12 9 19q16 13 51 33t103 46.5t148 46.5q78 22 192 32q64 6 130 5q50 0 101 -3q471 -36 471 -276q0 -64 -44 -135q-46 -73 -117 -136t-160 -121t-172 -100t-154 -68 q11 -1 30.5 -2.5t74.5 -10.5t103 -21.5t103 -37.5t89 -57q72 -69 72 -141q0 -77 -79 -154q-114 -109 -356 -188q-196 -65 -303 -65q-11 0 -20 1q-55 0 -80 37q-13 17 -8 30.5t26 10.5q4 -1 10 -1q35 0 129 20q112 23 226 63q214 76 307 164q31 30 46.5 54.5t18.5 48.5 t-13.5 46t-51.5 43q-37 22 -141 47t-213 33q-18 1 -35 1q-135 0 -217 -42q-198 -481 -203 -565q-3 -34 -24.5 -39.5t-43.5 10.5q-19 12 -31 30.5t-8 31.5z" />
<glyph unicode="C" horiz-adv-x="933" d="M59 63q-1 18 -1 36q0 269 249 634q165 242 318.5 383t257.5 174q20 6 39 6q53 0 104 -43q62 -53 72 -112q1 -7 1 -14q0 -42 -24 -107q-17 -47 -55 -115q-16 -20 -30.5 -17.5t-26.5 19.5q-11 16 -15.5 37t2.5 37q32 80 41 109q15 50 15 80q0 32 -17 40q-7 3 -17 3 q-32 1 -90 -33q-76 -44 -173 -133q-156 -146 -287 -334q-159 -231 -223 -432q-38 -117 -38 -212q1 -9 1 -19q4 -102 55 -154q45 -47 115 -55q11 -1 24 -2q63 0 153 36q107 42 239 139q116 86 257 250.5t189 241.5q24 39 43 6q9 -18 9 -37q0 -17 -7 -35 q-14 -40 -124.5 -181.5t-207.5 -229.5q-259 -234 -467 -256q-26 -3 -50 -3q-126 0 -218 74q-103 84 -113 219z" />
<glyph unicode="D" horiz-adv-x="1067" d="M-106 1026q6 15 35 43t83.5 64.5t123 70.5t163 61.5t193.5 37.5q77 8 147 7q235 0 381 -88q190 -115 209 -337q2 -19 2 -38q1 -158 -103 -351q-116 -216 -303 -363q-176 -137 -330 -200q-147 -60 -259 -60h-11q-81 3 -131 59q-38 44 -38 100q0 17 3 34q35 175 211 528 q68 137 95.5 193.5t67.5 141t55.5 128.5t19.5 71q4 26 35 4q15 -10 28 -26q25 -32 25 -59q0 -11 -4 -21q-46 -128 -223 -473q-126 -247 -179 -391q-36 -98 -36 -151q0 -26 8 -42q8 -15 38 -17q6 0 11 -1q27 0 65 9q46 11 101.5 31.5t118.5 52.5t120 71q69 46 130.5 96 t129.5 121t119 146t89 170.5t49 195.5q3 27 3 53q0 53 -12 97q-18 66 -58.5 106.5t-97 69.5t-124.5 39t-140 14q-24 1 -48 1q-48 0 -97 -5q-95 -8 -189 -33.5t-164.5 -58t-126 -67t-84 -62.5t-28.5 -42q0 -26 -15 -26.5t-32 18.5q-16 16 -24.5 38t-1.5 40z" />
<glyph unicode="E" horiz-adv-x="897" d="M-66 -33q-2 15 -2 30q0 117 111 257q73 90 168 164q137 110 287 198q-90 37 -125 105q-21 40 -21 81q0 28 10 56q24 67 88.5 146t149.5 153q94 81 184 132q88 50 142 50h2q15 0 27.5 -2.5t25 -9t20.5 -11.5t19.5 -16.5t16 -16.5t17 -20t15.5 -18q18 -18 6 -39 q-9 -14 -25 -18t-24 6q-36 39 -80 39h-4q-47 0 -124.5 -42.5t-164.5 -115.5q-125 -105 -172 -199q-24 -48 -24 -84q0 -34 22 -57q28 -31 117 -61q124 65 184 71q9 1 18 1q56 0 86 -29q27 -25 5 -47q-29 -29 -97 -58q-62 -26 -134 -26h-15q-235 -127 -399 -281 q-92 -83 -148 -168q-62 -96 -68 -173q-1 -8 -1 -15q0 -65 47 -92q31 -19 83 -22q9 -1 19 -1q45 0 100 12q67 14 151 48.5t171 87.5q201 118 365 290q83 89 184 234q20 29 35 0q8 -16 8.5 -39.5t-8.5 -42.5q-39 -76 -125.5 -179t-200.5 -198q-263 -224 -534 -289 q-64 -16 -119 -16q-95 0 -164 47q-88 59 -105 178z" />
<glyph unicode="F" horiz-adv-x="897" d="M102 1028q-3 25 6.5 53t30.5 41q26 15 111 39t211 43q222 33 469 33q191 0 303 -39q47 -17 68.5 -38t15.5 -44q-5 -15 -31 -37q-38 -31 -51 -21q-7 5 2 25q4 12 -18 24.5t-70.5 22.5t-110.5 13q-60 3 -122 3q-131 0 -269 -13q16 -11 27 -31.5t10 -38.5q0 -7 -3 -16.5 t-9.5 -26t-12.5 -31.5t-19 -43t-22.5 -48.5t-27.5 -60t-31 -67.5l-106 -242q112 21 190 29q56 7 96 6q46 0 70 -8q38 -13 55 -37q5 -7 5 -13t-8 -9t-25 -2h-15q-61 0 -188 -19q-108 -17 -221 -41q-68 -168 -119 -313q-63 -187 -63 -268q0 -32 10 -48q10 -14 -9 -15 q-16 0 -36 11q-48 23 -54 70q-1 8 -1 19q0 70 53 237q45 139 102 276q-8 -4 -10 -4q-21 -9 -39 0t-29 29q-13 20 -10.5 40t24.5 21q27 0 107 17l137 309q124 276 135 315q-172 -18 -295 -49.5t-161 -72.5q-22 -21 -35.5 -14t-16.5 34z" />
<glyph unicode="G" horiz-adv-x="1007" d="M23 141q-1 13 -1 26q0 161 113 376q50 98 141 233q139 209 326 367q153 129 289 174q26 9 50 9q43 0 79 -28q58 -43 67 -96q1 -6 1 -12q0 -39 -33 -103q-37 -75 -84 -145q-11 -15 -26 -9t-25 25q-18 32 -2 58q42 72 63 125q24 55 24 80q0 14 -8 18q-9 5 -24 5 q-30 0 -82 -22q-76 -33 -180 -120q-161 -136 -318 -342q-147 -194 -225 -404q-45 -122 -50 -205q-1 -10 -1 -19q0 -67 35 -89q7 -3 18 -3q81 0 381 171q151 87 293 180.5t180 130.5q16 16 34.5 9.5t31.5 -29.5q13 -22 13 -45q0 -27 -18 -54q-55 -73 -139 -212t-170 -308 q-54 -107 -100 -224q-37 -96 -37 -131q0 -8 2 -13q3 -9 14.5 -13t22.5 -4.5t20 -7t9 -20.5q0 -10 -19.5 -17t-44.5 -4q-67 8 -90 66q-4 10 -4 26q0 100 170 424q38 73 91 166.5t86 150.5l34 58q-135 -96 -291 -190q-262 -159 -383 -185q-26 -5 -49 -5q-65 0 -113 38 q-67 53 -71 143z" />
<glyph unicode="H" horiz-adv-x="1325" d="M6.5 427q-1.5 18 18.5 32q84 49 440 98l61 141l80 199q43 109 67.5 183.5t30.5 111.5t6.5 49t-3.5 27q-2 9 10 10q21 2 55 -14q38 -19 41 -47q1 -3 0 -7q0 -56 -111 -333q-8 -20 -24.5 -61t-32 -79.5t-31.5 -74.5l-39 -93q164 18 226 21q203 11 346 11q33 0 63 -1 q19 49 144 350q94 229 105 272q4 17 3 27q-2 27 28 17q16 -6 32 -19q31 -28 31 -52q0 -3 -1 -7q-1 -7 -4 -17t-9.5 -26t-12 -30.5t-17 -42.5t-20.5 -48.5t-26 -61t-29 -69.5q-106 -256 -121 -295q64 0 78 4q14 3 23 -7t9 -24q2 -23 -13 -40.5t-42 -16.5q-8 0 -86 4 q-2 -2 -2 -6q-40 -101 -113 -309q-88 -261 -88 -317q0 -26 -16 -29q-17 -4 -39 8q-24 12 -39.5 32t-9.5 42q5 45 102 313q62 169 101 266q-196 -4 -408 -20q-110 -8 -238 -25q-30 -69 -79.5 -177.5t-63.5 -139.5q-79 -176 -112.5 -259t-34.5 -118q-1 -14 -12.5 -17.5 t-27.5 4t-28 21.5q-21 24 -21 52q0 6 1 11q6 34 31 97.5t47 111t75 158.5q77 158 115 242q-279 -46 -336 -94q-13 -9 -31 -1.5t-32 25.5q-15 20 -16.5 38z" />
<glyph unicode="I" horiz-adv-x="428" d="M61 -78q2 38 54 164q26 63 101 232.5t116 267.5q91 212 172 422q78 201 84 247q3 37 45 15q18 -8 32 -26q17 -22 17 -40q0 -38 -74 -221q-27 -64 -209 -479q-121 -265 -202 -488q-53 -146 -53 -182q0 -5 1 -8q4 -16 -9 -15q-18 1 -42 27q-33 37 -33 77v7z" />
<glyph unicode="J" horiz-adv-x="768" d="M-41 -68q-6 22 -6 46q0 39 15 84q25 72 52 108q3 6 17 6.5t26 -4.5q36 -12 25 -45q-2 -7 -9 -28.5t-12 -40t-11.5 -43.5t-8 -46t0 -40t11 -31.5t25.5 -16.5q8 -2 17 -2q44 0 107 47q75 56 171 191q117 166 233 397q109 219 179 377q27 60 65 150.5t47 111.5 q-42 -2 -84 -6t-103 -11.5t-81 -9.5q-230 -29 -297 -82q-13 -10 -24.5 0t-16.5 31q-7 23 -2.5 49.5t22.5 34.5q51 24 174 46t277 32q110 7 214 7q89 0 173 -5q207 -12 301 -51q86 -34 86 -86q0 -22 -26 -37q-34 -19 -53 -10q-11 4 -5 18q6 13 -6.5 27.5t-57 29t-114.5 19.5 q-155 8 -243 8h-33q0 -2 -1.5 -7.5t-1.5 -8.5q-26 -87 -110 -275q-63 -142 -191 -401q-88 -177 -165 -303q-143 -231 -267 -301q-59 -35 -114 -44q-21 -4 -40 -4q-29 0 -53 9q-39 14 -65.5 43t-36.5 67z" />
<glyph unicode="K" horiz-adv-x="1097" d="M63 -39q17 87 222 651q49 137 120.5 319t108.5 281.5t37 128.5q0 26 20.5 28t42.5 -17q40 -31 40 -71q0 -4 -1 -9q-4 -25 -37 -104t-98 -227.5t-110 -258.5l38 39q126 129 426 295q134 76 248 126q111 49 150 48h2q34 0 63 -33q9 -10 13.5 -20t1 -17t-16.5 -8 q-35 -1 -149 -52t-254 -128q-167 -92 -308 -188.5t-208 -172.5q18 -122 104 -239q72 -99 187 -176q69 -46 149 -60q41 -7 78 -6q34 0 66 6q64 14 107 49t44 80q1 24 16.5 26.5t28.5 -13.5q14 -16 18 -40.5t-8 -58.5q-24 -58 -90 -96q-67 -37 -151 -45q-21 -2 -43 -2 q-64 0 -132 16q-122 33 -219 115q-112 94 -194 250q-35 66 -41 112q-63 -173 -113.5 -343.5t-50.5 -233.5q0 -40 -20.5 -45.5t-43.5 16.5q-21 15 -34 39t-9 39z" />
<glyph unicode="L" horiz-adv-x="724" d="M47 0q6 73 53 213q28 81 65.5 171.5t98.5 228.5t64 145q77 174 118 260q96 209 105 246q6 19 23.5 19t39.5 -15t33.5 -38.5t1.5 -45.5q-2 -6 -96 -193q-94 -192 -199 -424q-111 -266 -153 -387q-20 -59 -32 -104t-18.5 -83t-1 -59t22.5 -22q3 0 7 -1q37 1 135 29 q108 30 229 74q179 64 219 88q26 17 32 -5q5 -17 -8 -42q-20 -39 -73 -63q-42 -21 -207 -86q-135 -52 -240 -82q-21 -5 -41 -5q-55 0 -108 34q-70 45 -70 133v14z" />
<glyph unicode="M" horiz-adv-x="1193" d="M-119.5 -151.5q-10.5 24.5 0.5 61.5q28 70 367 620q233 377 461 736q23 35 51 35q17 0 37 -13q29 -21 42 -60q6 -19 6 -37q0 -20 -7 -40q-14 -33 -65.5 -198.5t-100.5 -338.5q-60 -214 -82 -315q-18 -86 -18 -121q0 -20 6 -22q9 -3 40.5 28.5t75.5 87.5q106 133 277 387 q115 169 203.5 314t103.5 188q11 35 41.5 35t54.5 -25q23 -22 33 -51t0 -57q-5 -14 -44 -109.5t-90 -225t-85 -226.5q-113 -323 -114 -432q0 -26 7 -39q9 -21 35 -24t57.5 10t50.5 22.5t31 17.5q19 11 27 -8q5 -10 3 -27t-9 -26q-27 -36 -77 -54q-24 -9 -51 -9q-28 0 -58 10 q-42 13 -68 54t-29 107q-1 11 -1 23q0 95 44 235q33 105 90 254t98 246l40 96q-126 -204 -269 -419q-266 -400 -360 -465q-18 -11 -37 -11q-22 0 -47 15q-61 40 -64 151q0 67 95 412q27 99 60 212t52 176l19 63q-199 -315 -389 -627q-353 -581 -356 -621q-1 -26 -18 -34.5 t-36 2.5q-23 12 -33.5 36.5z" />
<glyph unicode="N" horiz-adv-x="964" d="M23 -127q12 87 184 557q50 139 114.5 310t107.5 285.5t52 139.5q18 52 78 56q31 2 52 -18t18 -56q-1 -15 -1 -37q0 -142 62 -559q41 -271 80 -463q80 253 211 567q130 312 203 445q84 152 139 160q6 1 12 1q37 0 60 -42q20 -37 8 -57q-6 -10 -21 -5q-5 1 -10 1 q-44 0 -108 -105q-64 -109 -199 -435q-83 -204 -160 -411t-86 -252q-9 -42 -41 -31q-38 12 -78 84q-50 94 -114 510q-48 310 -51 502q-58 -133 -254 -686q-168 -474 -181 -533q-6 -16 -19.5 -14t-29.5 18q-29 26 -29 57q0 5 1 11z" />
<glyph unicode="O" horiz-adv-x="978" d="M23 166q-1 13 -1 26q0 131 56 289q50 144 123 262q10 54 26 101q61 171 179 286q126 120 290 142q35 5 69 5q105 0 189 -50q112 -66 146 -209q15 -57 14 -122q0 -103 -36 -226q-60 -200 -189 -391q-103 -154 -228 -266.5t-245 -151.5q-65 -21 -122 -21q-79 0 -142 41 q-59 40 -92.5 113.5t-36.5 171.5zM115 121v-11q-1 -82 27 -132q30 -52 89 -58q10 -1 20 -1q75 0 185 56q124 64 246 201q134 150 236 369q90 192 90 364v25q-3 91 -33 156t-78 92q-46 26 -106 26q-16 0 -34 -2q-81 -9 -165 -57q-152 -90 -230 -258q-64 -139 -71 -244 q-1 -10 -1 -20q0 -63 24 -101q26 -44 61 -57q14 -6 18 -13t-1 -13.5t-15 -10.5q-20 -10 -41 -10q-19 0 -41 8q-52 18 -82 105q-34 -79 -57 -162q-41 -146 -41 -252z" />
<glyph unicode="P" horiz-adv-x="1007" d="M61 1091.5q-4 21.5 9 38.5q22 21 73 51.5t140 71t224.5 68t283.5 27.5q252 0 394.5 -76t153.5 -191q1 -9 0 -18q0 -62 -35 -133q-41 -82 -114.5 -159.5t-155 -144.5t-168.5 -124q-122 -81 -246.5 -133t-179.5 -54q-25 -3 -51 23q-24 24 -27 43l-16 -39 q-168 -418 -168 -489q0 -22 -12 -29t-27 2q-21 10 -35.5 35t-13.5 57q1 23 12.5 63t33.5 96.5t43 108.5t52.5 128.5t51.5 125.5q44 106 118.5 274.5t124 282.5t56.5 138q8 22 24 14.5t31 -31.5q21 -34 22 -56q0 -8 -4 -15q-7 -18 -48.5 -108.5t-106 -235t-123.5 -287.5 q4 4 12 4q187 18 471 203q118 77 213 169t144 178q35 62 35 109q0 18 -5 33q-27 82 -187 118q-107 24 -228 25q-60 0 -123 -6q-188 -19 -369.5 -91t-204.5 -120q-12 -17 -26 -12.5t-29 23.5q-15 21 -19 42.5z" />
<glyph unicode="Q" horiz-adv-x="935" d="M-80 -72q-2 15 -2 29q0 60 31 113q27 48 71 76q43 28 93 28h4q91 0 282 -72q176 143 299 289q151 176 267 402q76 153 102 270q11 51 11 85q0 44 -19 60q-17 15 -61 18h-14q-40 0 -96 -12q-66 -13 -134 -43q-182 -80 -297 -239q-74 -105 -113 -207q-44 -120 -44 -226 q0 -37 5 -73q12 -82 31 -104q9 -9 8 -16t-10 -7q-18 0 -51 23q-44 30 -60 75q-12 30 -17 77q-2 19 -2 41q0 34 4 77q8 70 30 143q66 206 227 367q121 121 268 174q105 39 190 39q28 0 54 -4q69 -12 123 -56q65 -52 74 -120q2 -10 2 -23q0 -45 -22 -125q-29 -103 -97 -237 q-92 -178 -236 -359q-145 -183 -319 -330q19 -8 112 -41q32 -10 71.5 -24.5t88 -33t76.5 -28.5q186 -67 254 -67h4q23 -2 14 -23q-7 -17 -30 -32q-36 -22 -78 -22q-9 0 -17 1q-46 5 -247 80q-120 45 -328 127q-106 -83 -196.5 -136.5t-129.5 -64.5q-16 -4 -32 -4 q-30 0 -58 14q-36 19 -59.5 54.5t-26.5 66.5zM1 -58.5q-1 -34.5 19 -50.5q5 -4 16 -4q39 0 152 66q64 38 127 84q-130 47 -172 53h-5q-70 0 -115 -78q-21 -36 -22 -70.5z" />
<glyph unicode="R" horiz-adv-x="1087" d="M74 1126q-2 12 -2 23q0 40 24 59q8 7 35 20.5t81 34t118.5 38t156 30t185.5 12.5q249 0 416 -80t182 -210q2 -13 2 -27q0 -100 -88 -192q-99 -104 -269 -179q-93 -41 -182.5 -71t-146 -43t-101.5 -22.5t-65.5 -17t-22.5 -18.5v-5q1 -35 57 -107q62 -78 158 -154 q127 -98 260 -149q54 -20 114 -28q39 -5 68 -4q16 0 30 1q39 4 46 14q8 12 18.5 10t16.5 -14q8 -15 8 -31q0 -18 -10 -39q-18 -38 -112 -38q-131 0 -265 57q-137 58 -272 170q-115 100 -176 192q-84 -222 -100 -270q-48 -146 -48 -196q0 -13 3 -19q8 -13 -10 -13 q-16 0 -36 11q-45 22 -51 74v6q0 53 74 242l115 282v2q-1 11 -1 22q0 68 46 93q43 108 105.5 252t99.5 230t40 110q2 13 10.5 16.5t18.5 -0.5t21 -12q15 -12 25 -30.5t9 -31.5q-3 -26 -20 -64t-73.5 -159t-121.5 -280q186 37 336 94q228 85 332 176q86 75 86 148q0 15 -4 30 q-24 79 -159 127q-127 46 -324 45h-25q-214 -3 -365 -50t-200 -101q-15 -17 -28.5 -5.5t-18.5 39.5z" />
<glyph unicode="S" horiz-adv-x="821" d="M-129 -59q13 57 53 79q13 7 21 0t0 -18q-18 -24 -18 -49t20 -37q32 -20 93 -21q99 0 273 54q317 97 351 231q5 22 6 42.5t-4.5 41t-13 38.5t-22.5 40t-30 40.5t-38.5 45t-44.5 48.5t-52 55.5t-57 62.5q-61 69 -96.5 117.5t-58.5 112.5q-14 40 -14 78q0 23 5 44 q17 70 93 140t189 126q144 72 295 93q21 3 40 3q63 0 97 -34q23 -23 28.5 -57t-3.5 -54q-7 -24 -45 -106q-8 -17 -22 -42.5t-17 -33.5q-9 -26 -27 -8q-16 17 -26 45q-2 4 -2 11q0 24 24 77q2 6 6.5 16.5t7 16.5t6 15t5.5 14.5t3 11.5t1 10.5t-2 7.5q-9 10 -41 10t-78 -9.5 t-108.5 -32t-124.5 -54.5q-203 -102 -202 -238q0 -12 1 -24q5 -41 32 -86t58.5 -79.5t93.5 -100t105 -117.5q17 -20 28.5 -34.5t27.5 -35.5t26.5 -38t22 -38.5t17.5 -41.5t11 -42.5t5 -46t-5 -47.5q-14 -78 -124.5 -151t-266.5 -125q-127 -41 -242 -57q-53 -7 -96 -8 q-49 0 -84 10q-52 16 -71 52q-12 23 -12 49q0 14 3 28z" />
<glyph unicode="T" horiz-adv-x="643" d="M-80 1014q-3 27 6 55t29 39q28 14 132.5 40.5t244.5 45.5q198 28 401 27q62 0 125 -2q128 -6 221 -28q93 -21 133 -51q34 -25 34 -51q0 -5 -1 -10q-8 -20 -26 -35q-35 -28 -52 -21q-12 5 -2 28q4 12 -18 24.5t-69.5 24t-110.5 18.5q-143 15 -269 15h-41q21 -25 31 -54 q7 -20 -8 -45q-19 -30 -49 -87t-92 -192t-129 -300q-191 -486 -199 -578q-2 -20 -11 -25.5t-21 0.5t-25 21q-27 35 -27 73v5q1 23 15.5 69.5t41 114t51 127t60.5 145.5t55 132q61 150 155.5 362t100.5 227q-71 -5 -237 -30q-345 -53 -400 -105q-22 -19 -34 -12t-15 33z" />
<glyph unicode="U" horiz-adv-x="1198" d="M141 23q0 87 46 227t169 393q73 151 164 317q90 168 128 242q35 69 34 98q0 29 35 14q18 -9 35 -22q31 -24 30 -47v-6q-4 -21 -51 -104.5t-135 -243.5t-164 -318q-211 -435 -211 -561q0 -32 13 -44q7 -6 18 -7h1q59 0 258 192q200 193 347 367q100 120 208.5 273t158 230 t82.5 132q15 24 36 22.5t37 -22.5q20 -25 20 -48q0 -16 -9 -32q-7 -12 -38.5 -57t-61.5 -91t-80 -140.5t-99 -208.5q-56 -129 -80 -241q-18 -84 -19 -140q0 -17 2 -33q8 -62 38 -68q3 -1 7 -1q64 0 236 208q114 137 148 203q11 19 22 17t19 -19q8 -16 8 -39t-10 -39 q-119 -180 -166 -238q-141 -174 -232 -184q-5 -1 -10 -1q-50 0 -94 56q-41 54 -51 138q-3 24 -3 50q0 51 10 111q15 92 52 172q-225 -268 -387 -428q-95 -96 -183.5 -159.5t-129.5 -69.5q-6 -1 -13 -1q-29 0 -65 24q-70 51 -70 127z" />
<glyph unicode="V" horiz-adv-x="847" d="M94 33q-3 115 174 696q109 360 109 439q0 11 -2 16q-4 15 16 17h5q26 0 55 -21q38 -27 38 -66q-1 -27 -23 -99q-24 -75 -72 -217.5t-81 -250.5q-20 -65 -39 -130.5t-37.5 -137.5t-30.5 -133t-18 -111q-3 -23 -2 -41q0 -22 4 -37q6 -28 25 -27q55 3 240 234 q190 239 372 545q124 209 232 360q146 205 211 240q30 12 51 9t31 -18q10 -11 5 -27.5t-24 -29.5q-52 -35 -176 -217q-90 -132 -307 -471q-194 -302 -320 -459q-173 -215 -260 -250q-23 -11 -53.5 -2.5t-56.5 33.5q-66 58 -66 148v8z" />
<glyph unicode="W" horiz-adv-x="1312" d="M51 61q2 78 150 549q11 36 29.5 95.5t30 95.5t27.5 88t26 85t22 73t18.5 65t12.5 48.5t8 36t0 15.5q-11 25 14 29q20 3 43 -10q34 -19 43 -55q2 -9 -6 -43.5t-27 -98.5t-38.5 -124.5t-50.5 -158.5t-52 -165q-146 -468 -146 -594q0 -41 15 -45h3q27 -1 121 97 q100 104 236 278q155 191 262 381.5t109 261.5q1 19 27 20.5t51 -12.5q42 -23 42 -57q0 -5 -1 -11q-5 -26 -56.5 -191t-80.5 -272q-60 -223 -60 -326q0 -72 29 -87q2 -1 4 -1q28 0 110 106q90 114 246 347q20 31 78.5 124t106.5 168t90 136q143 211 207 232q20 6 40 6 q22 0 42 -8q18 -7 23.5 -19.5t-5.5 -19.5q-70 -38 -231 -271q-42 -60 -90 -133t-103.5 -159.5t-81.5 -126.5q-257 -396 -356 -447q-21 -11 -44 -11q-36 0 -77 28q-49 32 -74 92q-8 18 -12 46t-4 58t3.5 65.5t8 66t10.5 64t10.5 54.5t9.5 41.5t5 21.5q-5 -8 -31.5 -46.5 t-75 -105.5t-92.5 -122q-12 -15 -51 -62t-56 -67t-50.5 -59t-53 -58.5t-45 -44t-44 -37t-33.5 -16.5q-18 -4 -35 -4q-51 0 -90 39q-31 30 -47 73q-14 36 -13 70v12z" />
<glyph unicode="X" horiz-adv-x="862" d="M-125 -76q24 83 281 383q24 28 243 277l43 49q6 49 15 104q4 35 19.5 124t23.5 147q6 45 6 91v29q-2 61 -25 82q-15 15 -42 15q-40 0 -107 -35q-120 -67 -150 -119q-12 -18 -29.5 -6.5t-23.5 39.5q-2 10 -2 19q0 28 18 55q14 20 53.5 50.5t86.5 51.5q68 29 119 29 q14 0 26 -2q65 -8 113 -56q55 -55 55 -129v-8q-1 -39 -7 -93t-18 -141.5t-16 -121.5q229 244 358 362q215 202 281 217q17 3 31 3q37 0 53 -21q7 -11 5 -21.5t-13 -13.5q-17 -2 -105.5 -74.5t-208.5 -185.5q-221 -207 -401 -401q-2 -2 -7.5 -8.5t-8.5 -8.5 q-16 -174 -17 -293q0 -68 6 -118q17 -166 97 -177q6 -1 12 -1q91 0 276 216q65 77 122 156.5t77 116.5q8 14 19.5 12t21.5 -16q10 -16 10 -34q0 -14 -6 -28q-58 -113 -182 -268q-168 -210 -254 -233q-26 -7 -51 -7q-71 0 -136 52q-89 70 -104 194q-8 69 -8 151q0 70 6 150 q-169 -197 -197 -231q-58 -71 -108.5 -136t-72.5 -94l-21 -30q14 2 26 0q15 -2 20.5 -7t-5.5 -14q-20 -16 -31 -25.5t-34 -37.5t-50 -68q-9 -12 -28.5 -9.5t-34.5 17.5q-23 21 -23 52q0 13 4 28z" />
<glyph unicode="Y" horiz-adv-x="937" d="M-23 86q13 54 58 145t117 225.5t116 229.5q109 228 152 347q29 79 29 125q0 23 -7 38q-9 19 14 21q35 0 68 -31q35 -35 35 -73q0 -33 -67 -187q-71 -162 -170 -353q-156 -299 -220 -447q-44 -100 -44 -143q0 -21 10 -28q6 -5 16 -5q21 0 58 22q54 33 126 99t149 142 t155 156q37 39 55 57q183 184 306 322.5t152 189.5q18 28 52.5 13.5t52.5 -52.5q10 -21 10 -40q0 -28 -22 -50q-54 -49 -240 -373q-153 -272 -252 -454q-92 -173 -147 -304q-27 -64 -49 -122.5t-31.5 -90.5t-9.5 -40q0 -14 26.5 -17t30.5 -14q2 -8 -11 -20t-32 -19 q-24 -9 -43 -9q-32 0 -49 25q-12 18 -12 50q0 83 75 264q51 123 137 297q76 148 162.5 304t135.5 238l49 82q-285 -334 -422 -459q-28 -25 -71.5 -64t-68 -61t-58.5 -51.5t-56 -45.5t-47 -31.5t-45 -22t-37 -6.5q-56 3 -90 37q-33 31 -45 82q-6 27 -6 53q0 25 5 49z" />
<glyph unicode="Z" horiz-adv-x="931" d="M-135 -47q-8 27 -8 49q0 39 26 61q32 18 68 31t56 17l20 4q411 354 614 534l365 328q-68 37 -150 78q-184 92 -238 102q-102 0 -196 -98q-20 -20 -41 -20q-13 0 -27 8q-16 10 -19.5 26t9.5 35q72 84 129 117q58 32 115 32q14 0 28 -2q17 -3 39.5 -11t54 -23.5t53.5 -27 t65 -34.5t61 -33q126 -67 186 -79q27 6 56 21.5t42 25.5t41 34q11 11 29 6.5t31 -20.5q14 -13 12 -38t-26 -44q-52 -40 -276.5 -223.5t-365.5 -302.5q-68 -58 -177 -154.5t-184 -163.5l-75 -67q45 5 100 5q113 0 269 -22q76 -11 198 -42t187 -52q51 -17 59 -57 q5 -21 -8 -33.5t-35 -3.5q-70 31 -226.5 67.5t-322.5 47.5q-80 6 -142 6q-159 0 -198 -39q-28 -17 -78 -57.5t-59 -46.5q-13 -10 -31.5 8.5t-29.5 50.5z" />
<glyph unicode="[" horiz-adv-x="608" d="M-27.5 -347.5q-4.5 49.5 13.5 91.5q1 4 15.5 56t38 125.5t58.5 170.5q25 73 68 185q74 196 244 632l116 297q19 56 39 76q26 26 80 23h25h42.5t47 1t53 3t48 7t42.5 11q22 7 34.5 0.5t10.5 -22.5q-2 -18 -18 -38t-45 -32q-58 -23 -146 -28t-98 -13q-37 -29 -141 -303 q-58 -151 -170 -455l-152 -397q-128 -336 -108 -358q10 -14 112 4q126 25 150 26q58 3 61 -24q2 -12 -11 -26t-34 -21q-109 -43 -194 -60q-106 -21 -140 -2q-37 21 -41.5 70.5z" />
<glyph unicode="\" horiz-adv-x="864" d="M340 1333q-11 22 2 33.5t37 11.5q33 0 45 -18q25 -27 121 -369q98 -357 108 -391l125 -444q67 -225 80 -234q2 2 7 1t11 -5.5t7 -9.5q21 -12 21.5 -47t-13.5 -41q-13 -10 -18.5 -13t-26.5 -1.5t-45 18.5q-41 32 -109 268q-23 79 -48 177t-48.5 192.5t-30.5 122.5 l-121 405z" />
<glyph unicode="]" horiz-adv-x="438" d="M0.5 -361.5q9.5 18.5 32.5 3.5q61 -42 131.5 -53.5t107.5 18.5q32 27 72.5 115.5t118.5 297.5q21 55 72.5 198t85.5 233q105 293 147 423q89 276 78 295q-7 14 -41 12t-77.5 -8t-94.5 5q-45 9 -72 36q-28 25 -23 46.5t42 11.5q26 -5 59 -7t56.5 -2t69.5 0.5t71 0.5 q91 3 114 -41q19 -35 -2 -113q-35 -125 -102 -324q-90 -266 -195 -557l-98 -258q-85 -221 -119 -288q-37 -85 -66.5 -122.5t-84.5 -56.5q-43 -16 -124.5 -0.5t-115.5 39.5q-31 21 -41 49q-11 28 -1.5 46.5z" />
<glyph unicode="^" horiz-adv-x="634" d="M225.5 646.5q-3.5 15.5 12.5 27.5q30 18 188 188q177 189 188 225q8 20 28 21t38 -12q43 -30 37 -70q0 -66 9.5 -148.5t29.5 -117.5q19 -41 44 -77t42 -46q12 -12 2 -25q-6 -9 -19.5 -15t-25.5 -3q-63 15 -123 111q-25 39 -40.5 92t-18.5 78t-3 36l-108 -116 q-161 -174 -184 -191q-35 -25 -76 12q-17 15 -20.5 30.5z" />
<glyph unicode="_" horiz-adv-x="1024" d="M0 -141h1024v-86h-1024v86z" />
<glyph unicode="`" horiz-adv-x="749" d="M389 1124q0 35 39 52q23 12 45.5 7.5t22.5 -26.5q0 -25 23.5 -75t64.5 -95q52 -59 98.5 -89t71.5 -30q10 1 12.5 -5t-2.5 -15q-18 -31 -64 -31q-43 0 -106 34t-107 81q-40 44 -69 98t-29 94z" />
<glyph unicode="a" d="M53 131q34 133 150 315q144 224 252 242q10 2 20 2q36 0 76 -22q51 -28 78 -84l35 45q20 26 49 4q21 -14 31.5 -40.5t0.5 -41.5q-68 -96 -127 -268q-18 -53 -27 -97q-6 -30 -6 -53q0 -11 1 -20q4 -30 24 -35q3 -1 6 0q52 0 191 172q60 73 116 151.5t68 104.5 q10 18 22.5 14t20.5 -22q16 -31 2 -58q-34 -74 -143 -219q-74 -100 -131 -151q-40 -36 -80 -53q-29 -12 -57 -12q-11 -1 -21 1q-38 6 -69 41q-37 43 -37 119v12q3 87 45 166q-60 -87 -159.5 -193.5t-178.5 -162.5q-31 -23 -58 -23q-28 0 -53 25q-26 26 -38 68q-7 24 -7 44 q0 15 4 29zM127 51q2 -1 5 -2q40 0 243 230q125 143 209 249q-46 75 -78 78h-4q-74 0 -207 -200q-48 -74 -91 -156q-42 -82 -64 -138q-15 -39 -16 -53q0 -6 3 -8z" />
<glyph unicode="b" horiz-adv-x="530" d="M117 63q-1 6 -1 14q0 61 44 191q45 135 119 297l147 314q122 256 154 311q14 23 30.5 26t26.5 -10q19 -21 19 -53q0 -19 -7 -41q-18 -55 -114 -240l-113 -215q-20 -39 -21 -43q53 49 121 66q15 3 30 3q47 0 83 -32q50 -44 53 -112v-7q0 -54 -40 -136q-44 -86 -116 -181 q-79 -105 -164 -182t-135 -84q-8 -2 -16 -2q-37 0 -65 35q-32 41 -35 81zM190 29q5 -4 12 -4q30 0 92 60q78 74 155 179q73 95 128 203q38 75 38 115q0 17 -7 28q-11 12 -45.5 0t-75.5 -41q-67 -46 -94 -90q-11 -17 -24 -20q-17 -3 -31 14q-57 -133 -82 -199 q-70 -187 -70 -232q0 -10 4 -13z" />
<glyph unicode="c" horiz-adv-x="493" d="M80 160q10 101 94 235q60 95 133.5 164t141.5 82q8 2 16 2q39 0 76 -37q46 -44 46 -95q0 -9 -1 -17q-4 -28 -29 -65.5t-49 -55.5q-24 -17 -47 2q-26 23 -8 53q60 93 60 123q0 9 -5 12q-11 8 -26 8q-36 0 -90 -52q-74 -72 -140 -187q-50 -90 -74 -172q-14 -49 -15 -83 q0 -23 7 -40q20 -35 58 -35q34 0 82 26q103 58 231 199q125 138 202 275q20 35 45 10q13 -13 17 -33.5t-4 -36.5q-103 -168 -195 -274q-165 -191 -305 -225q-30 -7 -56 -7q-78 0 -124 64q-42 55 -42 136q0 12 1 24z" />
<glyph unicode="d" horiz-adv-x="692" d="M18 92q3 48 53 143.5t122 196.5q69 97 136.5 166t112.5 80q16 4 31 4q29 0 53 -16q36 -26 56 -74q79 143 147 303q29 68 66 160.5t45 109.5q11 25 29.5 25.5t31.5 -19.5q18 -28 18 -62q0 -23 -8 -48q-23 -66 -127 -277l-116 -233q-12 -21 -39 -95.5t-49 -148.5 q-31 -110 -31 -163q0 -43 20 -48q3 -1 7 -1q48 0 184 161q116 134 184 250q18 29 37 6q10 -13 11 -36.5t-9 -47.5q-34 -71 -133 -203q-103 -137 -176 -180q-45 -26 -85 -26q-27 0 -52 12q-48 22 -64 80q-7 26 -7 58q0 52 19 120q-31 -47 -106 -133q-117 -138 -207 -195 q-21 -11 -47.5 -3.5t-52.5 30.5q-54 47 -54 104zM117 41q3 -1 8 -1q25 0 81 52q66 62 152 170q67 83 152 211l33 53q-11 66 -45 66q-40 -3 -100 -63.5t-124 -153.5q-80 -117 -130 -221q-35 -71 -34 -98q0 -12 7 -15z" />
<glyph unicode="e" horiz-adv-x="538" d="M100 169q0 6 -1 12q0 86 48 196q120 253 287 297q26 6 48 6q51 0 85 -33q30 -30 30 -71q0 -13 -3 -27q-16 -86 -178 -234q-119 -107 -226 -170v-11q0 -46 16 -76q18 -34 52 -35h6q62 0 146 59q88 62 180 160q149 162 201 264q10 17 22.5 16t20.5 -16q15 -27 6 -51 q-22 -57 -77 -140.5t-124 -158.5q-80 -89 -165.5 -146t-162.5 -63h-14q-90 0 -147 71q-46 61 -50 151zM211 250q108 79 199 180q54 58 84 105q23 36 22 55q0 6 -2 10q-10 21 -49.5 -4t-91.5 -80q-86 -93 -133 -190q-23 -53 -29 -76z" />
<glyph unicode="f" horiz-adv-x="444" d="M-82 -389q8 104 72 295q77 236 190 471q27 56 100.5 224t116.5 253q139 275 238 285q12 1 23 1q61 0 92 -42q25 -32 25 -74q0 -37 -19 -82q-31 -77 -215 -309q-203 -254 -299 -332q-24 -53 -39 -92q31 -3 60 -3q113 0 198 46q128 70 237 252q7 13 15 14t13 -3.5t13 -14.5 q8 -11 8.5 -32t-8.5 -36q-96 -171 -213 -244q-97 -60 -225 -67q25 -42 34 -101q4 -25 4 -54q0 -39 -7 -86q-12 -82 -49 -171q-53 -125 -116.5 -192.5t-117.5 -67.5q-58 0 -96 35q-36 36 -36 108q0 9 1 19zM0 -481q7 -8 18 -8q16 0 40 18q41 29 90.5 110t82.5 189 q28 94 28 157v15q-4 67 -27.5 97t-59.5 30h-2q-53 -131 -115 -311q-64 -191 -64 -261q0 -26 9 -36zM334 514q24 28 160 201q201 257 201 325q0 9 -3 15q-11 18 -26 18q-18 0 -40 -25q-43 -44 -100 -149q-24 -43 -139 -274q-4 -9 -23 -46.5t-30 -64.5z" />
<glyph unicode="g" horiz-adv-x="675" d="M-101 -438q-1 9 -1 17q0 37 26 71q58 69 226 166q28 16 113 63.5t132 75.5l23 49l51 125q86 210 90 227q-25 -41 -137 -166q-143 -159 -227 -198q-16 -7 -32 -7q-38 0 -69 46q-26 40 -26 87q0 23 6 48q12 59 52 139t95 156q60 86 120 144t103 65q14 2 27 2q40 0 75 -21 q47 -28 70 -76q16 24 27 46q10 20 29.5 13t38.5 -32q22 -31 22 -57q0 -11 -4 -21q-28 -55 -88 -209q-69 -176 -111 -272q134 105 256 256q83 104 148 209q9 13 21 9.5t20 -17.5q9 -17 9 -33.5t-9 -32.5q-41 -84 -141 -203q-125 -150 -273 -262q-70 -50 -98 -67v-4 q-71 -141 -141 -252q-93 -147 -166 -199q-35 -23 -76 -25h-7q-37 0 -69 14q-35 16 -61 44q-37 37 -44 82zM-17 -442q1 -25 23.5 -43.5t54.5 -14.5q56 6 148 133q34 44 113 179q-75 -46 -129 -74q-61 -34 -87 -49t-59.5 -39t-50.5 -45q-14 -22 -13 -47zM156 74q2 -1 5 -1 q38 0 210 191q102 113 192 236q-30 75 -61 80h-3q-61 0 -192 -185q-74 -107 -123 -209q-34 -72 -34 -98q0 -11 6 -14z" />
<glyph unicode="h" horiz-adv-x="778" d="M63 59q5 24 54 146q62 151 192 426l133 276q18 37 44 88t37 74.5t14 32.5q6 17 24 17t33 -17q20 -22 20 -55q0 -18 -6 -39q-20 -71 -88 -197q-137 -244 -176 -319q-111 -220 -145 -316q94 153 196 273q121 143 193 167q14 4 27 4q41 0 79 -40q38 -44 38 -87q0 -13 -3 -26 q-4 -15 -13.5 -42t-25.5 -69.5t-26 -70.5q-52 -144 -52 -197q0 -24 11 -29q5 -2 10 -3q56 0 221 204q62 76 117.5 154t60.5 92q6 14 19 12t22 -16q18 -25 6 -58q-10 -26 -54 -94.5t-99 -138.5q-114 -148 -201 -205q-41 -26 -75 -26q-15 0 -29 6q-44 16 -68 69q-19 42 -19 92 q0 12 1 25q6 77 59 205q6 15 14 34t13 31.5l11 27.5t9.5 25t6 19.5t2.5 16t-3 10.5t-8 4q-15 0 -51 -33q-49 -45 -129 -135q-100 -115 -198 -243t-118 -171q-5 -10 -20.5 -5.5t-30.5 19.5q-30 30 -30 66q0 8 1 16z" />
<glyph unicode="i" horiz-adv-x="385" d="M152 233q20 93 69 205q22 51 55.5 121.5t38.5 83.5q9 27 43 12q22 -10 34 -33.5t1 -48.5q-81 -167 -125 -301q-33 -99 -34 -147q0 -32 16 -41q5 -3 12 -2q28 0 80 48q65 60 141 157q129 164 152 219q8 16 20.5 12t22.5 -20q15 -27 4 -52q-33 -77 -137 -215 q-153 -208 -242 -221q-10 -1 -20 -1q-50 0 -86 38q-31 32 -43 82q-7 27 -7 56q0 23 5 48zM373.5 927.5q-1.5 30.5 19.5 39.5q20 10 53 7t62 -18q29 -14 39.5 -39.5t-10.5 -37.5q-16 -10 -49 -10q-8 0 -17 1q-46 3 -72 15q-24 12 -25.5 42.5z" />
<glyph unicode="j" horiz-adv-x="311" d="M-464 -448q-2 13 -2 25q0 38 26 73q64 76 235 174q26 15 107.5 59.5t124.5 71.5l22 49q59 143 137 344q23 59 59 151t57.5 146.5t29.5 77.5q9 21 23.5 14t27.5 -32q20 -37 20 -65q0 -15 -6 -28q-27 -56 -116 -282q-68 -175 -113 -281q119 93 244 244q103 124 153 215 q10 14 20.5 11.5t18.5 -17.5q10 -18 10 -36q0 -16 -8 -32q-46 -89 -141 -205q-124 -147 -252 -247l-115 -84q-79 -161 -162 -285.5t-145 -165.5q-43 -25 -86 -25q-9 0 -17 1q-52 6 -94 40q-46 38 -58 89zM-369 -469q19 -32 56 -32q5 0 10 1q46 6 121 97q64 79 135 210 q-35 -20 -98.5 -55t-90.5 -51q-95 -55 -129 -94q-14 -20 -14 -40q0 -18 10 -36zM361.5 1003q-1.5 30 19.5 39q18 9 51.5 7t63.5 -17q29 -14 38.5 -40t-10.5 -38q-17 -9 -50 -9q-8 0 -16 1q-45 2 -71 15q-24 12 -25.5 42z" />
<glyph unicode="k" horiz-adv-x="657" d="M53 -29q5 41 76 234q59 161 104 270l162 373q72 170 86 194q15 25 33 23t33 -23q12 -13 17.5 -31t2.5 -30q-5 -18 -149 -328l-88 -188l-43 -96l24 28q85 91 207 170q122 76 194 76h5q32 0 57 -29q9 -13 12 -25t-2.5 -19t-19.5 -5q-5 1 -12 1q-34 0 -90 -28 q-66 -32 -140 -87q-120 -89 -194 -185q-54 -69 -54 -112q0 -13 5 -23q15 -27 63 -31q9 -1 18 -1q40 -1 88 11q58 14 125 42q79 32 142 70t78 65q5 7 11 7.5t13 -7.5t10 -21q2 -7 2 -14q0 -23 -18 -53q-19 -27 -77.5 -68.5t-127.5 -73.5q-112 -51 -196 -51h-9 q-89 3 -140.5 43t-57.5 105q-26 -67 -51 -156q-19 -71 -19 -100v-7q3 -16 -10 -15q-14 1 -35 22q-35 32 -35 67v6z" />
<glyph unicode="l" horiz-adv-x="464" d="M178 76q-10 44 -10 101q0 197 125 542q61 163 125.5 293t97.5 157q43 34 83 34q23 0 44 -11q37 -22 51 -68q6 -21 5 -44q0 -30 -9 -64q-30 -101 -149 -293q-114 -179 -256 -354q-23 -81 -29 -191q-1 -20 -1 -37q0 -89 30 -100q5 -2 11 -2q61 0 239 215q61 72 113 145 t67 103q9 16 20.5 17.5t18.5 -9.5q10 -11 12.5 -31t-4.5 -39q-14 -33 -64.5 -107.5t-111.5 -150.5q-157 -196 -221 -219q-22 -8 -43 -8q-33 0 -66 18q-62 36 -78 103zM340 567q23 35 156 248q46 76 79 146t44.5 111.5t3.5 49.5q-6 6 -14 6q-32 0 -89 -110q-24 -45 -51 -107 q-46 -106 -76 -186q-23 -59 -53 -158z" />
<glyph unicode="m" horiz-adv-x="1146" d="M61 106q12 76 136 306q99 187 139 239q14 16 28.5 14t28.5 -16q13 -13 17.5 -29.5t-2.5 -29.5q-25 -36 -105 -184l-117 -228q115 160 240 299q171 189 252 205q17 3 37 -8t35 -31q25 -35 25 -78q0 -9 -1 -18q-8 -60 -65.5 -194.5t-65.5 -162.5q111 138 244 277 q131 138 188 170q10 5 21 5q23 0 47 -24q14 -15 18.5 -32.5t-4.5 -28.5q-22 -27 -59 -108.5t-64 -165.5q-14 -41 -22.5 -77t-12 -65t1.5 -46t19 -17h1q48 0 208 190q119 141 168 230q10 19 22.5 20t20.5 -12q10 -13 10.5 -34.5t-12.5 -45.5q-68 -113 -133 -199 q-131 -173 -224 -213q-26 -11 -50 -11q-29 1 -53 15q-48 28 -65 82q-7 23 -7 52q0 54 24 131q15 46 37.5 95.5t37.5 75.5l15 27q-76 -80 -162 -174q-193 -209 -233 -264q-11 -14 -24 -14q-15 0 -32 18q-39 39 -39 81q0 26 46 134q49 114 92 220q32 77 32 101q0 9 -4 11 q-2 1 -6 1q-42 0 -223 -210q-100 -116 -187.5 -232t-99.5 -149q-7 -18 -22 -19.5t-31.5 10t-32.5 30.5q-34 45 -34 74q0 4 1 7z" />
<glyph unicode="n" horiz-adv-x="780" d="M70 86q15 53 108 264q84 188 131 266q7 10 18.5 9t22.5 -11q14 -11 22.5 -28.5t2.5 -30.5q-6 -14 -34.5 -70.5t-45.5 -93.5q-57 -117 -88 -209q29 44 100.5 134t145.5 169q144 151 215 170q7 2 14 2q34 0 63 -41q23 -30 29 -64q2 -10 1 -19q0 -23 -11 -44 q-58 -106 -96 -208q-40 -104 -40 -154q0 -35 19 -45q4 -2 9 -2q24 0 72 42q58 50 126 134q57 69 109 141.5t71 108.5q6 12 19 12t22 -10q10 -10 12 -27.5t-8 -40.5q-59 -116 -153 -233q-103 -135 -191 -189q-35 -21 -66 -21q-46 0 -83 46q-26 31 -36 75q-6 27 -6 53 q0 17 3 34q17 97 76 205q8 16 18.5 34.5t17.5 30.5t15 27t12 23t8 18.5t3 14t-3 9.5q-4 5 -11 5q-21 0 -67 -44q-62 -58 -165 -172q-98 -111 -189.5 -228t-105.5 -146q-4 -8 -17 -5t-28 15q-22 17 -35 42.5t-6 51.5z" />
<glyph unicode="o" horiz-adv-x="579" d="M94 129q3 128 119 326q43 75 89 131.5t73 70.5q15 7 27 7q22 0 38 -23q43 39 93 55q25 8 48 7q22 0 40 -7q59 -22 65 -116q1 -8 0 -16q0 -69 -45 -158q-41 -84 -104 -162q87 13 178 104q60 63 112 152q15 23 29.5 20.5t20.5 -24.5q4 -13 4 -26q0 -19 -9 -38 q-66 -114 -145 -184q-106 -93 -212 -93l-50 5q-64 -68 -94 -94q-70 -61 -109 -70q-17 -4 -34 -4q-40 0 -74 24q-27 20 -43.5 51t-16.5 62zM188 66q5 -3 11 -2q33 0 110 71q31 28 66 66q-38 27 -56 65t-18 82v12q0 20 4 48q-59 -98 -98 -189q-34 -81 -34 -120q0 -26 15 -33z M383 375q-2 -16 -2 -29q0 -60 39 -82q4 -4 6 -4q55 63 102 137q75 115 75 181q0 9 -1 18q-9 42 -36 42q-16 0 -39 -15q-40 -27 -74 -78q-57 -84 -70 -170z" />
<glyph unicode="p" horiz-adv-x="630" d="M-111 -365q6 59 277 670q186 425 199 477q2 11 9 14.5t15.5 0.5t16.5 -11q28 -24 28 -57q0 -14 -6 -36.5t-15 -46t-22 -52t-22.5 -47.5t-19.5 -39.5t-11 -22.5q53 67 125 127q82 70 131 80q11 2 21 2q34 0 65 -24q45 -39 49 -109v-5q0 -73 -80 -232q-55 -109 -136 -195.5 t-144 -99.5q-32 -9 -58 -4t-44.5 14.5t-32.5 27.5t-22.5 33.5t-14.5 34.5q-35 -69 -129 -287q-91 -219 -103 -274q-6 -26 -20 -31.5t-27 8.5q-29 29 -29 75v9zM236 209q14 -57 32 -84.5t49 -20.5q80 17 189 175q33 47 61 96.5t45.5 89.5t29.5 74.5t11.5 52.5t-8.5 24 q-3 1 -6 1q-17 0 -54 -24q-45 -29 -102 -81q-157 -145 -247 -303z" />
<glyph unicode="q" horiz-adv-x="655" d="M84 96v8q0 54 34 148q38 100 99 201q62 103 127 173.5t117 80.5q11 2 23 2q28 0 58 -12q41 -17 67 -40t44 -47q54 70 64 88q14 23 32 19.5t29 -25.5q10 -21 10 -39q0 -20 -12 -37q-28 -40 -109.5 -219t-156.5 -364q-164 -405 -164 -518q0 -31 19.5 -37.5t44.5 2.5 q17 5 26 -8q5 -8 -1.5 -18.5t-22.5 -16.5q-22 -7 -44 -9.5t-50 8t-44 36.5q-13 21 -14 54q-1 4 -1 9q0 31 11 79q11 55 32.5 123.5t57.5 170.5q81 234 140 371q-32 -49 -109 -140q-106 -122 -162 -147q-17 -7 -34 -7l-64 25q-44 32 -47 86zM172 61q1 -1 2 -1q15 0 70 58 q60 63 153 173q147 178 215 268q-26 27 -58 48t-46 18q-66 -13 -197 -207q-80 -123 -125 -234q-27 -66 -27 -97q0 -21 13 -26z" />
<glyph unicode="r" horiz-adv-x="577" d="M177 359.5q-1 21.5 18 54.5l118 188q93 150 107 195q4 10 16.5 9t26.5 -11q37 -25 26 -50q-5 -12 -13.5 -27.5t-12.5 -26t-4 -23.5q0 -5 19 -9t47 -9.5t42 -12.5q25 -11 33 -35q2 -8 2 -17q0 -28 -22 -75q-30 -58 -78 -168q-83 -190 -83 -247q0 -18 9 -23q5 -3 12 -3 q51 0 197 173q63 76 120.5 155.5t71.5 108.5q11 19 25 14t20 -26q4 -12 4 -25q0 -22 -12 -43q-97 -156 -164 -242q-94 -123 -178 -170q-40 -22 -74 -22q-46 0 -81 41q-38 45 -38 106q0 22 5 45q17 85 67 187q15 33 39 78.5t37 72.5t15 41q3 17 -20.5 25.5t-47.5 7.5h-25 l-55 -86q-58 -92 -104 -160q-24 -34 -49 -20q-15 8 -16 29.5z" />
<glyph unicode="s" horiz-adv-x="450" d="M61 51q6 21 144 86q37 16 119 56q-7 21 -32.5 74.5t-37.5 99.5q-9 34 -9 72q0 13 1 26q9 91 106 199q84 91 146 106q8 2 16 2q26 0 49 -20q25 -21 26.5 -45.5t-26.5 -28.5q-58 -9 -143 -94q-89 -89 -92 -150q-2 -24 4 -52t13.5 -48t23 -54.5t22.5 -52.5q28 14 68 39 q83 52 141 107q52 48 105 133q7 12 17.5 12t18.5 -10q14 -17 14 -39q0 -14 -5 -29q-20 -58 -88 -123q-67 -64 -158 -120q-70 -41 -92 -52q1 -13 1 -25q0 -28 -5 -52q-16 -74 -86 -117q-57 -34 -129 -34q-28 0 -58 5q-39 9 -61 49q-17 30 -17 56q0 12 4 24zM121 -8 q19 -7 62 0.5t79 27.5q59 30 70 89q-25 -12 -67 -30.5t-52 -23.5q-75 -33 -88 -57z" />
<glyph unicode="t" horiz-adv-x="456" d="M127 135q4 42 41 154q46 133 133 323l-94 -8q-6 -1 -11 -1q-38 0 -61 38q-12 17 -7.5 32.5t26.5 16.5q96 6 186 8q34 70 72 146t63 124.5t31 61.5q11 22 29.5 24.5t31.5 -12.5q19 -21 19 -51q0 -19 -8 -41q-16 -43 -117 -248q162 0 205 -14q20 -6 38 -18.5t21 -22.5 q2 -5 -0.5 -8.5t-10.5 -5.5t-22 -2q-20 1 -44 1q-88 0 -228 -9q-48 -100 -92 -195q-44 -97 -70 -178q-32 -97 -38 -161q-1 -12 0 -21q0 -45 20 -54q4 -1 8 -1q32 -1 96 53q72 60 156 159q154 179 211 283q6 10 17 8t20 -14q12 -16 12 -36t-12 -44q-75 -129 -173 -248 q-166 -204 -278 -231q-14 -4 -29 -4q-22 1 -44 9q-38 14 -64 46q-34 46 -34 114q0 13 1 27z" />
<glyph unicode="u" horiz-adv-x="794" d="M109 166q12 88 63 201q15 34 33 68.5t38 69t33 57t33.5 55t24.5 38.5q12 17 29 14t32 -20q15 -16 19.5 -37t-6.5 -37q-23 -28 -67.5 -104t-82.5 -156q-23 -50 -39.5 -92.5t-26 -79t-5.5 -59t22 -25.5h2q45 0 201 201q127 163 233 320q10 15 26 15q19 0 48 -20 q21 -16 31.5 -37t1.5 -36q-47 -68 -82 -221q-19 -78 -19 -134t25 -63q2 -1 5 -1q54 0 239 239q116 150 133 184q6 10 15 9.5t17 -9.5q12 -12 16.5 -30t-3.5 -36q-34 -68 -125 -192q-144 -196 -236 -232q-26 -11 -51 -11q-26 0 -51 12q-48 23 -68 81q-10 33 -10 72q0 31 6 66 q4 31 12.5 63.5t14.5 48.5l6 17q-52 -87 -141 -201q-107 -137 -187 -182q-21 -10 -40 -10q-14 0 -26 5q-32 12 -57 46q-38 51 -38 115q0 14 2 28z" />
<glyph unicode="v" horiz-adv-x="643" d="M145 170q12 88 56 201q67 180 121 268q16 26 49 4q18 -13 26.5 -30.5t-0.5 -30.5q-18 -25 -88 -205q-49 -128 -74 -219q-13 -47 -13 -71q0 -22 11 -24h1q13 0 60 45q49 47 109 119q54 63 113 144l53 71q25 83 62 152q37 76 61 100q20 20 51 -4q18 -11 28.5 -34t2.5 -48 q-7 -19 -45 -90q-35 -63 -94 -149q-19 -63 -19 -97q0 -39 25 -39h2q52 3 158 138q63 77 92 129q13 19 26 18.5t21 -14.5q15 -22 6 -45q-18 -47 -82 -137q-96 -133 -178 -164q-22 -8 -41 -8q-23 0 -42 11q-36 21 -52 68l-6 21l-94 -109q-126 -142 -187 -166q-14 -5 -27 -5 q-34 0 -61 36q-35 44 -35 115q0 23 4 49z" />
<glyph unicode="w" horiz-adv-x="991" d="M98 113q4 32 44.5 135.5t82.5 195.5q96 204 137 242q12 12 33.5 11t36.5 -13q26 -19 2 -49q-33 -46 -131 -240q-53 -107 -93 -203q-29 -71 -30 -92q0 -7 4 -8q5 -1 22.5 15.5t46.5 50t55.5 65.5t66.5 80.5t63 75.5q67 77 121.5 148.5t63.5 93.5q6 19 24.5 22.5 t48.5 -12.5q43 -25 43 -50q0 -12 -10 -24q-35 -41 -106 -262q-15 -46 -25.5 -85.5t-17.5 -72.5t-6.5 -53t8.5 -21h3q37 0 150 140q37 44 79 99t66 88l23 32q27 71 60 141q57 120 75 129q27 14 58 -10q18 -13 26 -32t0 -42q-11 -25 -63 -112l-76 -121q-1 -4 -3 -11.5t-6 -27 t-5.5 -36.5t-2 -34.5t5.5 -27.5t17 -9q47 3 144 119q62 71 110 152q13 20 29 17.5t26 -19.5q16 -28 5 -47q-48 -88 -115 -172q-107 -132 -184 -142q-33 -4 -56.5 6.5t-33.5 28t-15.5 36t-5.5 31.5v13q-37 -52 -88 -109q-146 -168 -203 -168q-55 0 -84 44t-29 100 q0 45 28 138.5t48 133.5q-15 -15 -44.5 -50t-72.5 -88t-55 -67q-161 -194 -194 -204q-7 -2 -13 -2q-28 0 -57 34q-32 37 -32 82q0 8 1 17z" />
<glyph unicode="x" horiz-adv-x="780" d="M80 -77.5q0 20.5 16 42.5l90 115q74 94 131 158q-6 33 -6 65q0 19 2 37l13 137q-4 -7 -68 -106q-20 -30 -48 -23q-25 7 -24 36q2 19 15 40q41 59 90 139q30 46 61 107q17 33 23 37q21 14 49 0q14 -6 21 -20t1 -28q-23 -67 -40 -172q-17 -93 -17 -172l39 37l176 180 q152 152 180 164q15 7 38 2.5t38 -16.5q35 -27 0 -47q-74 -46 -217 -189q-8 -7 -160 -165l-77 -86q27 -101 106 -115q18 -3 36 -3q99 0 216 99q30 25 61 57.5t54.5 60t51 63.5t42 56t35.5 50.5t24 34.5q14 20 28 20.5t19 -14.5q7 -14 7 -31q0 -26 -17 -57 q-91 -145 -182 -236q-132 -135 -260 -170q-38 -9 -71 -9q-86 0 -146 60q-37 37 -56 76l-102 -119q-94 -113 -109 -137q-13 -17 -26 -14.5t-25 18.5q-12 17 -12 37.5z" />
<glyph unicode="y" horiz-adv-x="761" d="M13 -452q-2 9 -2 18q0 38 32 78q51 56 164 129q33 22 123.5 79t140.5 91q14 35 27 61q100 241 131 334q-27 -45 -129 -162q-117 -137 -193 -176q-34 -16 -64 -16q-13 0 -25 3q-40 11 -64 52q-26 43 -26 102q0 31 7 66q19 88 72 205q26 59 57.5 119.5t58.5 109t27 49.5 q8 11 26 4.5t34 -24.5q16 -16 22 -34.5t-2 -31.5q-12 -17 -51.5 -88t-75.5 -147q-98 -206 -98 -277q0 -22 10 -31q4 -4 10 -4q28 0 104 76q93 92 214 238q136 165 223 282q10 11 27.5 5.5t33.5 -21.5t23.5 -36t-0.5 -36q-40 -65 -123 -254l-117 -268q122 99 221 213 q113 127 185 250q8 13 19.5 12t19.5 -14q12 -18 12 -37q0 -16 -10 -33q-1 -2 -9 -16.5t-12 -21.5t-14 -23.5t-18 -28.5t-20 -31t-25 -35.5t-29 -36.5t-34.5 -41.5t-39.5 -43.5q-82 -88 -217 -199q-19 -16 -53 -42t-47 -36q-64 -139 -133 -237q-87 -125 -166 -172 q-46 -25 -89 -25q-44 0 -85 27q-44 30 -53 76zM100.5 -455.5q10.5 -20.5 51.5 -13.5q59 11 133 94q56 66 104 154q-45 -29 -115.5 -72.5t-104 -67t-52.5 -45.5q-27 -29 -16.5 -49.5z" />
<glyph unicode="z" horiz-adv-x="571" d="M4.5 -365q-3.5 30 13.5 56q12 16 22 28.5t30.5 30t30.5 25.5t48.5 37.5t57.5 44.5q68 52 162 131q61 52 114 102q0 31 -4 41q-11 27 -53 27q-20 0 -47 -6q-21 -4 -43.5 -11.5t-47.5 -17t-28 -10.5q-13 -6 -27 6t-22 33q-6 18 -6 32q0 28 24 43q69 45 179 162 q89 97 137 179q30 52 30 84q0 19 -10 32q-9 11 -22 11q-45 0 -142 -120q-20 -25 -106 -145q-12 -16 -25.5 -16t-23.5 12q-23 23 -8 49q64 118 122 187q87 108 154 108q52 0 94 -59q24 -37 32 -77q2 -14 3 -26q0 -27 -10 -53q-47 -102 -135 -197q-31 -35 -65 -67.5t-53 -48.5 l-18 -15q36 24 77 24q22 0 46 -7q62 -18 80 -72q86 93 135 160q46 60 117 172q11 16 23 13.5t22 -17.5q21 -34 4 -60q-64 -102 -118 -174q-81 -111 -187 -217q-22 -69 -51 -125q-51 -96 -96 -151q-70 -88 -158 -158q-97 -80 -154 -80q-44 0 -75 43q-19 27 -22.5 57z M83.5 -380q1.5 -4 5.5 -6.5t9.5 -2t10.5 1.5q85 35 241 211q50 61 70 98q-130 -110 -189 -158q-121 -95 -135 -114q-8 -10 -11 -18t-1.5 -12z" />
<glyph unicode="{" horiz-adv-x="755" d="M270 -156q41 124 92 256q6 15 18 45.5t17.5 45t14.5 39t14 38.5t10.5 31.5t8.5 30t4 22.5q5 41 -22.5 77t-82.5 36q-16 0 -24.5 13t-8.5 30q0 19 8.5 30.5t24.5 10.5q4 0 17.5 -1.5t21 -1.5t20.5 1t25 6t25 14q45 30 146 328q5 13 7 20q37 110 62 176t61.5 135t69.5 91 q67 46 149 31q75 -14 119 -58q16 -16 6 -33q-16 -24 -59 -6l-23 11.5t-24 11.5t-21.5 7.5t-24.5 3.5t-23 -5.5t-26 -13.5q-41 -30 -145 -310q-14 -37 -33 -90t-32.5 -89t-27.5 -73t-24.5 -60.5t-17.5 -33.5q-31 -46 -65 -74.5t-49.5 -35t-22.5 -6.5l4 -3q4 -3 9 -7.5 t11.5 -11t14.5 -17t14 -21.5q31 -55 33 -119q1 -29 -16.5 -88t-36 -107.5t-52.5 -133.5q-6 -14 -19 -46t-19 -47t-17 -43t-16.5 -43t-13.5 -37.5t-12 -36t-8 -29t-5 -26t0 -18.5q3 -27 22.5 -40t48 -12.5t52 4.5t43.5 11q30 8 38 -26q4 -35 -24 -43q-34 -9 -48 -12.5t-47 -2 t-63 14.5q-43 18 -67 55q-59 87 -11 235z" />
<glyph unicode="|" horiz-adv-x="681" d="M33 -547q11 56 145 393q45 114 150 371.5t153 378.5q168 400 224 528q10 23 108 240q11 21 28.5 17.5t28.5 -25.5q24 -54 -6 -117l-76 -166q-154 -349 -241 -561q-212 -518 -311 -776q-112 -293 -119 -350q-1 -21 -16.5 -28.5t-30.5 1.5q-21 10 -33 35.5t-4 58.5z" />
<glyph unicode="}" horiz-adv-x="491" d="M0 -449q2 25 19 35.5t36 -6.5q42 -42 72.5 -58t60.5 -3q41 19 82 100.5t97 235.5q25 70 60.5 178.5t55.5 157t43 77.5q21 28 53 46t49.5 22t24.5 4q-9 3 -21.5 11.5t-33.5 27.5t-33.5 51t-9.5 70q1 19 7.5 47.5t19 68t23.5 72t29.5 86t29.5 84.5q100 287 84 346 q-12 41 -39 61t-65 29t-48 15q-35 21 -35 53q0 23 27 20q49 -5 130.5 -40t106.5 -87q50 -103 4 -254q-7 -23 -42 -112.5t-54 -143.5q-87 -234 -82 -294q4 -43 23 -59t55 -23q18 -1 27.5 -17t9.5 -37q0 -18 -7.5 -29t-19.5 -10q-23 2 -44 3.5t-45.5 -13t-45.5 -47.5 q-8 -12 -19.5 -42t-21.5 -59.5t-27.5 -85.5t-29.5 -91q-91 -272 -170 -377q-35 -47 -77.5 -73t-83 -29.5t-75.5 4t-63 24.5q-41 25 -37 61z" />
<glyph unicode="~" horiz-adv-x="817" d="M253.5 420.5q-7.5 20.5 0.5 36.5q18 33 63.5 76.5t77.5 54.5q76 25 115 -6q14 -9 28.5 -25t33.5 -40t30 -36q57 -65 98 -69q31 -3 58 21.5t36.5 43.5t16.5 37q4 16 15.5 33t23.5 16q15 -3 29 -28.5t14 -47.5q-2 -27 -29.5 -76.5t-58.5 -68.5q-36 -21 -86 -17t-84 25 q-32 19 -66 53q-15 15 -36 40t-34 37t-26 14q-38 4 -79 -34t-68 -81q-8 -13 -22 -10.5t-28 16.5q-15 15 -22.5 35.5z" />
<glyph unicode="&#xa1;" horiz-adv-x="641" d="M55 -475q7 32 150 338q149 316 188 373q11 16 28 17t25 -11q23 -27 3 -66q-64 -132 -170 -373q-124 -276 -127 -317q-3 -29 -22 -35t-38 8q-19 11 -30 29.5t-7 36.5zM478.5 536.5q-8.5 17.5 2.5 32.5q23 22 33 49.5t2 49.5q10 16 35.5 11t44.5 -30q24 -34 10 -83t-53 -64 q-20 -7 -43 5t-31.5 29.5z" />
<glyph unicode="&#xa2;" horiz-adv-x="638" d="M199 555q27 77 176 195q124 95 223 133q62 134 78 174q35 82 39 110q6 34 39 23q18 -5 31.5 -19.5t13.5 -33.5q0 -21 -54 -146l-40 -90q39 -3 73 -29q29 -22 39 -59q6 -27 -4 -51q-11 -29 -27 -34q-9 0 -10 11q-9 33 -38.5 54.5t-75.5 9.5q-52 -111 -105 -238l-49 -123 q62 8 117.5 21.5t72.5 21.5q36 13 51.5 6t12.5 -28q-7 -41 -55 -66q-60 -34 -232 -45q-82 -217 -82 -246q-3 -14 -15 -13.5t-28 11.5q-34 23 -37 54q-7 31 58 194l-43 6q-73 16 -113 68q-42 55 -16 129zM274 463q22 -35 129 -31l80 195l52 116q-96 -61 -150 -110 q-63 -57 -95 -103t-16 -67z" />
<glyph unicode="&#xa3;" horiz-adv-x="819" d="M61.5 -4.5q3.5 14.5 19.5 33.5t44 37q54 34 117 51q8 21 33.5 87.5t55.5 144t62 155.5q-87 -4 -98 -10q-20 -8 -39.5 -1t-32.5 23q-16 18 -16 39t22 25q65 11 199 8q52 125 55 131q71 164 154 270q107 136 237 144q72 3 134 -62q73 -80 59 -170q-7 -33 -34 -86.5 t-52 -91.5q-14 -21 -33.5 -17t-34.5 23q-27 35 -12 57q56 83 75 154t-9 98q-44 42 -109.5 10t-140.5 -133q-94 -129 -178 -329l110 -6q66 -6 86 -15q45 -20 58 -49q7 -13 -0.5 -20.5t-30.5 -6.5q-8 1 -29.5 3t-44 3.5t-43.5 2.5q-86 4 -139 4q-4 -4 -4 -8 q-63 -167 -146 -357q58 4 97 4q184 0 290 -32q82 -25 117 -72q18 -21 2 -49q-7 -13 -17 -19t-18 2q-46 53 -202 78q-165 25 -306 -6q-45 -59 -119 -88.5t-110 -17.5q-9 3 -16.5 10.5t-11.5 20.5t-0.5 27.5z" />
<glyph unicode="&#xa4;" horiz-adv-x="960" d="M109 72q-19 51 10 71l84 64l94 69q-38 100 -2 213q35 111 104 193q-35 41 -92 98q-54 54 -94 90q-33 31 27 72q25 18 49 22t30 -12q7 -23 80 -96l86 -84q115 93 226 121q75 19 135.5 5.5t99.5 -54.5q27 -34 33 -49q53 52 117 108l53 45q7 6 22 0t27 -20q18 -20 20 -41.5 t-20 -44.5l-37 -29l-135 -104q-9 -6 -18 -9q48 -74 12 -211q-28 -99 -135 -202q10 -9 44 -36t54 -44q48 -41 68 -72q10 -15 -9 -49q-15 -26 -37.5 -39t-35.5 2q-14 20 -78 84l-88 88q-71 -49 -148 -75.5t-141 -22.5q-104 8 -166 74q-36 -25 -84 -70q-32 -30 -80 -82 q-24 -22 -44.5 -12t-30.5 39zM368.5 298.5q39.5 -73.5 141.5 -81.5q75 -4 166.5 38.5t167 118t102.5 158.5q16 52 9.5 90t-29.5 62q-17 0 -26 9t-3 26q24 78 -86 90q-104 8 -237.5 -95t-196.5 -239q-48 -103 -8.5 -176.5z" />
<glyph unicode="&#xa5;" horiz-adv-x="720" d="M211 250q-5 13 0.5 23t19.5 10q63 0 162 6l43 106q-105 -4 -143 0q-19 1 -35 12.5t-22 26.5q-7 12 -4 23.5t14 11.5q118 12 227 14q-44 75 -63 197q-13 77 -9 194q2 42 6 95.5t6.5 87t0.5 47.5q-3 22 6.5 31.5t28.5 7.5q23 -2 45.5 -17.5t23.5 -33.5q2 -23 -7 -85 t-11 -126v-119q3 -107 22 -187q59 113 164 275q142 215 184 242q39 23 68 -2q18 -14 21.5 -35t-11.5 -33q-46 -35 -114 -137.5t-201 -323.5q-39 -69 -43 -78q154 4 164 6q21 3 39 -22q20 -33 -7 -41q-12 -7 -91 -15.5t-146 -11.5q-28 -62 -45 -106q162 9 203 -2 q22 -6 36 -31q9 -12 6 -23t-22 -10q-69 4 -252 -10q-22 -64 -39 -131q-20 -89 -10 -109q14 -35 -0.5 -44t-46.5 4q-34 14 -43 57q-11 45 2 127q1 7 27 90q-70 -7 -105 0q-18 1 -31 12.5t-18 26.5z" />
<glyph unicode="&#xa6;" horiz-adv-x="702" d="M35 -547q8 45 119 332q172 439 204 496q10 12 23.5 5.5t24.5 -26.5q25 -41 12 -74q-134 -329 -195 -487q-106 -273 -112 -313q-1 -21 -14.5 -28t-28.5 1q-20 10 -30.5 35.5t-2.5 58.5zM483 596q102 226 140 315q43 100 88 207t70.5 168t33.5 78q9 20 26 18.5t29 -20.5 q34 -53 0 -123q-57 -120 -163 -356q-139 -313 -154 -371q-5 -18 -14 -23t-19.5 1t-19.5 20q-34 48 -17 86z" />
<glyph unicode="&#xa7;" horiz-adv-x="958" d="M-23 -295q3 24 43 10q42 -15 124 -18.5t173 6.5q119 13 207.5 52t110.5 102q8 23 8.5 45t-7 42.5t-19 39t-30.5 38t-38 37t-44.5 37.5t-48 37t-50.5 39t-50 41q-114 100 -137 210.5t47 248.5q45 89 131.5 166t171.5 120t156 56q-30 37 -80.5 93t-60.5 67 q-61 71 -57.5 151.5t69.5 149.5q73 77 164 120t201 74q111 24 143 -80q7 -29 -32 -119t-34 -110q6 -26 -3.5 -37t-28.5 -8t-37.5 16.5t-22.5 28.5q-3 15 14 50.5t36.5 81.5t19.5 81q-29 7 -84 -7t-113 -44q-73 -37 -123 -86t-53 -99q-4 -54 22.5 -99t82 -105t83.5 -103 q10 -15 35.5 -51.5t38.5 -57t28 -54.5t21 -66q16 -84 -24 -189q-52 -135 -189 -217q-155 -93 -331 -78h-17q45 -51 142 -127t110 -88q39 -37 62.5 -73.5t33 -80t-6.5 -92.5t-58 -102q-87 -108 -301 -145q-96 -14 -176.5 -12.5t-126.5 14.5q-30 7 -62 35q-36 33 -33 59z M317 522q-5 -46 13 -102q37 -9 117.5 -4t152.5 26q165 52 229 170q75 139 -49 326q-65 -16 -153 -63t-160 -111q-139 -121 -150 -242z" />
<glyph unicode="&#xa8;" horiz-adv-x="710" d="M365 1245q5 33 26.5 58.5t50.5 29.5q29 7 55 -19.5t31 -58.5q0 -27 -40.5 -71t-73.5 -56q-27 -7 -40.5 36t-8.5 81zM584 1147q0 32 31 74.5t57 42.5q30 0 57 -26.5t23 -61.5q-3 -23 -42.5 -67.5t-66.5 -51.5q-28 -6 -46 25.5t-13 64.5z" />
<glyph unicode="&#xa9;" horiz-adv-x="1456" d="M237.5 317q-8.5 117 24.5 230q81 286 299 500q98 96 205 161t205 92q127 35 230.5 10.5t170.5 -102.5q29 -35 39.5 -79t8.5 -64.5t-7 -50.5q20 -16 38.5 -41t37 -67t28.5 -92t8 -119t-20 -144q-33 -132 -119 -256t-206 -221q-127 -101 -266 -155.5t-259 -45.5 q-127 9 -217.5 71t-142.5 162q-49 94 -57.5 211zM360 526q-63 -241 2 -385q69 -152 256 -166q115 -8 247.5 44t250.5 151q106 89 185 209t116 258q20 75 16 138t-20.5 105.5t-44.5 73.5q-21 0 -35 17q-18 23 -4 76q12 29 9.5 60t-16 57t-54 46t-103.5 27q-117 13 -253.5 -55 t-260.5 -191q-105 -104 -183 -226.5t-108 -238.5zM573 387q-5 120 107 289q78 120 156 192t129 88q39 11 94 -18q31 -17 54 -40t26 -40q4 -25 -11.5 -67t-33.5 -70q-22 -31 -45 -4q-9 11 -13 25.5t0 23.5q12 30 22.5 75t-1.5 52q-34 13 -103 -45.5t-157 -183.5 q-51 -73 -82 -137t-38.5 -106t-3 -68.5t18.5 -37.5q39 -26 161 20t169 97q11 11 19 3.5t10 -25.5q4 -40 -17 -58q-137 -111 -219 -127q-81 -15 -153 27q-39 22 -63.5 57.5t-25.5 77.5z" />
<glyph unicode="&#xaa;" horiz-adv-x="567" d="M236 676q-1 40 30 111.5t80 148.5q54 83 112 144t99 71q75 18 125 -80v2q12 20 30 14.5t36 -30.5q19 -25 25.5 -52.5t-5.5 -46.5q-30 -34 -88 -157q-68 -149 -51 -166q3 -3 59 24q57 28 60 23q7 -14 -35 -59q-22 -25 -46 -45t-36 -21q-8 -2 -25 8.5t-31 26.5 q-31 38 -28 78q2 49 55 161q-51 -77 -110 -147q-71 -86 -113 -106q-42 -23 -88 8q-49 34 -55 90zM319 641q20 -14 156 152q93 113 174 231q-23 48 -47 53q-18 6 -64 -44.5t-102 -129.5q-65 -94 -102 -171.5t-15 -90.5z" />
<glyph unicode="&#xab;" horiz-adv-x="839" d="M383 528q-11 55 27 99q12 14 112 110q128 124 140 142q14 14 38 -19q24 -32 15 -51q-12 -24 -117 -129q-12 -12 -31 -32t-31 -32t-24.5 -25t-19 -21.5t-7.5 -12.5q-10 -25 29 -117q27 -63 43 -82q14 -17 -16 -28q-32 -14 -62 2q-24 14 -61 96q-31 75 -35 100zM602 530 q0 57 41 91l111 96q73 66 88 84q11 12 22 4t19 -29q17 -43 2 -61q-18 -27 -74 -80q-11 -11 -26.5 -25t-26 -23.5t-20.5 -19.5t-16 -17t-7 -11q-3 -16 22 -78q7 -19 18 -45t17.5 -42t7.5 -20q4 -9 -7.5 -17.5t-29.5 -10.5q-34 -4 -51 24l-43 74q-47 84 -47 106z" />
<glyph unicode="&#xac;" horiz-adv-x="792" d="M250 682q0 30 26.5 43t38.5 -4q27 -27 70 -29q41 -10 156 -6q92 1 182 12t123 23q39 13 61 -16q10 -13 11.5 -31.5t-7.5 -24.5q-93 -93 -157 -190q-33 -52 -59 -108.5t-19 -78.5q1 -12 -12.5 -12.5t-30.5 8.5q-40 20 -43 54q-8 46 53 155q44 78 86 139 q-44 -19 -160.5 -25t-171.5 3q-54 5 -98 24q-49 22 -49 64z" />
<glyph unicode="&#xad;" horiz-adv-x="864" d="M291 361.5q2 16.5 14 19.5q35 8 287 0q226 -7 270 -12q27 -3 39 -31q9 -19 1 -37t-30 -18h-268q-53 0 -113 0.5t-98.5 1t-40.5 0.5q-34 0 -55 41q-8 19 -6 35.5z" />
<glyph unicode="&#xae;" horiz-adv-x="1200" d="M492.5 998q-5.5 62 15.5 122q34 108 108 196.5t152.5 137.5t155.5 70q75 19 135.5 5.5t99.5 -54.5q53 -58 35 -115q20 -14 34 -42t19.5 -79t-14.5 -119q-34 -117 -164 -227q-80 -66 -172.5 -104.5t-169.5 -34.5q-75 7 -128.5 43t-77 87.5t-29 113.5zM577.5 925 q39.5 -75 143.5 -83q76 -4 169 39t169.5 119.5t103.5 160.5q16 54 9.5 92t-29.5 62q-17 0 -26 9t-3 26q11 36 -6.5 60.5t-81.5 31.5q-106 7 -240.5 -96.5t-199.5 -241.5q-48 -104 -8.5 -179zM659 1010q4 22 60 108q15 22 45 65t39 58q-24 -3 -43 31q-8 13 -6 26.5t16 16.5 q3 0 23 1.5t33 1.5t36 0.5t41 -1.5t38.5 -5.5t38.5 -10.5t32 -17q36 -23 48.5 -50t5 -47.5t-27.5 -33.5q-23 -16 -58 -24.5t-59 -9.5l-24 -1l22.5 -30t46.5 -49t54 -33q26 -2 5 -24q-4 -3 -9 -7q-24 -17 -45 -14q-22 4 -39 15.5t-43 37.5q-44 41 -70 106q-94 -138 -94 -153 q-4 -13 -16 -12.5t-25 10.5q-31 23 -25 45zM858 1180q24 -2 53 0t53 10.5t23 21.5t-30 22.5t-66 12.5q0 -8 -2 -12q-3 -7 -14 -25.5t-17 -29.5z" />
<glyph unicode="&#xaf;" horiz-adv-x="747" d="M408 1159q-19 44 14 47h19.5t27 -4.5t39 -8.5t54.5 -13t73 -17q149 -31 176 -43q16 -6 29 -16q24 -16 28 -43q4 -32 -22 -35q-12 1 -84.5 18.5t-126.5 26.5q-133 24 -186 43q-26 12 -41 45z" />
<glyph unicode="&#xb0;" horiz-adv-x="292" d="M286.5 958q3.5 44 20.5 72q46 68 98 90.5t82 14.5q57 0 82 -74.5t-8 -147.5q-38 -57 -103 -82.5t-114 -9.5q-31 13 -46 53t-11.5 84zM367 922q12 -22 60.5 -10.5t68.5 40.5q15 22 10.5 50.5t-25.5 35.5l-2 -2q-2 0 -6 4h-10q-5 0 -8 7q-9 0 -35 -13q-32 -19 -52 -56.5 t-1 -55.5z" />
<glyph unicode="&#xb1;" horiz-adv-x="704" d="M92 16q-7 31 19 41q7 2 15 3t21.5 1.5t26.5 0.5t38 -0.5t47 -1t62 -1.5t76 -2q146 -3 200 -7t81 -17q26 -22 29 -45q4 -25 -23 -25q-13 0 -125 3t-176 3q-65 1 -141 -1.5t-101 -0.5q-19 1 -32.5 15.5t-16.5 33.5zM238.5 571.5q4.5 17.5 29.5 14.5q80 -13 217 -13l47 101 q57 112 93 143q20 17 47 -6q16 -12 22 -27.5t-2 -23.5q-19 -12 -71 -107l-39 -80h110q116 -3 144 -20q22 -10 14 -35q-3 -12 -13 -19.5t-24 -6.5q-4 0 -137 -9q-77 -6 -137 -6l-47 -104q-54 -128 -56 -183q2 -14 -30 9q-7 5 -15 12q-38 38 -33 61q3 21 56 140l28 65 q-92 0 -145 12q-14 1 -28.5 14t-22.5 29q-12 22 -7.5 39.5z" />
<glyph unicode="&#xb2;" horiz-adv-x="512" d="M215 481q-21 52 12 88q10 11 48 44t94.5 83t99.5 90q193 186 158 238q-19 21 -53.5 12t-77.5 -39q-42 -28 -76.5 -61.5t-44.5 -56.5q-11 -21 -25 -13.5t-24 33.5q-19 47 -4 70q40 57 102 106q82 64 145 53q68 -12 115 -86q26 -43 27.5 -89t-25.5 -89q-39 -59 -149 -157 q-40 -36 -100.5 -85t-89 -74t-25.5 -30q7 -12 149 4q24 3 52.5 6.5t45 6t19.5 2.5q13 3 20.5 -10t5.5 -31q-2 -17 -9.5 -30t-20.5 -13l-131 -17q-129 -16 -168 -8q-49 3 -70 53z" />
<glyph unicode="&#xb3;" horiz-adv-x="495" d="M213 511q4 1 10 -1q29 -10 119 14t160 76q55 41 73 62t19 51q1 21 -29.5 30.5t-70 4t-64.5 -22.5q-9 -6 -19.5 6t-15.5 31q-12 48 15 72q8 7 122 67q79 42 119.5 71.5t22.5 47.5q-14 11 -50.5 4.5t-82.5 -25.5q-74 -28 -107 -53q-10 -9 -20 5.5t-13 37.5q-4 33 11 45 q16 13 53 31t74 29q91 26 129 8q43 -19 65 -62q31 -58 0 -100q-25 -38 -85 -78t-120 -67q68 19 118 -19.5t28 -111.5q-16 -59 -119 -142q-76 -61 -168.5 -87.5t-130.5 -20.5q-18 3 -37 41q-22 49 -6 56z" />
<glyph unicode="&#xb4;" horiz-adv-x="632" d="M416 1047q9 70 137 155q30 22 65 40t54.5 26t52.5 18.5t35 11.5q27 8 49 -22q5 -7 6.5 -14.5t-2.5 -13.5t-14 -9q-90 -28 -183 -104q-28 -22 -53 -50.5t-39 -49t-27.5 -43.5t-15.5 -25q-5 -13 -18 -10t-25 18q-25 29 -22 72z" />
<glyph unicode="&#xb5;" horiz-adv-x="790" d="M-147 -307q45 127 184 409q182 368 291 547q12 16 27 15.5t30 -13.5q18 -14 24.5 -37t-6.5 -41q-27 -34 -77.5 -125.5t-87.5 -181.5q-83 -192 -33 -223q24 -14 93.5 67t160.5 212q33 47 74 108t66.5 99.5t35.5 50.5q32 40 76 6q24 -18 35.5 -44.5t1.5 -43.5 q-45 -65 -86 -222q-47 -185 0 -196q50 -10 219 199q56 69 106.5 140.5t61.5 92.5q8 12 17 8t17 -20q16 -32 4 -60q-13 -30 -56 -99t-95 -136q-125 -158 -209 -189q-56 -19 -102.5 3.5t-65.5 80.5q-6 19 -6.5 44t2 48.5t8.5 49.5t11 43.5t10 34.5t6 20q-56 -89 -148 -203 q-91 -112 -151 -151q-21 -14 -49.5 -17t-55 4.5t-45.5 32t-20 60.5q-48 -89 -123 -254q-83 -185 -80 -205q1 -10 -8 -9q-11 1 -29 17q-43 39 -28 78z" />
<glyph unicode="&#xb6;" horiz-adv-x="1103" d="M-6 -248q19 37 82 182q27 63 64 151t86.5 207.5t80.5 192.5q40 104 111 279q-149 21 -244 59q-96 35 -143 110.5t-11 153.5q32 78 196.5 163t336.5 126q139 35 264 49.5t189 14.5q42 -6 63 -78q18 -70 -4 -113q-40 -89 -158 -368q-155 -364 -215 -531l-209 -567 q-86 -236 -94 -285q-4 -29 -23.5 -34t-37.5 12q-21 17 -32 46t-1 62q17 63 92 256q38 100 115.5 298t93.5 239q81 212 219 557l164 409q-123 7 -281 -18q11 -55 -4 -92q-6 -14 -25.5 -69t-52 -144.5t-61.5 -167.5q25 0 45 4q24 6 36.5 -2t12.5 -23q0 -16 -14.5 -34.5 t-38.5 -28.5q-24 -12 -78 -12q-96 -244 -119 -297q-108 -248 -233 -563q-95 -237 -111 -299q-9 -28 -20.5 -32.5t-21.5 9.5t-17 39q-25 89 -2 139zM86 1016q2 -30 38 -57t92.5 -46t117 -32.5t121.5 -20.5q182 450 184 455q-9 0 -21 -4q-130 -30 -252.5 -80t-202 -109 t-77.5 -106z" />
<glyph unicode="&#xb7;" horiz-adv-x="667" d="M414 698q2 23 15.5 50t33.5 26q21 -2 48 -13t50.5 -33.5t18.5 -49.5q-8 -38 -34 -57.5t-50 -16.5q-24 1 -54.5 37t-27.5 57z" />
<glyph unicode="&#xb8;" horiz-adv-x="337" d="M-213 -571q-20 37 12 45q20 3 62.5 29.5t79.5 60.5q63 59 71 108q2 14 -3.5 29.5t-19 39t-18.5 34.5q-27 60 -14 104q12 44 92 96q18 13 38.5 25t32.5 18l11 5q10 6 22.5 -1t18.5 -20q12 -28 -14 -45q-8 -8 -38.5 -26t-51.5 -36.5t-23 -37.5q0 -12 35 -76q49 -92 41 -141 q-10 -72 -131 -158q-96 -65 -158 -84q-11 -4 -23.5 6t-21.5 25z" />
<glyph unicode="&#xb9;" horiz-adv-x="448" d="M330 852q-3 13 14 22q30 10 133 95q121 97 150 141q13 17 28.5 14.5t28.5 -18.5t16.5 -38t-4.5 -40q-2 -4 -32 -59t-68.5 -128t-69.5 -136q-106 -219 -96 -254q5 -13 -12 -12q-14 1 -31 10q-43 22 -43 67q0 24 76 180l110 209q-24 -20 -55 -43q-63 -43 -78 -49 q-24 -9 -49 12q-15 14 -18 27z" />
<glyph unicode="&#xba;" horiz-adv-x="458" d="M225 662q0 50 22 121.5t64 138.5q3 4 10.5 16l10 16t9.5 14t10 14t8.5 11.5t9.5 11t8.5 8t9.5 7.5q-5 34 33.5 77.5t91.5 43.5q52 -3 102 -48t62 -106q9 -48 -14 -118t-72 -138q-69 -96 -127 -146t-90 -55q-47 -8 -97 35q-51 47 -51 97zM313 614q29 -11 93.5 45.5 t117.5 147.5q36 61 54 116.5t17 89.5t-15 46q-17 12 -48 -9.5t-57 -54.5q12 -12 2 -18q-34 -30 -96 -146q-43 -83 -65 -146.5t-3 -70.5z" />
<glyph unicode="&#xbb;" horiz-adv-x="907" d="M350 319q-19 27 4 64q10 15 99 92q88 76 88 88q0 13 -84 127q-47 61 -58 80q-12 20 -8 49q2 40 19 54q7 6 12 -1q10 -10 74 -96q81 -114 98 -133q70 -94 22 -151q-22 -29 -108 -99q-73 -60 -115 -82q-11 -8 -23 -5.5t-20 13.5zM596.5 283q3.5 25 19.5 43q6 7 105 96 q78 74 76 86q0 12 -68 119q-62 98 -70 114q-12 25 -11 49.5t11 43.5q6 11 14.5 14.5t14.5 -2.5q16 -16 98 -144q72 -114 86 -131q46 -62 -4 -129q-20 -33 -104 -106q-92 -82 -129 -107q-9 -4 -18.5 0t-14.5 15q-9 14 -5.5 39z" />
<glyph unicode="&#xbc;" horiz-adv-x="1103" d="M221 57q19 54 151 213t312 353q170 183 309 317t181 152q53 21 79 -19q15 -27 -6 -39q-25 -12 -174 -159t-315 -324q-463 -497 -463 -584q0 -15 -8.5 -22t-21.5 -4.5t-25 12.5q-41 37 -19 104zM330 852q-3 13 14 22q37 15 145 105q116 97 138 131q13 17 27.5 15t27.5 -17 q14 -16 19 -38t-5 -42q-3 -5 -24.5 -45t-51.5 -96t-57 -109q-146 -285 -133 -327q4 -13 -12 -13q-16 1 -37 15q-37 26 -37 63q0 32 72 172l114 217q-98 -78 -133 -92q-24 -9 -49 12q-15 14 -18 27zM723.5 222.5q-7.5 32.5 7.5 66.5q26 51 139 160q60 58 118.5 105t90.5 60 q15 24 49 -10q25 -25 25 -51q-9 -49 -68 -244l-28 -94q122 11 131 2q14 -14 14 -47q0 -34 -14 -38q-5 -1 -10 3q-15 13 -146 -2q-59 -201 -49 -231q7 -22 -6.5 -28.5t-32.5 3.5q-19 8 -32 26t-13 40q0 42 39 178q-62 -8 -76 -8q-57 -3 -106 49q-25 28 -32.5 60.5zM805 195 q4 -11 156 8l43 135l47 156q-90 -81 -142 -136q-122 -126 -104 -163z" />
<glyph unicode="&#xbd;" horiz-adv-x="1103" d="M218.5 -14.5q-9.5 26.5 2.5 71.5q21 56 159.5 223.5t319.5 362.5q165 176 298.5 303.5t175.5 145.5q53 21 79 -19q15 -27 -6 -39q-25 -12 -168.5 -153.5t-310.5 -317.5q-203 -215 -338 -380.5t-135 -215.5q0 -19 -14 -24.5t-31 4.5q-22 12 -31.5 38.5zM330 852 q-3 13 14 22q34 12 160 117q105 90 123 119q14 19 31 15.5t30 -23.5q11 -16 13.5 -36t-5.5 -38q-2 -4 -25.5 -46t-55 -101t-58.5 -113q-140 -274 -127 -317q4 -13 -12 -12q-20 1 -43 20q-31 27 -31 57q0 27 86 199l100 190q-98 -78 -133 -92q-24 -9 -49 12q-15 14 -18 27z M688.5 17q-0.5 30 20.5 53q10 11 48.5 44.5t94.5 83t100 91.5q192 181 156 235q-12 18 -38 14.5t-56 -19t-62 -40.5q-77 -60 -96 -100q-10 -21 -23.5 -14.5t-23.5 30.5q-24 50 -6 74q40 57 102 106q83 65 146 54q61 -12 106 -74q31 -44 35 -93.5t-25 -96.5 q-44 -67 -145 -154q-36 -31 -101.5 -84.5t-93 -78.5t-24.5 -30q8 -14 141 2q25 3 55 7t48.5 7t21.5 3q13 3 20 -8t7 -27q0 -18 -8.5 -33t-22.5 -16l-115 -14q-149 -17 -184 -11q-34 3 -59 35q-18 24 -18.5 54z" />
<glyph unicode="&#xbe;" horiz-adv-x="1183" d="M187 516q4 3 10 0q27 -9 116.5 15.5t161.5 74.5q57 45 74 64.5t18 48.5q1 21 -29.5 30.5t-70 4t-64.5 -22.5q-10 -6 -20.5 7.5t-15.5 35.5q-8 45 16 66q6 6 27 17.5t58 30.5t60 32q68 36 102 62.5t17 43.5q-13 11 -50.5 4.5t-82.5 -24.5q-73 -29 -106 -54 q-9 -9 -18.5 3.5t-14.5 33.5q-8 39 10 51q36 32 111 56q100 34 145 12q48 -23 70 -68q24 -53 -4 -94q-25 -38 -85 -78t-120 -67q68 18 117.5 -20t27.5 -111q-16 -59 -119 -142q-76 -60 -169 -87t-130 -21q-10 1 -21.5 15t-17.5 32q-17 41 -3 49zM281 57q18 49 131 189 t268 309q184 202 345 360t208 177q45 18 74 -11q11 -12 11.5 -26.5t-11.5 -20.5q-28 -14 -201 -185.5t-352 -365.5q-400 -434 -400 -516q0 -26 -22 -27t-41 21q-29 37 -10 96zM784 214.5q-10 36.5 7 74.5q32 60 157 178q135 124 191 147q13 22 43 -4q33 -29 30 -57 q-13 -72 -63 -234l-33 -104q122 11 131 2q19 -19 15 -55q-2 -18 -9 -26t-16 -1q-15 13 -145 -2q-59 -202 -50 -231q7 -25 -9.5 -30t-37.5 9q-37 25 -37 62q0 42 39 178q-62 -8 -75 -8q-54 -3 -97 37q-31 28 -41 64.5zM864 195q4 -11 156 8l45 145l45 146q-78 -70 -137 -132 q-127 -130 -109 -167z" />
<glyph unicode="&#xbf;" horiz-adv-x="804" d="M96 -512q-39 82 6 180q36 83 281 369q107 125 160.5 197t48.5 94q-13 41 -24 36v2q2 5 5 11q3 7 16.5 11.5t28.5 2.5q37 -3 62 -31q22 -25 4 -73q-22 -58 -98 -152q-22 -30 -207 -254q-116 -145 -177 -241t-40 -132q35 -62 205 19q87 43 131 78q21 14 44 6.5t36 -27.5 q23 -35 -17 -63q-70 -52 -147 -86q-115 -49 -203 -31q-86 17 -115 84zM626.5 737.5q17.5 24.5 47.5 26.5q24 2 54.5 -8.5t41.5 -28.5q18 -17 10 -38t-41 -36q-27 -10 -62 3t-48 26q-20 31 -2.5 55.5z" />
<glyph unicode="&#xc0;" horiz-adv-x="1148" d="M29 -70q-25 88 43.5 295t193.5 404q149 234 293 377.5t244 185.5q42 18 82.5 17.5t71.5 -13.5t59 -36.5t47 -48t35 -52.5q35 -61 61 -131l47 65q12 16 30 10t34 -26q34 -44 12 -76q-45 -66 -117 -190.5t-106 -206.5q-41 -94 -78 -211q-81 -253 -31 -277q52 -26 260 228 q131 159 185 252q21 37 41 16q19 -20 13 -56q-2 -9 -5 -16q-39 -90 -191 -278q-130 -162 -209 -209q-61 -35 -127 5t-75 128q-8 69 18 180q32 131 82 230q-176 -238 -315 -385q-201 -211 -369 -308q-62 -34 -127 -4q-36 18 -63 53.5t-39 77.5zM143 121.5 q-68 -221.5 4 -250.5q97 -31 420 326q255 284 523 639q-7 45 -16.5 80.5t-27.5 79t-48 74t-70 42.5q-30 9 -88 -20t-133 -92t-169.5 -176.5t-185.5 -256.5q-141 -224 -209 -445.5zM887 1540q0 34 39 51q23 12 45 8t22 -26q0 -25 23.5 -75t64.5 -95q52 -59 98.5 -89t71.5 -30 q10 1 13 -5t-2 -15q-18 -31 -64 -31q-43 0 -106 34t-107 81q-40 44 -69 98t-29 94z" />
<glyph unicode="&#xc1;" horiz-adv-x="1148" d="M29 -70q-25 88 43.5 295t193.5 404q149 234 293 377.5t244 185.5q42 18 82.5 17.5t71.5 -13.5t59 -36.5t47 -48t35 -52.5q35 -61 61 -131l47 65q12 16 30 10t34 -26q34 -44 12 -76q-45 -66 -117 -190.5t-106 -206.5q-41 -94 -78 -211q-81 -253 -31 -277q52 -26 260 228 q131 159 185 252q21 37 41 16q19 -20 13 -56q-2 -9 -5 -16q-39 -90 -191 -278q-130 -162 -209 -209q-61 -35 -127 5t-75 128q-8 69 18 180q32 131 82 230q-176 -238 -315 -385q-201 -211 -369 -308q-62 -34 -127 -4q-36 18 -63 53.5t-39 77.5zM143 121.5 q-68 -221.5 4 -250.5q97 -31 420 326q255 284 523 639q-7 45 -16.5 80.5t-27.5 79t-48 74t-70 42.5q-30 9 -88 -20t-133 -92t-169.5 -176.5t-185.5 -256.5q-141 -224 -209 -445.5zM1006 1307q9 70 137 155q24 18 49.5 32.5t50 25t41.5 17t39 13.5t27 9q27 8 49 -23 q5 -7 6.5 -14.5t-2.5 -13.5t-14 -9q-90 -28 -183 -104q-28 -22 -53 -50.5t-39 -49t-27.5 -43.5t-15.5 -25q-5 -13 -18 -10t-25 18q-25 29 -22 72z" />
<glyph unicode="&#xc2;" horiz-adv-x="1148" d="M29 -70q-25 88 43.5 295t193.5 404q149 234 293 377.5t244 185.5q42 18 82.5 17.5t71.5 -13.5t59 -36.5t47 -48t35 -52.5q35 -61 61 -131l47 65q12 16 30 10t34 -26q34 -44 12 -76q-45 -66 -117 -190.5t-106 -206.5q-41 -94 -78 -211q-81 -253 -31 -277q52 -26 260 228 q131 159 185 252q21 37 41 16q19 -20 13 -56q-2 -9 -5 -16q-39 -90 -191 -278q-130 -162 -209 -209q-61 -35 -127 5t-75 128q-8 69 18 180q32 131 82 230q-176 -238 -315 -385q-201 -211 -369 -308q-62 -34 -127 -4q-36 18 -63 53.5t-39 77.5zM143 121.5 q-68 -221.5 4 -250.5q97 -31 420 326q255 284 523 639q-7 45 -16.5 80.5t-27.5 79t-48 74t-70 42.5q-30 9 -88 -20t-133 -92t-169.5 -176.5t-185.5 -256.5q-141 -224 -209 -445.5zM828.5 1368.5q-0.5 13.5 9.5 15.5q30 0 143 80q120 86 139 117q11 13 27.5 9.5t30.5 -17.5 q28 -28 28 -57q3 -33 21 -111q22 -86 53 -102q32 -11 8 -35q-11 -11 -29 -17t-28 -2q-38 16 -70 105q-28 76 -28 98q-48 -33 -99 -70q-107 -75 -131 -88q-18 -6 -35.5 7.5t-29.5 35.5q-9 18 -9.5 31.5z" />
<glyph unicode="&#xc3;" horiz-adv-x="1148" d="M29 -70q-25 88 43.5 295t193.5 404q149 234 293 377.5t244 185.5q42 18 82.5 17.5t71.5 -13.5t59 -36.5t47 -48t35 -52.5q35 -61 61 -131l47 65q12 16 30 10t34 -26q34 -44 12 -76q-45 -66 -117 -190.5t-106 -206.5q-41 -94 -78 -211q-81 -253 -31 -277q52 -26 260 228 q131 159 185 252q21 37 41 16q19 -20 13 -56q-2 -9 -5 -16q-39 -90 -191 -278q-130 -162 -209 -209q-61 -35 -127 5t-75 128q-8 69 18 180q32 131 82 230q-176 -238 -315 -385q-201 -211 -369 -308q-62 -34 -127 -4q-36 18 -63 53.5t-39 77.5zM143 121.5 q-68 -221.5 4 -250.5q97 -31 420 326q255 284 523 639q-7 45 -16.5 80.5t-27.5 79t-48 74t-70 42.5q-30 9 -88 -20t-133 -92t-169.5 -176.5t-185.5 -256.5q-141 -224 -209 -445.5zM889 1323q-19 43 0 70q34 44 82 67q50 22 86 15q24 -4 37 -17t26 -37q11 -17 15 -24t16 -17 t25 -14q41 -9 79 29q24 24 21 45q1 15 20 -2q1 -1 13 -19q9 -77 -35 -119q-22 -22 -70 -30q-44 -6 -71 12q-24 17 -48 54t-41 40q-22 3 -47 -10q-42 -22 -67 -66q-8 -13 -20.5 -5t-20.5 28z" />
<glyph unicode="&#xc4;" horiz-adv-x="1148" d="M29 -70q-25 88 43.5 295t193.5 404q149 234 293 377.5t244 185.5q42 18 82.5 17.5t71.5 -13.5t59 -36.5t47 -48t35 -52.5q35 -61 61 -131l47 65q12 16 30 10t34 -26q34 -44 12 -76q-45 -66 -117 -190.5t-106 -206.5q-41 -94 -78 -211q-81 -253 -31 -277q52 -26 260 228 q131 159 185 252q21 37 41 16q19 -20 13 -56q-2 -9 -5 -16q-39 -90 -191 -278q-130 -162 -209 -209q-61 -35 -127 5t-75 128q-8 69 18 180q32 131 82 230q-176 -238 -315 -385q-201 -211 -369 -308q-62 -34 -127 -4q-36 18 -63 53.5t-39 77.5zM143 121.5 q-68 -221.5 4 -250.5q97 -31 420 326q255 284 523 639q-7 45 -16.5 80.5t-27.5 79t-48 74t-70 42.5q-30 9 -88 -20t-133 -92t-169.5 -176.5t-185.5 -256.5q-141 -224 -209 -445.5zM920 1470q5 33 26.5 59t50.5 30q29 7 55 -19.5t31 -58.5q0 -27 -40.5 -71t-73.5 -56 q-27 -7 -40.5 35.5t-8.5 80.5zM1139 1372q0 32 31 74.5t57 42.5q30 0 57 -26.5t23 -61.5q-3 -23 -42.5 -67.5t-66.5 -51.5q-28 -6 -46 25.5t-13 64.5z" />
<glyph unicode="&#xc5;" horiz-adv-x="1148" d="M29 -70q-25 88 43.5 295t193.5 404q149 234 293 377.5t244 185.5q42 18 82.5 17.5t71.5 -13.5t59 -36.5t47 -48t35 -52.5q35 -61 61 -131l47 65q12 16 30 10t34 -26q34 -44 12 -76q-45 -66 -117 -190.5t-106 -206.5q-41 -94 -78 -211q-81 -253 -31 -277q52 -26 260 228 q131 159 185 252q21 37 41 16q19 -20 13 -56q-2 -9 -5 -16q-39 -90 -191 -278q-130 -162 -209 -209q-61 -35 -127 5t-75 128q-8 69 18 180q32 131 82 230q-176 -238 -315 -385q-201 -211 -369 -308q-62 -34 -127 -4q-36 18 -63 53.5t-39 77.5zM143 121.5 q-68 -221.5 4 -250.5q97 -31 420 326q255 284 523 639q-7 45 -16.5 80.5t-27.5 79t-48 74t-70 42.5q-30 9 -88 -20t-133 -92t-169.5 -176.5t-185.5 -256.5q-141 -224 -209 -445.5zM1019.5 1360q3.5 44 20.5 72q46 67 98 89.5t83 14.5q37 0 62.5 -35.5t28.5 -84.5t-18 -101 q-38 -57 -103 -82.5t-114 -9.5q-31 13 -46 53t-11.5 84zM1100 1323q12 -22 60.5 -10t68.5 41q15 22 10.5 50.5t-25.5 35.5l-2 -2q-2 0 -6 4h-10q-5 0 -8 6q-11 0 -35 -12q-32 -19 -52 -57t-1 -56z" />
<glyph unicode="&#xc6;" horiz-adv-x="1378" d="M-52 -97q7 17 36 25q20 9 236 238q31 33 48 51l154 160q-22 22 -19 53q4 30 35 35q4 0 14 1t28.5 3t33.5 4l137 137q124 119 289 297q167 182 203 242q21 35 74 20q42 -13 67 -45q124 13 213 15q188 4 207 -23q16 -22 16 -45q0 -22 -12 -31t-25 4q-23 16 -186 9 q-77 -2 -207 -15q-79 -119 -153 -243q-101 -169 -150 -267l191 21q150 14 165 12q21 -3 35 -17t19 -32q8 -25 -2 -42.5t-35 -8.5q-27 9 -180 -4q-160 -14 -238 -23q-67 -144 -92 -246q-45 -175 41 -213q69 -35 293 56q16 6 192 86q29 14 44.5 8.5t15.5 -23.5q0 -34 -37 -57 q-7 -4 -61.5 -36.5t-96.5 -53.5q-143 -74 -250 -76q-105 0 -172 74q-48 53 -63 134t8 177q15 67 57 156q-109 -12 -274 -37q-81 -83 -211 -225q-33 -35 -85 -92t-78.5 -85.5t-58 -61.5t-48.5 -47.5t-25 -16.5q-27 -6 -50.5 0t-35.5 18q-14 13 -7 30zM653 489q211 27 213 27 q33 67 103 189q95 169 180 296q-15 -13 -51.5 -52.5t-101.5 -109.5t-128 -134q-73 -76 -135 -136q-12 -11 -25.5 -24.5t-29.5 -30t-25 -25.5z" />
<glyph unicode="&#xc7;" horiz-adv-x="933" d="M-102 -614q-15 31 10 39q16 2 52 24t67 51q52 46 61 92q1 9 -2 20t-7.5 19.5t-13 23t-12.5 23.5q-23 49 -12 89q9 34 78 79l28 21q-82 82 -88 196q-18 280 248 670q165 242 318.5 383t257.5 174q73 22 143 -37q62 -53 72 -112q5 -45 -23 -121q-17 -47 -55 -115 q-16 -20 -30.5 -17.5t-26.5 19.5q-11 16 -15.5 37t2.5 37q32 80 41 109q31 104 -2 120q-31 14 -107.5 -30.5t-172.5 -132.5q-156 -146 -287 -334q-159 -231 -223 -432q-42 -130 -37.5 -231.5t55.5 -153.5q46 -47 115.5 -55t176.5 34t239 139q121 91 294 295q122 145 152 197 q24 39 43 6q17 -34 2 -72q-13 -41 -133 -192q-117 -146 -199 -219q-259 -234 -467 -256q-137 -14 -239 51q-2 -2 -19 -11.5t-24 -14.5t-19 -14.5t-17.5 -19t-6.5 -18.5q0 -9 30 -63q41 -80 35 -119q-10 -59 -110 -133q-87 -58 -133 -70q-10 -4 -21 4.5t-18 20.5z" />
<glyph unicode="&#xc8;" horiz-adv-x="897" d="M-66 -33q-16 129 109 287q73 90 168 164q137 110 287 198q-90 37 -125 105t-11 137q24 67 88.5 146t149.5 153q95 81 184.5 132t143.5 50q15 0 27.5 -2.5t25 -9t20.5 -11.5t19.5 -16.5t16 -16.5t17 -20t15.5 -18q18 -18 6 -39q-9 -14 -25 -18t-24 6q-38 41 -84 39 q-47 0 -124.5 -42.5t-164.5 -115.5q-125 -104 -172 -198.5t-2 -141.5q28 -31 117 -61q124 65 184 71q69 5 104 -28q27 -25 5 -47q-29 -29 -97 -58t-149 -26q-235 -127 -399 -281q-92 -83 -148 -168q-62 -96 -68 -173t46 -107q31 -19 83 -22t119 10.5t151 48.5t171 88 q201 118 365 290q83 89 184 234q20 29 35 0q8 -16 8.5 -39.5t-8.5 -42.5q-39 -76 -125.5 -179t-200.5 -198q-263 -224 -534 -289q-174 -43 -283 31q-88 59 -105 178zM838 1692q0 34 39 51q23 12 45 7.5t22 -26.5q0 -25 23.5 -75t64.5 -95q52 -59 98.5 -88.5t71.5 -29.5 q10 1 12.5 -5.5t-2.5 -15.5q-18 -31 -63 -31q-43 0 -106 34t-107 81q-40 43 -69 98t-29 95z" />
<glyph unicode="&#xc9;" horiz-adv-x="897" d="M-66 -33q-16 129 109 287q73 90 168 164q137 110 287 198q-90 37 -125 105t-11 137q24 67 88.5 146t149.5 153q95 81 184.5 132t143.5 50q15 0 27.5 -2.5t25 -9t20.5 -11.5t19.5 -16.5t16 -16.5t17 -20t15.5 -18q18 -18 6 -39q-9 -14 -25 -18t-24 6q-38 41 -84 39 q-47 0 -124.5 -42.5t-164.5 -115.5q-125 -104 -172 -198.5t-2 -141.5q28 -31 117 -61q124 65 184 71q69 5 104 -28q27 -25 5 -47q-29 -29 -97 -58t-149 -26q-235 -127 -399 -281q-92 -83 -148 -168q-62 -96 -68 -173t46 -107q31 -19 83 -22t119 10.5t151 48.5t171 88 q201 118 365 290q83 89 184 234q20 29 35 0q8 -16 8.5 -39.5t-8.5 -42.5q-39 -76 -125.5 -179t-200.5 -198q-263 -224 -534 -289q-174 -43 -283 31q-88 59 -105 178zM766 1479q9 70 137 155q24 18 49.5 32.5t50 25t41.5 17t39 13.5t27 9q27 8 49 -23q5 -7 6.5 -14.5 t-2.5 -13.5t-14 -9q-88 -27 -182 -104q-28 -22 -53.5 -50.5t-39 -49t-27.5 -43.5t-16 -25q-5 -13 -18 -10t-25 18q-25 29 -22 72z" />
<glyph unicode="&#xca;" horiz-adv-x="897" d="M-66 -33q-16 129 109 287q73 90 168 164q137 110 287 198q-90 37 -125 105t-11 137q24 67 88.5 146t149.5 153q95 81 184.5 132t143.5 50q15 0 27.5 -2.5t25 -9t20.5 -11.5t19.5 -16.5t16 -16.5t17 -20t15.5 -18q18 -18 6 -39q-9 -14 -25 -18t-24 6q-38 41 -84 39 q-47 0 -124.5 -42.5t-164.5 -115.5q-125 -104 -172 -198.5t-2 -141.5q28 -31 117 -61q124 65 184 71q69 5 104 -28q27 -25 5 -47q-29 -29 -97 -58t-149 -26q-235 -127 -399 -281q-92 -83 -148 -168q-62 -96 -68 -173t46 -107q31 -19 83 -22t119 10.5t151 48.5t171 88 q201 118 365 290q83 89 184 234q20 29 35 0q8 -16 8.5 -39.5t-8.5 -42.5q-39 -76 -125.5 -179t-200.5 -198q-263 -224 -534 -289q-174 -43 -283 31q-88 59 -105 178zM740.5 1497.5q-0.5 13.5 9.5 15.5q30 0 143 80q120 86 139 117q11 13 27.5 9.5t30.5 -17.5q28 -28 28 -57 q3 -33 21 -111q22 -86 53 -102q32 -11 8 -35q-11 -11 -29 -17t-28 -2q-38 16 -70 105q-29 79 -29 98q-47 -33 -98 -70q-107 -75 -131 -88q-18 -6 -35.5 7.5t-29.5 35.5q-9 18 -9.5 31.5z" />
<glyph unicode="&#xcb;" horiz-adv-x="897" d="M-66 -33q-16 129 109 287q73 90 168 164q137 110 287 198q-90 37 -125 105t-11 137q24 67 88.5 146t149.5 153q95 81 184.5 132t143.5 50q15 0 27.5 -2.5t25 -9t20.5 -11.5t19.5 -16.5t16 -16.5t17 -20t15.5 -18q18 -18 6 -39q-9 -14 -25 -18t-24 6q-38 41 -84 39 q-47 0 -124.5 -42.5t-164.5 -115.5q-125 -104 -172 -198.5t-2 -141.5q28 -31 117 -61q124 65 184 71q69 5 104 -28q27 -25 5 -47q-29 -29 -97 -58t-149 -26q-235 -127 -399 -281q-92 -83 -148 -168q-62 -96 -68 -173t46 -107q31 -19 83 -22t119 10.5t151 48.5t171 88 q201 118 365 290q83 89 184 234q20 29 35 0q8 -16 8.5 -39.5t-8.5 -42.5q-39 -76 -125.5 -179t-200.5 -198q-263 -224 -534 -289q-174 -43 -283 31q-88 59 -105 178zM868 1563q5 33 27 58.5t51 29.5q29 7 55 -19.5t31 -58.5q0 -27 -40.5 -71t-73.5 -56q-27 -7 -41 36t-9 81z M1087 1464q0 32 31.5 74.5t57.5 42.5q30 0 56.5 -26.5t22.5 -61.5q-3 -23 -42 -67.5t-66 -51.5q-28 -6 -46.5 25.5t-13.5 64.5z" />
<glyph unicode="&#xcc;" horiz-adv-x="428" d="M61 -78q2 38 54 164q26 63 101 232.5t116 267.5q91 212 172 422q78 201 84 247q3 37 45 15q18 -9 32 -26.5t17 -35.5q5 -31 -74 -225q-27 -64 -209 -479q-121 -265 -202 -488q-61 -167 -52 -190q4 -16 -9 -15q-18 1 -42 27q-36 40 -33 84zM555 1608q0 34 39 51 q23 12 45.5 7.5t22.5 -26.5q0 -25 23.5 -75t64.5 -95q52 -59 98.5 -88.5t71.5 -29.5q10 1 12.5 -5.5t-2.5 -15.5q-18 -31 -64 -31q-43 0 -106 34t-107 81q-40 43 -69 98t-29 95z" />
<glyph unicode="&#xcd;" horiz-adv-x="428" d="M61 -78q2 38 54 164q26 63 101 232.5t116 267.5q91 212 172 422q78 201 84 247q3 37 45 15q18 -9 32 -26.5t17 -35.5q5 -31 -74 -225q-27 -64 -209 -479q-121 -265 -202 -488q-61 -167 -52 -190q4 -16 -9 -15q-18 1 -42 27q-36 40 -33 84zM645 1464q9 71 137 156 q30 22 65 40t54.5 26t52.5 18.5t35 11.5q27 8 49 -22q5 -7 6.5 -14.5t-2.5 -13.5t-14 -9q-86 -27 -182 -105q-28 -22 -53 -50.5t-39 -49t-27.5 -43.5t-15.5 -25q-5 -13 -18 -10t-25 19q-26 30 -23 71z" />
<glyph unicode="&#xce;" horiz-adv-x="428" d="M61 -78q2 38 54 164q26 63 101 232.5t116 267.5q91 212 172 422q78 201 84 247q3 37 45 15q18 -9 32 -26.5t17 -35.5q5 -31 -74 -225q-27 -64 -209 -479q-121 -265 -202 -488q-61 -167 -52 -190q4 -16 -9 -15q-18 1 -42 27q-36 40 -33 84zM459.5 1465.5 q-0.5 13.5 9.5 15.5q30 0 143 80q123 88 140 116q11 13 27 9.5t30 -17.5q29 -29 29 -57q3 -40 20 -111q22 -86 53 -102q16 -6 17.5 -16t-8.5 -19q-11 -11 -29.5 -16.5t-28.5 -1.5q-38 16 -69 104q-29 79 -29 98q-47 -32 -98 -69q-107 -75 -131 -88q-18 -6 -36.5 7.5 t-29.5 35.5q-9 18 -9.5 31.5z" />
<glyph unicode="&#xcf;" horiz-adv-x="428" d="M61 -78q2 38 54 164q26 63 101 232.5t116 267.5q91 212 172 422q78 201 84 247q3 37 45 15q18 -9 32 -26.5t17 -35.5q5 -31 -74 -225q-27 -64 -209 -479q-121 -265 -202 -488q-61 -167 -52 -190q4 -16 -9 -15q-18 1 -42 27q-36 40 -33 84zM557 1554q5 33 27 58.5t51 29.5 q29 7 55 -19t31 -58q0 -27 -41 -71t-74 -56q-27 -7 -40.5 35.5t-8.5 80.5zM776 1456q0 32 31 74.5t57 42.5q30 0 57 -26.5t23 -61.5q-3 -23 -42 -67.5t-66 -51.5q-28 -6 -46.5 25.5t-13.5 64.5z" />
<glyph unicode="&#xd0;" horiz-adv-x="1116" d="M-45 1026q6 15 35 43t83.5 64.5t123 70.5t163 61.5t193.5 37.5q338 34 528.5 -81t208.5 -337q14 -173 -101 -389.5t-302 -362.5q-176 -137 -330 -200t-270 -60q-79 0 -129 57q-52 58 -37 136q30 156 172 448l-90 -29q-43 -13 -51 -18q-21 -10 -41.5 1.5t-30.5 33.5 q-10 19 -6 34.5t24 16.5q19 0 109 22q63 16 133 37l111 226q111 229 118 290q3 14 15 12.5t28 -14.5q23 -20 36 -47t5 -53q-26 -68 -82 -186l-94 -193q100 22 131 27q90 13 125 0q42 -14 58 -37q4 -6 3 -10.5t-9.5 -7.5t-24.5 -3q-38 2 -154 -20q-89 -19 -176 -43 q-126 -247 -179 -390.5t-28 -193.5q20 -40 166 4.5t289 141.5q69 46 130.5 96t129.5 121t118.5 146t88.5 170.5t49 195.5q9 84 -9.5 149.5t-58.5 106.5t-96.5 70t-123.5 39t-139.5 14t-145.5 -4q-95 -8 -189 -33.5t-164.5 -58t-126 -67t-84 -62.5t-28.5 -42q0 -34 -25 -25 q-20 8 -37 34q-23 35 -12 61z" />
<glyph unicode="&#xd1;" horiz-adv-x="964" d="M23 -127q12 87 184 557q50 139 114.5 310t107.5 285.5t52 139.5q18 52 78 56q31 2 52 -18t18 -56q-11 -115 61 -596q41 -271 80 -463q80 253 211 567q130 312 203 445q84 152 139 160q45 8 72 -41q20 -37 8 -57q-6 -10 -21 -5q-47 14 -118 -104q-64 -109 -199 -435 q-83 -204 -160 -411t-86 -252q-9 -42 -41 -31q-38 12 -78 84q-50 94 -114 510q-48 310 -51 502q-58 -133 -254 -686q-168 -474 -181 -533q-6 -16 -19.5 -14t-29.5 18q-34 31 -28 68zM727 1352q-19 43 0 69q35 45 82 68q48 21 86 14q24 -4 37 -17t26 -36q11 -17 15 -24 t16 -17t25 -14q43 -9 80 28q24 24 20 45q0 15 17 2l4 -4t4 -5t4.5 -7t3.5 -6q9 -77 -35 -119q-24 -24 -70 -31q-43 -6 -71 13q-24 17 -47.5 54t-40.5 40q-22 3 -47 -10q-44 -23 -68 -66q-8 -13 -20.5 -5t-20.5 28z" />
<glyph unicode="&#xd2;" horiz-adv-x="978" d="M23 166q-6 141 55 315q50 144 123 262q10 54 26 101q61 171 179 286q126 120 290 142q146 21 258 -45t146 -209q38 -148 -22.5 -348t-188.5 -391q-103 -154 -228 -266.5t-245 -151.5q-156 -51 -264 20q-59 40 -92.5 113.5t-36.5 171.5zM115 121q-2 -90 27.5 -142.5 t88.5 -58.5q80 -9 204.5 55t246.5 201q134 150 236 369q97 206 90 389q-3 91 -33 156t-78 92q-59 33 -140 24t-165 -57q-152 -90 -230 -258q-64 -139 -71 -244q-4 -77 22.5 -121t61.5 -57q14 -6 18 -13t-1 -13.5t-15 -10.5q-37 -19 -82 -2q-52 18 -82 105q-34 -79 -57 -162 q-41 -146 -41 -252zM782 1595q0 35 39 52q23 12 45.5 7.5t22.5 -26.5q0 -25 23.5 -75t64.5 -95q52 -59 98.5 -89t71.5 -30q10 1 12.5 -5t-2.5 -15q-18 -31 -63 -31q-43 0 -106 34t-107 81q-41 44 -70 98.5t-29 93.5z" />
<glyph unicode="&#xd3;" horiz-adv-x="978" d="M23 166q-6 141 55 315q50 144 123 262q10 54 26 101q61 171 179 286q126 120 290 142q146 21 258 -45t146 -209q38 -148 -22.5 -348t-188.5 -391q-103 -154 -228 -266.5t-245 -151.5q-156 -51 -264 20q-59 40 -92.5 113.5t-36.5 171.5zM115 121q-2 -90 27.5 -142.5 t88.5 -58.5q80 -9 204.5 55t246.5 201q134 150 236 369q97 206 90 389q-3 91 -33 156t-78 92q-59 33 -140 24t-165 -57q-152 -90 -230 -258q-64 -139 -71 -244q-4 -77 22.5 -121t61.5 -57q14 -6 18 -13t-1 -13.5t-15 -10.5q-37 -19 -82 -2q-52 18 -82 105q-34 -79 -57 -162 q-41 -146 -41 -252zM772 1430q9 70 137 155q30 22 65 40t54.5 26t52.5 18.5t35 11.5q27 8 49 -22q5 -7 6.5 -14.5t-2.5 -13.5t-14 -9q-88 -27 -182 -104q-28 -22 -53 -50.5t-39 -49t-27.5 -43.5t-15.5 -25q-5 -13 -18 -10t-25 18q-26 30 -23 72z" />
<glyph unicode="&#xd4;" horiz-adv-x="978" d="M23 166q-6 141 55 315q50 144 123 262q10 54 26 101q61 171 179 286q126 120 290 142q146 21 258 -45t146 -209q38 -148 -22.5 -348t-188.5 -391q-103 -154 -228 -266.5t-245 -151.5q-156 -51 -264 20q-59 40 -92.5 113.5t-36.5 171.5zM115 121q-2 -90 27.5 -142.5 t88.5 -58.5q80 -9 204.5 55t246.5 201q134 150 236 369q97 206 90 389q-3 91 -33 156t-78 92q-59 33 -140 24t-165 -57q-152 -90 -230 -258q-64 -139 -71 -244q-4 -77 22.5 -121t61.5 -57q14 -6 18 -13t-1 -13.5t-15 -10.5q-37 -19 -82 -2q-52 18 -82 105q-34 -79 -57 -162 q-41 -146 -41 -252zM629.5 1436.5q-0.5 13.5 9.5 15.5q30 0 143 80q122 87 140 117q12 12 27 9t30 -18q29 -29 29 -57q3 -38 20 -110q22 -87 53 -103q16 -6 17.5 -16t-8.5 -19q-11 -11 -29.5 -16.5t-28.5 -1.5q-38 16 -69 104q-29 79 -29 99q-47 -33 -98 -70 q-107 -75 -131 -88q-18 -6 -36.5 7.5t-29.5 35.5q-9 18 -9.5 31.5z" />
<glyph unicode="&#xd5;" horiz-adv-x="978" d="M23 166q-6 141 55 315q50 144 123 262q10 54 26 101q61 171 179 286q126 120 290 142q146 21 258 -45t146 -209q38 -148 -22.5 -348t-188.5 -391q-103 -154 -228 -266.5t-245 -151.5q-156 -51 -264 20q-59 40 -92.5 113.5t-36.5 171.5zM115 121q-2 -90 27.5 -142.5 t88.5 -58.5q80 -9 204.5 55t246.5 201q134 150 236 369q97 206 90 389q-3 91 -33 156t-78 92q-59 33 -140 24t-165 -57q-152 -90 -230 -258q-64 -139 -71 -244q-4 -77 22.5 -121t61.5 -57q14 -6 18 -13t-1 -13.5t-15 -10.5q-37 -19 -82 -2q-52 18 -82 105q-34 -79 -57 -162 q-41 -146 -41 -252zM739 1386q-19 43 0 70q35 45 82 68q48 21 86 14q24 -4 37.5 -17t26.5 -36q1 -2 4.5 -7.5t5 -7.5t4.5 -7.5t5 -7.5t5.5 -6t6.5 -6.5t7 -5t8 -4.5t9 -3q43 -9 80 28q24 24 20 45q0 15 17 2l4 -4t4 -5t4.5 -7t3.5 -6q9 -77 -35 -119q-24 -24 -69 -31 q-44 -6 -72 13q-24 17 -47.5 54t-40.5 40q-22 3 -47 -10q-44 -23 -68 -66q-8 -13 -20.5 -5.5t-20.5 27.5z" />
<glyph unicode="&#xd6;" horiz-adv-x="978" d="M23 166q-6 141 55 315q50 144 123 262q10 54 26 101q61 171 179 286q126 120 290 142q146 21 258 -45t146 -209q38 -148 -22.5 -348t-188.5 -391q-103 -154 -228 -266.5t-245 -151.5q-156 -51 -264 20q-59 40 -92.5 113.5t-36.5 171.5zM115 121q-2 -90 27.5 -142.5 t88.5 -58.5q80 -9 204.5 55t246.5 201q134 150 236 369q97 206 90 389q-3 91 -33 156t-78 92q-59 33 -140 24t-165 -57q-152 -90 -230 -258q-64 -139 -71 -244q-4 -77 22.5 -121t61.5 -57q14 -6 18 -13t-1 -13.5t-15 -10.5q-37 -19 -82 -2q-52 18 -82 105q-34 -79 -57 -162 q-41 -146 -41 -252zM745 1542q5 33 27 58.5t51 29.5q29 7 55 -19.5t31 -58.5q0 -27 -40.5 -71t-73.5 -56q-27 -7 -41 36t-9 81zM965 1444q0 32 31 74.5t57 42.5q30 0 57 -26.5t23 -61.5q-3 -23 -42.5 -67.5t-66.5 -51.5q-28 -6 -46 25.5t-13 64.5z" />
<glyph unicode="&#xd7;" horiz-adv-x="606" d="M184 287q-8 22 2 45q7 11 109 106q19 18 60 54t51 45q-22 46 -37 86q-20 48 -32.5 87.5t-10.5 47.5q0 17 16 33q23 28 43 31q9 2 8 -7q7 -29 47 -135l33 -82q81 74 145 127q111 89 132 92q13 1 30.5 -8t28.5 -23q11 -13 11 -25.5t-13 -19.5q-26 -11 -125 -92 q-124 -106 -168 -141q54 -102 82 -146q45 -68 55 -73q23 -17 -8 -41q-34 -25 -51 -15q-8 3 -35 38.5t-57 86.5q-5 9 -25 41.5t-29 51.5l-77 -72q-109 -101 -111 -121q-2 -10 -8.5 -14.5t-14.5 -4t-15.5 4t-12.5 8.5q-15 13 -23 35z" />
<glyph unicode="&#xd8;" horiz-adv-x="970" d="M92 -55q5 25 12 37q-9 26 -10 34q-39 183 66 531q38 126 99 251.5t112 184.5q72 150 190 262q138 131 275 137q155 7 245 -69q19 19 29 24q44 23 66 -6q12 -15 13.5 -36.5t-9.5 -28.5q-10 -7 -33 -33q31 -64 39 -129q22 -165 -55 -376.5t-220 -416.5q-288 -401 -587 -469 q-89 -20 -154 41q-4 -19 -2 -24q4 -28 -2 -41t-19 -11q-12 2 -26 16.5t-23 37.5q-14 40 -6 84zM176 109q117 190 375 542q304 415 483 613q-12 15 -24 24q-84 60 -232 -12q-74 -36 -142.5 -98.5t-111.5 -135.5q-44 -76 -49 -86q0 -16 -14 -30q-41 -77 -53 -133 q-13 -59 14 -74q24 -15 14 -31q-8 -13 -31 -18.5t-45 2.5q-15 5 -26 20q-29 -70 -82 -235q-68 -218 -76 -348zM197 -49q14 -20 39 -29q48 -15 133.5 27.5t183 126t204 215t189.5 280.5q84 148 119 309t14 275q-174 -205 -446 -563q-337 -445 -436 -641z" />
<glyph unicode="&#xd9;" horiz-adv-x="1198" d="M141 23q0 87 46 227t169 393q73 151 163.5 317.5t128 241t34.5 103.5q-2 25 35 9q18 -9 35 -22q35 -28 30 -53q-4 -21 -51 -104.5t-135 -243.5t-164 -318q-264 -544 -198 -605q7 -6 18 -7q59 -1 259 192t347 367q100 120 208.5 273t158 230t82.5 132q15 24 36 22.5 t37 -22.5q33 -41 11 -80q-7 -12 -38.5 -57t-61.5 -91t-80 -140.5t-99 -208.5q-56 -129 -80.5 -241t-16.5 -173.5t38 -67.5q61 -13 243 207q114 137 148 203q11 19 22 17t19 -19q8 -16 8 -39t-10 -39q-119 -180 -166 -238q-141 -174 -232 -184q-56 -6 -104 55q-41 54 -51 138 q-8 68 7 160.5t52 172.5q-225 -268 -387 -428q-95 -96 -183.5 -159.5t-129.5 -69.5q-33 -7 -78 23q-70 51 -70 127zM891 1636q0 35 39 52q23 12 45 7.5t22 -26.5q0 -25 23.5 -75t64.5 -95q52 -59 98.5 -89t71.5 -30q10 1 13 -5t-2 -15q-18 -31 -64 -31q-43 0 -106 34 t-107 81q-40 44 -69 98t-29 94z" />
<glyph unicode="&#xda;" horiz-adv-x="1198" d="M141 23q0 87 46 227t169 393q73 151 163.5 317.5t128 241t34.5 103.5q-2 25 35 9q18 -9 35 -22q35 -28 30 -53q-4 -21 -51 -104.5t-135 -243.5t-164 -318q-264 -544 -198 -605q7 -6 18 -7q59 -1 259 192t347 367q100 120 208.5 273t158 230t82.5 132q15 24 36 22.5 t37 -22.5q33 -41 11 -80q-7 -12 -38.5 -57t-61.5 -91t-80 -140.5t-99 -208.5q-56 -129 -80.5 -241t-16.5 -173.5t38 -67.5q61 -13 243 207q114 137 148 203q11 19 22 17t19 -19q8 -16 8 -39t-10 -39q-119 -180 -166 -238q-141 -174 -232 -184q-56 -6 -104 55q-41 54 -51 138 q-8 68 7 160.5t52 172.5q-225 -268 -387 -428q-95 -96 -183.5 -159.5t-129.5 -69.5q-33 -7 -78 23q-70 51 -70 127zM995 1374q9 70 138 156q30 22 65 40t54 25.5t52 18.5t35 12q28 8 50 -22q8 -10 5.5 -21.5t-16.5 -15.5q-86 -27 -182 -105q-28 -22 -53 -50.5t-39 -49 t-27.5 -43.5t-15.5 -25q-5 -13 -18 -10t-25 19q-26 30 -23 71z" />
<glyph unicode="&#xdb;" horiz-adv-x="1198" d="M141 23q0 87 46 227t169 393q73 151 163.5 317.5t128 241t34.5 103.5q-2 25 35 9q18 -9 35 -22q35 -28 30 -53q-4 -21 -51 -104.5t-135 -243.5t-164 -318q-264 -544 -198 -605q7 -6 18 -7q59 -1 259 192t347 367q100 120 208.5 273t158 230t82.5 132q15 24 36 22.5 t37 -22.5q33 -41 11 -80q-7 -12 -38.5 -57t-61.5 -91t-80 -140.5t-99 -208.5q-56 -129 -80.5 -241t-16.5 -173.5t38 -67.5q61 -13 243 207q114 137 148 203q11 19 22 17t19 -19q8 -16 8 -39t-10 -39q-119 -180 -166 -238q-141 -174 -232 -184q-56 -6 -104 55q-41 54 -51 138 q-8 68 7 160.5t52 172.5q-225 -268 -387 -428q-95 -96 -183.5 -159.5t-129.5 -69.5q-33 -7 -78 23q-70 51 -70 127zM881.5 1450.5q-0.5 13.5 9.5 15.5q30 0 143 80q122 87 140 117q11 13 27 9.5t30 -17.5q29 -29 29 -58q3 -38 20 -110q22 -87 53 -103q31 -11 8 -34 q-11 -11 -29 -17t-28 -2q-38 16 -70 105q-28 76 -28 98q-48 -33 -99 -70q-107 -75 -131 -88q-18 -6 -35.5 7.5t-29.5 35.5q-9 18 -9.5 31.5z" />
<glyph unicode="&#xdc;" horiz-adv-x="1198" d="M141 23q0 87 46 227t169 393q73 151 163.5 317.5t128 241t34.5 103.5q-2 25 35 9q18 -9 35 -22q35 -28 30 -53q-4 -21 -51 -104.5t-135 -243.5t-164 -318q-264 -544 -198 -605q7 -6 18 -7q59 -1 259 192t347 367q100 120 208.5 273t158 230t82.5 132q15 24 36 22.5 t37 -22.5q33 -41 11 -80q-7 -12 -38.5 -57t-61.5 -91t-80 -140.5t-99 -208.5q-56 -129 -80.5 -241t-16.5 -173.5t38 -67.5q61 -13 243 207q114 137 148 203q11 19 22 17t19 -19q8 -16 8 -39t-10 -39q-119 -180 -166 -238q-141 -174 -232 -184q-56 -6 -104 55q-41 54 -51 138 q-8 68 7 160.5t52 172.5q-225 -268 -387 -428q-95 -96 -183.5 -159.5t-129.5 -69.5q-33 -7 -78 23q-70 51 -70 127zM950 1513q5 33 27 59t51 30q29 7 55 -19.5t31 -58.5q0 -27 -41 -71t-74 -56q-27 -7 -40.5 35.5t-8.5 80.5zM1169 1415q0 32 31 74.5t57 42.5q30 0 57 -26.5 t23 -61.5q-3 -23 -42 -67.5t-66 -51.5q-28 -6 -46.5 25.5t-13.5 64.5z" />
<glyph unicode="&#xdd;" horiz-adv-x="948" d="M-23 86q13 54 58 145t117 225.5t116 229.5q109 228 152.5 347t21.5 163q-9 19 14 21q35 0 68 -31q30 -30 35 -70q4 -27 -67 -189.5t-170 -353.5q-156 -299 -220.5 -447t-33.5 -171q20 -15 74 17.5t126 98.5t149 142t155 156q37 39 55 57q183 184 306 322.5t152 189.5 q18 28 52.5 13.5t52.5 -52.5q25 -53 -12 -90q-54 -49 -240 -373q-153 -272 -252 -454q-92 -173 -147 -304q-27 -64 -49 -122.5t-31.5 -90.5t-9.5 -40q0 -14 26.5 -17t30.5 -14q2 -8 -11 -20t-32 -19q-64 -25 -92 16q-41 62 63 314q51 123 137 297q76 148 162.5 304 t135.5 238l49 82q-285 -334 -422 -459q-28 -25 -71.5 -64t-68 -61t-58.5 -51.5t-56 -45.5t-47 -31.5t-45 -22t-37 -6.5q-56 3 -90 37q-33 31 -45 82t-1 102zM844 1276q9 71 137 156q30 22 65 40t54.5 26t52.5 18.5t35 11.5q27 8 49 -23q5 -7 6.5 -14.5t-2.5 -13.5t-14 -9 q-90 -28 -183 -104q-28 -22 -53 -50.5t-39 -49t-27.5 -43.5t-15.5 -25q-5 -13 -18 -10t-25 18q-25 29 -22 72z" />
<glyph unicode="&#xde;" horiz-adv-x="976" d="M-14.5 758.5q-3.5 20.5 8.5 34.5q25 25 93 64t167 71q117 41 260 55l66 160q44 111 49 131q7 21 22.5 16.5t30.5 -26.5q32 -49 20 -78l-34 -82l-47 -115q160 10 278 -20q124 -28 191 -86.5t73 -132.5q11 -129 -135 -285q-116 -124 -289 -232q-111 -70 -231 -115.5 t-172 -47.5q-19 0 -37 12q-22 16 -31 37q-21 -57 -73 -215q-41 -128 -41 -160q0 -25 -15.5 -29.5t-32.5 9.5q-16 11 -28 34.5t-12 51.5q2 43 71 235q8 21 154 395l119 287l63 156q-105 -20 -211 -62q-82 -30 -140 -63t-67 -53q-11 -16 -25.5 -11t-27.5 25q-13 19 -16.5 39.5 zM283 160q1 0 3 1t3 1q175 19 432 180q163 103 267 230t91 206q-9 50 -78.5 80.5t-175.5 40.5q-117 12 -241 0l-166 -405q-121 -297 -135 -334z" />
<glyph unicode="&#xdf;" horiz-adv-x="753" d="M25 -18q2 21 264 634q251 586 258 629q6 30 31 23t35 -41q6 -19 3 -39q-5 -26 -90 -227l-137 -326q168 255 225 328q134 175 211 178q60 3 95 -51q37 -56 20 -109q-28 -93 -145 -258q-34 -47 -72 -96t-59 -74l-21 -25q5 1 13 1t30 -3t41 -10.5t40.5 -26.5t33.5 -47 q31 -81 -9 -169.5t-116 -161.5q-127 -130 -277 -136q-44 0 -84 21q-23 13 -33.5 31t-2.5 26q7 7 22.5 2t35 -12t52.5 2q129 41 225 141q66 69 100.5 140.5t20.5 107.5q-13 31 -50.5 31.5t-76 -16.5t-69.5 -41q-23 -16 -41 -10t-29 26q-23 44 4 65q42 32 121 126.5t151 197.5 q156 225 125 250q-36 29 -227 -225q-27 -35 -201 -277q-37 -53 -157 -264q-29 -52 -82 -146.5t-72 -127.5q-35 -86 -35 -91q-1 -11 -7.5 -14t-15.5 0.5t-18 11.5q-30 22 -30 52z" />
<glyph unicode="&#xe0;" d="M53 131q34 133 150 315q144 224 252 242q45 8 96 -20.5t78 -83.5l35 45q20 26 49 4q21 -14 31.5 -40.5t0.5 -41.5q-68 -96 -127 -268q-18 -53 -27 -96.5t-5 -73.5t24 -35q49 -11 197 172q60 73 116 151.5t68 104.5q10 18 22.5 14t20.5 -22q16 -31 2 -58 q-34 -74 -143 -219q-74 -100 -131 -151q-41 -36 -80.5 -53t-78 -10.5t-68.5 40.5q-40 46 -37 131q3 87 45 166q-60 -87 -159.5 -193.5t-178.5 -162.5q-63 -46 -111 2q-26 26 -38 67.5t-3 73.5zM127 51q29 -20 248 228q125 143 209 249q-46 75 -78 78q-74 5 -211 -200 q-48 -74 -91 -156t-64.5 -137.5t-12.5 -61.5zM422 1071q0 34 39 51q23 12 45 8t22 -26q0 -25 23.5 -75t64.5 -95q52 -59 98.5 -89t71.5 -30q10 1 13 -5t-2 -15q-18 -31 -64 -31q-43 0 -106 34t-107 81q-40 44 -69 98t-29 94z" />
<glyph unicode="&#xe1;" d="M53 131q34 133 150 315q144 224 252 242q45 8 96 -20.5t78 -83.5l35 45q20 26 49 4q21 -14 31.5 -40.5t0.5 -41.5q-68 -96 -127 -268q-18 -53 -27 -96.5t-5 -73.5t24 -35q49 -11 197 172q60 73 116 151.5t68 104.5q10 18 22.5 14t20.5 -22q16 -31 2 -58 q-34 -74 -143 -219q-74 -100 -131 -151q-41 -36 -80.5 -53t-78 -10.5t-68.5 40.5q-40 46 -37 131q3 87 45 166q-60 -87 -159.5 -193.5t-178.5 -162.5q-63 -46 -111 2q-26 26 -38 67.5t-3 73.5zM127 51q29 -20 248 228q125 143 209 249q-46 75 -78 78q-74 5 -211 -200 q-48 -74 -91 -156t-64.5 -137.5t-12.5 -61.5zM573 836q8 69 138 155q30 22 65 40t54.5 26t52.5 18.5t35 11.5q27 8 49 -22q8 -10 5.5 -21.5t-16.5 -15.5q-88 -27 -182 -104q-28 -22 -53 -50.5t-39 -49t-27.5 -43.5t-15.5 -25q-5 -13 -18 -10t-25 18q-26 30 -23 72z" />
<glyph unicode="&#xe2;" d="M53 131q34 133 150 315q144 224 252 242q45 8 96 -20.5t78 -83.5l35 45q20 26 49 4q21 -14 31.5 -40.5t0.5 -41.5q-68 -96 -127 -268q-18 -53 -27 -96.5t-5 -73.5t24 -35q49 -11 197 172q60 73 116 151.5t68 104.5q10 18 22.5 14t20.5 -22q16 -31 2 -58 q-34 -74 -143 -219q-74 -100 -131 -151q-41 -36 -80.5 -53t-78 -10.5t-68.5 40.5q-40 46 -37 131q3 87 45 166q-60 -87 -159.5 -193.5t-178.5 -162.5q-63 -46 -111 2q-26 26 -38 67.5t-3 73.5zM127 51q29 -20 248 228q125 143 209 249q-46 75 -78 78q-74 5 -211 -200 q-48 -74 -91 -156t-64.5 -137.5t-12.5 -61.5zM443.5 858.5q-0.5 13.5 9.5 15.5q30 0 143 80q120 86 139 117q11 13 27.5 9.5t30.5 -17.5q28 -28 28 -57q3 -33 21 -111q22 -86 53 -102q32 -11 8 -35q-11 -11 -29 -17t-28 -2q-38 16 -70 105q-28 76 -28 98q-48 -33 -99 -70 q-107 -75 -131 -88q-18 -6 -35.5 7.5t-29.5 35.5q-9 18 -9.5 31.5z" />
<glyph unicode="&#xe3;" d="M53 131q34 133 150 315q144 224 252 242q45 8 96 -20.5t78 -83.5l35 45q20 26 49 4q21 -14 31.5 -40.5t0.5 -41.5q-68 -96 -127 -268q-18 -53 -27 -96.5t-5 -73.5t24 -35q49 -11 197 172q60 73 116 151.5t68 104.5q10 18 22.5 14t20.5 -22q16 -31 2 -58 q-34 -74 -143 -219q-74 -100 -131 -151q-41 -36 -80.5 -53t-78 -10.5t-68.5 40.5q-40 46 -37 131q3 87 45 166q-60 -87 -159.5 -193.5t-178.5 -162.5q-63 -46 -111 2q-26 26 -38 67.5t-3 73.5zM127 51q29 -20 248 228q125 143 209 249q-46 75 -78 78q-74 5 -211 -200 q-48 -74 -91 -156t-64.5 -137.5t-12.5 -61.5zM444 813q-19 43 0 70q34 44 82 67q50 22 86 15q24 -4 37.5 -17.5t26.5 -36.5q1 -2 4.5 -7.5t5 -7.5t4.5 -7.5t5 -7.5t5.5 -6t6.5 -6.5t7 -5t8 -4.5t9 -3q42 -9 80 29q24 24 20 45q0 15 17 2l4 -4t6.5 -9.5t5.5 -9.5 q9 -76 -35 -118q-24 -24 -69 -31q-45 -6 -72 12q-24 17 -47.5 54t-40.5 40q-22 3 -47 -10q-45 -23 -68 -65q-8 -13 -20.5 -5.5t-20.5 27.5z" />
<glyph unicode="&#xe4;" d="M53 131q34 133 150 315q144 224 252 242q45 8 96 -20.5t78 -83.5l35 45q20 26 49 4q21 -14 31.5 -40.5t0.5 -41.5q-68 -96 -127 -268q-18 -53 -27 -96.5t-5 -73.5t24 -35q49 -11 197 172q60 73 116 151.5t68 104.5q10 18 22.5 14t20.5 -22q16 -31 2 -58 q-34 -74 -143 -219q-74 -100 -131 -151q-41 -36 -80.5 -53t-78 -10.5t-68.5 40.5q-40 46 -37 131q3 87 45 166q-60 -87 -159.5 -193.5t-178.5 -162.5q-63 -46 -111 2q-26 26 -38 67.5t-3 73.5zM127 51q29 -20 248 228q125 143 209 249q-46 75 -78 78q-74 5 -211 -200 q-48 -74 -91 -156t-64.5 -137.5t-12.5 -61.5zM487 938q5 33 27 58.5t51 29.5q29 7 55 -19.5t31 -58.5q0 -27 -40.5 -71t-73.5 -56q-27 -7 -41 36t-9 81zM707 840q0 32 31 74t57 42q30 0 56.5 -26.5t22.5 -61.5q-3 -23 -42 -67t-66 -51q-28 -6 -46 25.5t-13 64.5z" />
<glyph unicode="&#xe5;" d="M53 131q34 133 150 315q144 224 252 242q45 8 96 -20.5t78 -83.5l35 45q20 26 49 4q21 -14 31.5 -40.5t0.5 -41.5q-68 -96 -127 -268q-18 -53 -27 -96.5t-5 -73.5t24 -35q49 -11 197 172q60 73 116 151.5t68 104.5q10 18 22.5 14t20.5 -22q16 -31 2 -58 q-34 -74 -143 -219q-74 -100 -131 -151q-41 -36 -80.5 -53t-78 -10.5t-68.5 40.5q-40 46 -37 131q3 87 45 166q-60 -87 -159.5 -193.5t-178.5 -162.5q-63 -46 -111 2q-26 26 -38 67.5t-3 73.5zM127 51q29 -20 248 228q125 143 209 249q-46 75 -78 78q-74 5 -211 -200 q-48 -74 -91 -156t-64.5 -137.5t-12.5 -61.5zM557.5 841.5q3.5 43.5 20.5 71.5q46 68 98 90.5t82 14.5q37 0 62.5 -35.5t28.5 -84.5t-18 -101q-38 -57 -103 -82.5t-114 -9.5q-31 13 -45.5 53t-11 83.5zM637 805q12 -22 60.5 -10t68.5 41q15 22 11 50.5t-25 35.5l-2 -2 q-3 0 -7 4h-10q-5 0 -8 6q-11 0 -35 -12q-32 -19 -52 -57t-1 -56z" />
<glyph unicode="&#xe6;" horiz-adv-x="913" d="M37 115q22 89 156 305q68 107 135.5 184.5t107.5 87.5q44 9 91.5 -25t82.5 -94l17 -28q85 103 184 129q76 20 124 -19.5t36 -105.5q-16 -90 -148 -191q-59 -45 -121.5 -79.5t-83.5 -38.5q-11 -3 -17.5 5.5t-6.5 22.5q-34 -94 -23.5 -168t64.5 -77q107 -8 285 170 q80 79 150 169t97 144q7 14 18 14t21 -10q20 -28 11 -55q-22 -56 -79 -141.5t-128 -163.5q-178 -192 -322 -203q-76 -5 -133 42t-74 130q-20 -49 -47 -137q-9 -27 -39 -19q-29 7 -35 41q-6 28 37 119q17 36 101 194q-79 -116 -185 -225q-80 -83 -145 -121 q-31 -15 -56.5 -7.5t-45.5 32.5t-28 58t-1 61zM113 41q16 -10 170 158q71 77 278 323q-10 27 -32 54.5t-42 31.5q-24 4 -92 -73.5t-137 -180.5q-44 -66 -82 -138.5t-55.5 -121t-7.5 -53.5zM623 338q2 2 4 2q66 21 164 109q120 109 100 151q-10 20 -48.5 -1t-86.5 -71 q-85 -89 -133 -190z" />
<glyph unicode="&#xe7;" horiz-adv-x="493" d="M-197 -588q-20 36 13 45q20 3 62 29.5t79 60.5q64 60 72 109q2 14 -3.5 29t-19 38.5t-18.5 34.5q-28 61 -15 105q12 43 93 96q38 27 59 37l-4 4q-48 63 -41 160q10 101 94 235q60 95 133.5 164t141.5 82q48 9 92 -35q54 -51 45 -112q-4 -28 -29 -65.5t-49 -55.5 q-24 -17 -47 2q-26 23 -8 53q78 121 55 135q-41 28 -115.5 -44t-140.5 -187q-50 -90 -74 -171.5t-8 -123.5q37 -66 140 -8.5t231 198.5q125 138 202 275q20 35 45 10q13 -13 17 -33.5t-4 -36.5q-103 -168 -195 -274q-165 -191 -305 -225q-70 -15 -119 6l-8 -8 q-8 -8 -38.5 -26t-51.5 -37t-23 -38q0 -12 35 -76q49 -92 41 -141q-10 -72 -131 -158q-44 -30 -91 -53.5t-67 -29.5q-11 -4 -24 5.5t-21 24.5z" />
<glyph unicode="&#xe8;" horiz-adv-x="538" d="M99.5 169q-3.5 90 47.5 208q120 253 287 297q85 21 133 -27q39 -39 27 -98q-16 -86 -178 -234q-119 -107 -226 -170q-2 -54 16 -87.5t52 -34.5q63 -3 151.5 59t180.5 160q149 162 201 264q10 17 22.5 16t20.5 -16q15 -27 6 -51q-22 -57 -77 -140.5t-124 -158.5 q-80 -89 -165.5 -146t-162.5 -63q-100 -6 -161 71q-47 61 -50.5 151zM211 250q108 79 199 180q54 58 83.5 105t20.5 65q-10 21 -49.5 -4t-91.5 -80q-86 -93 -133 -190q-23 -53 -29 -76zM375 1034q0 34 39 51q23 12 45 8t22 -26q0 -25 23.5 -75t64.5 -95q52 -59 98.5 -89 t71.5 -30q10 1 13 -5t-2 -15q-18 -31 -64 -31q-43 0 -106 34t-107 81q-40 44 -69 98t-29 94z" />
<glyph unicode="&#xe9;" horiz-adv-x="538" d="M99.5 169q-3.5 90 47.5 208q120 253 287 297q85 21 133 -27q39 -39 27 -98q-16 -86 -178 -234q-119 -107 -226 -170q-2 -54 16 -87.5t52 -34.5q63 -3 151.5 59t180.5 160q149 162 201 264q10 17 22.5 16t20.5 -16q15 -27 6 -51q-22 -57 -77 -140.5t-124 -158.5 q-80 -89 -165.5 -146t-162.5 -63q-100 -6 -161 71q-47 61 -50.5 151zM211 250q108 79 199 180q54 58 83.5 105t20.5 65q-10 21 -49.5 -4t-91.5 -80q-86 -93 -133 -190q-23 -53 -29 -76zM453 840q9 70 137 155q24 18 49.5 32.5t50 25t41.5 17t39 13.5t27 9q27 8 49 -23 q5 -7 6.5 -14.5t-2.5 -13.5t-14 -9q-90 -28 -183 -104q-28 -22 -53 -50.5t-39 -49t-27.5 -43.5t-15.5 -25q-5 -13 -18 -10t-25 18q-25 29 -22 72z" />
<glyph unicode="&#xea;" horiz-adv-x="538" d="M99.5 169q-3.5 90 47.5 208q120 253 287 297q85 21 133 -27q39 -39 27 -98q-16 -86 -178 -234q-119 -107 -226 -170q-2 -54 16 -87.5t52 -34.5q63 -3 151.5 59t180.5 160q149 162 201 264q10 17 22.5 16t20.5 -16q15 -27 6 -51q-22 -57 -77 -140.5t-124 -158.5 q-80 -89 -165.5 -146t-162.5 -63q-100 -6 -161 71q-47 61 -50.5 151zM211 250q108 79 199 180q54 58 83.5 105t20.5 65q-10 21 -49.5 -4t-91.5 -80q-86 -93 -133 -190q-23 -53 -29 -76zM295.5 844.5q-0.5 13.5 9.5 15.5q31 0 144 80q120 86 139 117q11 13 27 9.5t30 -17.5 q29 -29 29 -58q3 -38 20 -110q22 -86 54 -103q32 -11 8 -35q-11 -11 -29.5 -16.5t-28.5 -1.5q-38 16 -69 104q-29 79 -29 99q-47 -33 -98 -70q-107 -75 -131 -88q-18 -6 -36.5 7.5t-29.5 35.5q-9 18 -9.5 31.5z" />
<glyph unicode="&#xeb;" horiz-adv-x="538" d="M99.5 169q-3.5 90 47.5 208q120 253 287 297q85 21 133 -27q39 -39 27 -98q-16 -86 -178 -234q-119 -107 -226 -170q-2 -54 16 -87.5t52 -34.5q63 -3 151.5 59t180.5 160q149 162 201 264q10 17 22.5 16t20.5 -16q15 -27 6 -51q-22 -57 -77 -140.5t-124 -158.5 q-80 -89 -165.5 -146t-162.5 -63q-100 -6 -161 71q-47 61 -50.5 151zM211 250q108 79 199 180q54 58 83.5 105t20.5 65q-10 21 -49.5 -4t-91.5 -80q-86 -93 -133 -190q-23 -53 -29 -76zM401 911q5 33 27 58.5t51 29.5q29 7 55 -19t31 -58q0 -27 -40.5 -71t-73.5 -56 q-27 -7 -41 35.5t-9 80.5zM621 813q0 32 31 74.5t57 42.5q30 0 56.5 -26.5t22.5 -61.5q-3 -23 -42 -67.5t-66 -51.5q-28 -6 -46 25.5t-13 64.5z" />
<glyph unicode="&#xec;" horiz-adv-x="385" d="M152 233q13 72 53 166q25 64 66 150.5t44 93.5q6 14 21.5 16t30.5 -8q19 -11 27 -31.5t-1 -46.5q-51 -98 -102 -237q-86 -229 -41 -252q50 -26 223 192q55 69 103 137.5t59 92.5q8 14 20.5 12t22.5 -16q17 -24 4 -56q-13 -31 -59 -101.5t-99 -139.5q-140 -182 -221 -195 q-63 -9 -108 39q-30 33 -41.5 82t-1.5 102zM268 1044q0 35 39 52q23 12 45.5 7.5t22.5 -26.5q0 -25 23.5 -75t64.5 -95q52 -59 98.5 -89t71.5 -30q10 1 12.5 -5t-2.5 -15q-18 -31 -63 -31q-43 0 -106 34t-107 81q-41 44 -70 98.5t-29 93.5z" />
<glyph unicode="&#xed;" horiz-adv-x="385" d="M152 233q13 72 53 166q25 64 66 150.5t44 93.5q6 14 21.5 16t30.5 -8q19 -11 27 -31.5t-1 -46.5q-51 -98 -102 -237q-86 -229 -41 -252q50 -26 223 192q55 69 103 137.5t59 92.5q8 14 20.5 12t22.5 -16q17 -24 4 -56q-13 -31 -59 -101.5t-99 -139.5q-140 -182 -221 -195 q-63 -9 -108 39q-30 33 -41.5 82t-1.5 102zM369 825q9 71 137 156q30 22 65 40t54.5 26t52.5 18.5t35 11.5q27 8 49 -22q5 -7 6.5 -14.5t-2.5 -13.5t-14 -9q-88 -27 -183 -105q-28 -22 -53 -50.5t-39 -49t-27.5 -43.5t-15.5 -25q-5 -13 -18 -10t-25 19q-25 28 -22 71z" />
<glyph unicode="&#xee;" horiz-adv-x="385" d="M152 233q13 72 53 166q25 64 66 150.5t44 93.5q6 14 21.5 16t30.5 -8q19 -11 27 -31.5t-1 -46.5q-51 -98 -102 -237q-86 -229 -41 -252q50 -26 223 192q55 69 103 137.5t59 92.5q8 14 20.5 12t22.5 -16q17 -24 4 -56q-13 -31 -59 -101.5t-99 -139.5q-140 -182 -221 -195 q-63 -9 -108 39q-30 33 -41.5 82t-1.5 102zM183.5 834.5q-0.5 13.5 9.5 15.5q30 0 143 80q120 86 139 117q12 12 27 9t30 -18q29 -29 29 -57q3 -33 21 -111q22 -86 53 -102q32 -11 8 -35q-11 -11 -29 -16.5t-28 -1.5q-39 16 -70 104q-29 79 -29 99q-47 -33 -98 -70 q-107 -75 -131 -88q-18 -6 -35.5 7.5t-29.5 35.5q-9 18 -9.5 31.5z" />
<glyph unicode="&#xef;" horiz-adv-x="385" d="M152 233q13 72 53 166q25 64 66 150.5t44 93.5q6 14 21.5 16t30.5 -8q19 -11 27 -31.5t-1 -46.5q-51 -98 -102 -237q-86 -229 -41 -252q50 -26 223 192q55 69 103 137.5t59 92.5q8 14 20.5 12t22.5 -16q17 -24 4 -56q-13 -31 -59 -101.5t-99 -139.5q-140 -182 -221 -195 q-63 -9 -108 39q-30 33 -41.5 82t-1.5 102zM260 920q5 33 27 58.5t51 29.5q29 7 55 -19.5t31 -58.5q0 -27 -41 -71t-74 -56q-27 -7 -40.5 36t-8.5 81zM479 821q0 32 31 74.5t57 42.5q30 0 57 -26.5t23 -61.5q-3 -23 -42 -67.5t-66 -51.5q-28 -6 -46.5 25.5t-13.5 64.5z" />
<glyph unicode="&#xf0;" horiz-adv-x="544" d="M51 162q9 54 107 221q66 112 131.5 192t111.5 87q43 7 84 -20t72 -71q4 13 16 42t17 46q50 153 57 293q-51 -25 -82 -37q-50 -19 -63 -22q-24 -3 -41 27q-6 10 -4 20.5t12 13.5q3 1 82 39l96 45q-5 111 -41 162q-12 17 0 26t37 1q25 -7 47 -29q28 -33 39 -123 q82 31 102 27q19 -3 31 -27q9 -13 6.5 -26.5t-18.5 -14.5q-29 -3 -113 -41q4 -170 -51 -350q-81 -257 -223 -453q-66 -91 -130 -149.5t-104 -73.5q-63 -22 -125 43q-30 33 -45 76t-8 76zM158 49q12 -6 43.5 14t79.5 68t96 113q87 120 151 258q-33 85 -92 73 q-24 -3 -75 -69.5t-105 -159.5q-64 -110 -95.5 -196.5t-2.5 -100.5z" />
<glyph unicode="&#xf1;" horiz-adv-x="780" d="M70 86q15 53 108 264q84 188 131 266q7 10 18.5 9t22.5 -11q14 -11 22.5 -28.5t2.5 -30.5q-6 -14 -34.5 -70.5t-45.5 -93.5q-57 -117 -88 -209q29 44 100.5 134t145.5 169q144 151 215 170q43 10 77 -39q22 -30 28.5 -63.5t-9.5 -63.5q-58 -106 -96 -208 q-67 -175 -21 -199q23 -11 80.5 39.5t126.5 134.5q57 69 109 141.5t71 108.5q6 12 19 12t22 -10q10 -10 12 -27.5t-8 -40.5q-59 -116 -153 -233q-103 -135 -191 -189q-86 -52 -149 25q-25 31 -35.5 75.5t-3.5 86.5q17 97 76 205q8 16 18.5 34.5t17.5 30.5t15 27t12 23 t8 18.5t3 14t-3 9.5q-16 19 -78.5 -39t-164.5 -172q-98 -111 -189.5 -228t-105.5 -146q-4 -8 -17 -5t-28 15q-22 17 -35 42.5t-6 51.5zM410 793q-19 43 0 69q35 45 82 68q48 21 86 14q24 -4 37 -17t26 -36q1 -2 4.5 -7.5t5 -7.5t4.5 -7.5t5 -7.5t5.5 -6t6.5 -6.5t7 -5 t8 -4.5t9 -3q43 -9 80 28q24 24 21 45q1 15 20 -2q2 -2 4 -5t4.5 -7t3.5 -6q9 -78 -34 -119q-24 -24 -70 -31q-43 -6 -72 13q-24 17 -47.5 54t-40.5 40q-22 3 -47 -10q-42 -22 -67 -66q-8 -13 -20.5 -5t-20.5 28z" />
<glyph unicode="&#xf2;" horiz-adv-x="583" d="M94 129q3 128 119 326q43 75 89 131.5t73 70.5q41 20 65 -16q43 39 93 54.5t88 0.5q59 -22 65 -116q6 -74 -45 -174q-41 -84 -104 -162q87 13 178 104q60 63 112 152q15 23 29.5 20.5t20.5 -24.5q11 -32 -5 -64q-66 -114 -145 -184q-131 -115 -262 -88q-64 -68 -94 -94 q-70 -61 -109 -70q-59 -14 -108 20q-27 20 -43.5 51t-16.5 62zM188 66q29 -16 121 69q31 28 66 66q-38 27 -56 65q-21 44 -18 94q0 20 4 48q-59 -98 -98 -189q-57 -135 -19 -153zM383 375q-11 -84 37 -111q4 -4 6 -4q55 63 102 137q86 131 74 199q-14 67 -75 27 q-40 -27 -74 -78q-57 -84 -70 -170zM436 1051q0 34 39 51q23 12 45.5 7.5t22.5 -26.5q0 -25 23.5 -75t64.5 -95q52 -59 98.5 -88.5t71.5 -29.5q10 1 12.5 -5.5t-2.5 -15.5q-18 -31 -63 -31q-43 0 -106 34t-107 81q-40 44 -69.5 99t-29.5 94z" />
<glyph unicode="&#xf3;" horiz-adv-x="583" d="M94 129q3 128 119 326q43 75 89 131.5t73 70.5q41 20 65 -16q43 39 93 54.5t88 0.5q59 -22 65 -116q6 -74 -45 -174q-41 -84 -104 -162q87 13 178 104q60 63 112 152q15 23 29.5 20.5t20.5 -24.5q11 -32 -5 -64q-66 -114 -145 -184q-131 -115 -262 -88q-64 -68 -94 -94 q-70 -61 -109 -70q-59 -14 -108 20q-27 20 -43.5 51t-16.5 62zM188 66q29 -16 121 69q31 28 66 66q-38 27 -56 65q-21 44 -18 94q0 20 4 48q-59 -98 -98 -189q-57 -135 -19 -153zM383 375q-11 -84 37 -111q4 -4 6 -4q55 63 102 137q86 131 74 199q-14 67 -75 27 q-40 -27 -74 -78q-57 -84 -70 -170zM457 848q9 71 137 156q30 22 65 40t54.5 26t52.5 18.5t35 11.5q27 8 49 -23q5 -7 6.5 -14.5t-2.5 -13.5t-14 -9q-90 -28 -183 -104q-28 -22 -53 -50.5t-39 -49t-27.5 -43.5t-15.5 -25q-5 -13 -18 -10t-25 18q-25 29 -22 72z" />
<glyph unicode="&#xf4;" horiz-adv-x="583" d="M94 129q3 128 119 326q43 75 89 131.5t73 70.5q41 20 65 -16q43 39 93 54.5t88 0.5q59 -22 65 -116q6 -74 -45 -174q-41 -84 -104 -162q87 13 178 104q60 63 112 152q15 23 29.5 20.5t20.5 -24.5q11 -32 -5 -64q-66 -114 -145 -184q-131 -115 -262 -88q-64 -68 -94 -94 q-70 -61 -109 -70q-59 -14 -108 20q-27 20 -43.5 51t-16.5 62zM188 66q29 -16 121 69q31 28 66 66q-38 27 -56 65q-21 44 -18 94q0 20 4 48q-59 -98 -98 -189q-57 -135 -19 -153zM336.5 844.5q-0.5 13.5 9.5 15.5q30 0 143 80q122 87 140 117q11 13 27 9.5t30 -17.5 q29 -29 29 -58q3 -38 20 -110q22 -87 53 -103q16 -6 17.5 -16t-8.5 -19q-11 -11 -29.5 -16.5t-28.5 -1.5q-38 16 -69 104q-29 79 -29 99q-47 -33 -98 -70q-107 -75 -131 -88q-18 -6 -36.5 7.5t-29.5 35.5q-9 18 -9.5 31.5zM383 375q-11 -84 37 -111q4 -4 6 -4q55 63 102 137 q86 131 74 199q-14 67 -75 27q-40 -27 -74 -78q-57 -84 -70 -170z" />
<glyph unicode="&#xf5;" horiz-adv-x="583" d="M94 129q3 128 119 326q43 75 89 131.5t73 70.5q41 20 65 -16q43 39 93 54.5t88 0.5q59 -22 65 -116q6 -74 -45 -174q-41 -84 -104 -162q87 13 178 104q60 63 112 152q15 23 29.5 20.5t20.5 -24.5q11 -32 -5 -64q-66 -114 -145 -184q-131 -115 -262 -88q-64 -68 -94 -94 q-70 -61 -109 -70q-59 -14 -108 20q-27 20 -43.5 51t-16.5 62zM188 66q29 -16 121 69q31 28 66 66q-38 27 -56 65q-21 44 -18 94q0 20 4 48q-59 -98 -98 -189q-57 -135 -19 -153zM375 801q-19 43 0 69q35 45 82 68q48 21 86 14q24 -4 37 -17t26 -36q11 -17 15 -24t16 -17 t25 -14q42 -9 79 28q25 25 21 46q0 17 20 -3q3 -3 13 -18q9 -77 -35 -119q-22 -22 -70 -30q-45 -6 -72 12q-24 17 -47.5 54t-40.5 40q-22 3 -47 -10q-42 -22 -67 -66q-8 -13 -20.5 -5t-20.5 28zM383 375q-11 -84 37 -111q4 -4 6 -4q55 63 102 137q86 131 74 199 q-14 67 -75 27q-40 -27 -74 -78q-57 -84 -70 -170z" />
<glyph unicode="&#xf6;" horiz-adv-x="583" d="M94 129q3 128 119 326q43 75 89 131.5t73 70.5q41 20 65 -16q43 39 93 54.5t88 0.5q59 -22 65 -116q6 -74 -45 -174q-41 -84 -104 -162q87 13 178 104q60 63 112 152q15 23 29.5 20.5t20.5 -24.5q11 -32 -5 -64q-66 -114 -145 -184q-131 -115 -262 -88q-64 -68 -94 -94 q-70 -61 -109 -70q-59 -14 -108 20q-27 20 -43.5 51t-16.5 62zM188 66q29 -16 121 69q31 28 66 66q-38 27 -56 65q-21 44 -18 94q0 20 4 48q-59 -98 -98 -189q-57 -135 -19 -153zM383 375q-11 -84 37 -111q4 -4 6 -4q55 63 102 137q86 131 74 199q-14 67 -75 27 q-40 -27 -74 -78q-57 -84 -70 -170zM436 930q5 33 27 58.5t51 29.5q29 7 55 -19.5t31 -58.5q0 -27 -41 -71t-74 -56q-27 -7 -40.5 36t-8.5 81zM655 831q0 32 31 74.5t57 42.5q30 0 57 -26.5t23 -61.5q-3 -23 -42 -67.5t-66 -51.5q-28 -6 -46.5 25.5t-13.5 64.5z" />
<glyph unicode="&#xf7;" horiz-adv-x="1019" d="M286 597q0 23 19 30q17 4 58 5t116 0t203 1q36 -1 89 -1.5t76.5 -1t58.5 -1.5t51 -2.5t37 -4t34 -6.5t25 -10q19 -10 32.5 -27.5t16.5 -33.5q3 -13 -4 -20.5t-23 -6.5q-55 -4 -393 -4q-88 0 -186 -5t-131 -3q-40 0 -66 47q-13 21 -13 44zM473.5 299.5 q12.5 38.5 50.5 48.5q117 15 148 -20q29 -27 -10 -60t-76 -35q-25 -11 -58 -9t-47 20q-20 17 -7.5 55.5zM676 803q-37 64 29 82q28 17 69 10t55 -37q11 -20 -21.5 -62t-49.5 -44q-53 -13 -82 51z" />
<glyph unicode="&#xf8;" horiz-adv-x="561" d="M98 133q3 113 90 277q44 83 96 151t81 84q21 11 32 8q49 27 106 29.5t103 -27t53 -90.5q8 -74 -42 -172t-132 -194q-64 -75 -127.5 -129.5t-97.5 -63.5q-54 -13 -102 19q-27 18 -43.5 48t-16.5 60zM168 102q7 -13 16 -18q28 -16 91 27.5t133 121.5q111 124 155 240 q-52 -40 -186 -166q-84 -80 -209 -205zM195 231q15 15 50 51t69 70.5t65 63.5q138 135 199 170q-9 29 -40 34t-63 -12q-32 -14 -57 -40t-31 -54q-3 -18 -27 -6q-108 -145 -165 -277z" />
<glyph unicode="&#xf9;" horiz-adv-x="794" d="M109 166q12 88 63 201q15 34 33 68.5t38 69t33 57t33.5 55t24.5 38.5q12 17 29 14t32 -20q15 -16 19.5 -37t-6.5 -37q-23 -28 -67.5 -104t-82.5 -156q-23 -50 -39.5 -92.5t-26 -79t-5.5 -59t22 -25.5q43 -5 203 201q127 163 233 320q21 33 74 -5q21 -16 31.5 -37t1.5 -36 q-47 -68 -82 -221q-19 -78 -19 -134t25 -63q50 -12 244 238q116 150 133 184q6 10 15 9.5t17 -9.5q12 -12 16.5 -30t-3.5 -36q-34 -68 -125 -192q-144 -196 -236 -232q-54 -22 -102 1t-68 81q-18 58 -4 138q4 31 12.5 63.5t14.5 48.5l6 17q-52 -87 -141 -201 q-107 -137 -187 -182q-35 -17 -66.5 -5t-56.5 46q-46 62 -36 143zM426 1022q0 34 39 51q23 12 45 8t22 -26q0 -25 24 -74.5t65 -95.5q52 -59 98.5 -89t71.5 -30q10 1 12.5 -5.5t-2.5 -15.5q-17 -30 -64 -30q-43 0 -106 33.5t-107 80.5q-40 43 -69 98t-29 95z" />
<glyph unicode="&#xfa;" horiz-adv-x="794" d="M109 166q12 88 63 201q15 34 33 68.5t38 69t33 57t33.5 55t24.5 38.5q12 17 29 14t32 -20q15 -16 19.5 -37t-6.5 -37q-23 -28 -67.5 -104t-82.5 -156q-23 -50 -39.5 -92.5t-26 -79t-5.5 -59t22 -25.5q43 -5 203 201q127 163 233 320q21 33 74 -5q21 -16 31.5 -37t1.5 -36 q-47 -68 -82 -221q-19 -78 -19 -134t25 -63q50 -12 244 238q116 150 133 184q6 10 15 9.5t17 -9.5q12 -12 16.5 -30t-3.5 -36q-34 -68 -125 -192q-144 -196 -236 -232q-54 -22 -102 1t-68 81q-18 58 -4 138q4 31 12.5 63.5t14.5 48.5l6 17q-52 -87 -141 -201 q-107 -137 -187 -182q-35 -17 -66.5 -5t-56.5 46q-46 62 -36 143zM500 756q9 70 137 155q24 18 49.5 32.5t50 25t41.5 17t39 13.5t27 9q27 8 49 -23q5 -7 6.5 -14.5t-2.5 -13.5t-14 -9q-90 -28 -183 -104q-28 -22 -53 -50.5t-39 -49t-27.5 -43.5t-15.5 -25q-5 -13 -18 -10 t-25 18q-25 29 -22 72z" />
<glyph unicode="&#xfb;" horiz-adv-x="794" d="M109 166q12 88 63 201q15 34 33 68.5t38 69t33 57t33.5 55t24.5 38.5q12 17 29 14t32 -20q15 -16 19.5 -37t-6.5 -37q-23 -28 -67.5 -104t-82.5 -156q-23 -50 -39.5 -92.5t-26 -79t-5.5 -59t22 -25.5q43 -5 203 201q127 163 233 320q21 33 74 -5q21 -16 31.5 -37t1.5 -36 q-47 -68 -82 -221q-19 -78 -19 -134t25 -63q50 -12 244 238q116 150 133 184q6 10 15 9.5t17 -9.5q12 -12 16.5 -30t-3.5 -36q-34 -68 -125 -192q-144 -196 -236 -232q-54 -22 -102 1t-68 81q-18 58 -4 138q4 31 12.5 63.5t14.5 48.5l6 17q-52 -87 -141 -201 q-107 -137 -187 -182q-35 -17 -66.5 -5t-56.5 46q-46 62 -36 143zM381.5 861q-0.5 14 9.5 16q32 0 144 79q120 86 139 117q11 13 27 9.5t30 -17.5q29 -29 29 -57q3 -40 20 -111q22 -85 54 -102q32 -11 8 -35q-11 -11 -29.5 -17t-28.5 -2q-37 15 -69 105q-29 79 -29 98 q-47 -33 -98 -70q-107 -75 -131 -88q-18 -6 -36.5 7.5t-29.5 35.5q-9 18 -9.5 32z" />
<glyph unicode="&#xfc;" horiz-adv-x="794" d="M109 166q12 88 63 201q15 34 33 68.5t38 69t33 57t33.5 55t24.5 38.5q12 17 29 14t32 -20q15 -16 19.5 -37t-6.5 -37q-23 -28 -67.5 -104t-82.5 -156q-23 -50 -39.5 -92.5t-26 -79t-5.5 -59t22 -25.5q43 -5 203 201q127 163 233 320q21 33 74 -5q21 -16 31.5 -37t1.5 -36 q-47 -68 -82 -221q-19 -78 -19 -134t25 -63q50 -12 244 238q116 150 133 184q6 10 15 9.5t17 -9.5q12 -12 16.5 -30t-3.5 -36q-34 -68 -125 -192q-144 -196 -236 -232q-54 -22 -102 1t-68 81q-18 58 -4 138q4 31 12.5 63.5t14.5 48.5l6 17q-52 -87 -141 -201 q-107 -137 -187 -182q-35 -17 -66.5 -5t-56.5 46q-46 62 -36 143zM436 907q5 33 27 58.5t51 29.5q29 7 55 -19t31 -58q0 -27 -41 -71t-74 -56q-27 -7 -40.5 35.5t-8.5 80.5zM655 809q0 32 31 74.5t57 42.5q30 0 57 -26.5t23 -61.5q-3 -23 -42 -67.5t-66 -51.5 q-28 -6 -46.5 25.5t-13.5 64.5z" />
<glyph unicode="&#xfd;" horiz-adv-x="761" d="M13 -451.5q-9 46.5 30 95.5q51 56 164 129q33 22 123.5 79t140.5 91q14 35 27 61q100 241 131 334q-27 -45 -129 -162q-117 -137 -193 -176q-50 -24 -89.5 -13t-63.5 52q-40 66 -19 168q19 88 72 205q26 59 57.5 119.5t58.5 109t27 49.5q8 11 26 4.5t34 -24.5 q16 -16 22 -34.5t-2 -31.5q-12 -17 -51.5 -88t-75.5 -147q-129 -272 -88 -308q21 -20 114 72t214 238q136 165 223 282q10 11 27.5 5.5t33.5 -21.5t23.5 -36t-0.5 -36q-40 -65 -123 -254l-117 -268q122 99 221 213q113 127 185 250q8 13 19.5 12t19.5 -14q22 -35 2 -70 q-1 -2 -9 -16.5t-12 -21.5t-14 -23.5t-18 -28.5t-20 -31t-25 -35.5t-29 -36.5t-34.5 -41.5t-39.5 -43.5q-82 -88 -217 -199q-19 -16 -53 -42t-47 -36q-64 -139 -133 -237q-87 -125 -166 -172q-94 -50 -174 2q-44 30 -53 76.5zM100.5 -455.5q10.5 -20.5 51.5 -13.5 q59 11 133 94q56 66 104 154q-45 -29 -115.5 -72.5t-104 -67t-52.5 -45.5q-27 -29 -16.5 -49.5zM567 870q9 70 138 156q30 22 65 40t54 25.5t52 18.5t35 12q28 8 50 -22q8 -10 5.5 -21.5t-16.5 -15.5q-86 -27 -182 -105q-28 -22 -53.5 -50.5t-39 -48.5t-27 -43t-15.5 -25 q-5 -13 -18 -10t-25 18q-26 30 -23 71z" />
<glyph unicode="&#xfe;" horiz-adv-x="583" d="M-82 -354q2 46 121 344q35 89 79.5 197t88 212.5t57.5 139.5q63 152 168 393q22 51 50 113t44.5 99.5t22.5 53.5q14 33 49 6q19 -16 28 -40t-1 -42q-33 -53 -117 -241q-83 -188 -107 -244q50 50 119 70q65 15 115 -25q51 -38 57 -113q4 -55 -32.5 -145t-98.5 -182 q-65 -98 -135.5 -170t-124.5 -90q-42 -13 -83 0t-71 43q-25 -63 -92 -240q-64 -174 -67 -213q-4 -34 -22 -31.5t-32 31.5q-19 34 -16 74zM170 82q19 -23 57 -25q40 -5 112.5 63.5t156.5 190.5q63 92 97 179.5t9 123.5q-10 14 -50 3t-81 -39q-55 -33 -80 -76q-11 -22 -27 -23 t-26 13l-21 -52q-74 -175 -147 -358z" />
<glyph unicode="&#xff;" horiz-adv-x="761" d="M13 -451.5q-9 46.5 30 95.5q51 56 164 129q33 22 123.5 79t140.5 91q14 35 27 61q100 241 131 334q-27 -45 -129 -162q-117 -137 -193 -176q-50 -24 -89.5 -13t-63.5 52q-40 66 -19 168q19 88 72 205q26 59 57.5 119.5t58.5 109t27 49.5q8 11 26 4.5t34 -24.5 q16 -16 22 -34.5t-2 -31.5q-12 -17 -51.5 -88t-75.5 -147q-129 -272 -88 -308q21 -20 114 72t214 238q136 165 223 282q10 11 27.5 5.5t33.5 -21.5t23.5 -36t-0.5 -36q-40 -65 -123 -254l-117 -268q122 99 221 213q113 127 185 250q8 13 19.5 12t19.5 -14q22 -35 2 -70 q-1 -2 -9 -16.5t-12 -21.5t-14 -23.5t-18 -28.5t-20 -31t-25 -35.5t-29 -36.5t-34.5 -41.5t-39.5 -43.5q-82 -88 -217 -199q-19 -16 -53 -42t-47 -36q-64 -139 -133 -237q-87 -125 -166 -172q-94 -50 -174 2q-44 30 -53 76.5zM100.5 -455.5q10.5 -20.5 51.5 -13.5 q59 11 133 94q56 66 104 154q-45 -29 -115.5 -72.5t-104 -67t-52.5 -45.5q-27 -29 -16.5 -49.5zM475 950q5 33 27 58.5t51 29.5q29 7 55 -19t31 -58q0 -27 -41 -71t-74 -56q-27 -7 -40.5 35.5t-8.5 80.5zM694 852q0 32 31 74.5t57 42.5q30 0 57 -26.5t23 -61.5 q-3 -23 -42 -67.5t-66 -51.5q-28 -6 -46.5 25.5t-13.5 64.5z" />
<glyph unicode="&#x152;" horiz-adv-x="1343" d="M129 68q-21 127 25.5 312t142.5 365q110 205 224.5 316t211.5 131q146 28 256 -64q77 -64 80 -141v-43l25 37q4 62 45 70q238 39 241 39q270 37 291 4q13 -18 17 -43q2 -24 -10 -33.5t-29 2.5t-191 -6q-83 -8 -233 -35q-53 -69 -129 -182q-87 -126 -148 -228 q283 20 361 9q19 -3 29 -17t12 -31q2 -19 -7.5 -30.5t-27.5 -7.5q-40 9 -174 5.5t-244 -14.5q-102 -182 -133 -301q-38 -151 51 -186q84 -34 305 63q133 59 191 109q18 14 30 11.5t17 -15.5q5 -15 -1.5 -36.5t-25.5 -35.5q-236 -188 -418 -194q-94 -3 -157.5 38t-81.5 121 q-85 -123 -193 -184q-27 -15 -63.5 -22.5t-82 -2.5t-86 25.5t-74 70.5t-46.5 124zM229 209q-14 -122 4 -202.5t58 -98.5q77 -36 235 129q98 103 162 211q26 83 96 219q-21 0 -39 25q-12 15 -9.5 32t22.5 23q21 6 73 12l91 154q-8 20 16 69q44 88 39.5 178.5t-57.5 143.5 q-31 37 -104 22t-157 -82q-146 -119 -266 -348q-137 -263 -164 -487z" />
<glyph unicode="&#x153;" horiz-adv-x="907" d="M94 129q3 107 86 266q50 93 106.5 168.5t88.5 93.5q19 11 35 11q69 40 149 30q98 -11 121 -92q62 53 123 68q71 17 121 -17q52 -36 39 -108q-16 -88 -193 -213q-87 -62 -199 -121q-16 -76 -0.5 -132.5t56.5 -59.5q63 -6 152.5 56.5t181.5 162.5q65 69 119.5 143.5 t78.5 120.5q10 17 22.5 16t20.5 -16q15 -27 6 -51q-20 -53 -71 -131.5t-115 -151.5q-82 -95 -171.5 -157t-170.5 -68q-87 -6 -150 57q-59 59 -65 152q-62 -65 -117.5 -109t-85.5 -51q-66 -15 -112 22q-26 20 -41 50.5t-15 60.5zM188 66q21 -10 77.5 32t123.5 115 q65 71 125 160q0 2 2 4q18 40 57 102q32 71 29 117q-4 33 -36.5 38.5t-69.5 -13.5q-36 -16 -63.5 -43.5t-33.5 -57.5q-3 -17 -24 -6q-66 -93 -125 -205q-113 -220 -62 -243zM608 326q115 83 178 141q117 104 88 127q-19 12 -58 -11t-83 -73q-76 -82 -125 -184z" />
<glyph unicode="&#x178;" horiz-adv-x="948" d="M-23 86q13 54 58 145t117 225.5t116 229.5q109 228 152.5 347t21.5 163q-9 19 14 21q35 0 68 -31q30 -30 35 -70q4 -27 -67 -189.5t-170 -353.5q-156 -299 -220.5 -447t-33.5 -171q20 -15 74 17.5t126 98.5t149 142t155 156q37 39 55 57q183 184 306 322.5t152 189.5 q18 28 52.5 13.5t52.5 -52.5q25 -53 -12 -90q-54 -49 -240 -373q-153 -272 -252 -454q-92 -173 -147 -304q-27 -64 -49 -122.5t-31.5 -90.5t-9.5 -40q0 -14 26.5 -17t30.5 -14q2 -8 -11 -20t-32 -19q-64 -25 -92 16q-41 62 63 314q51 123 137 297q76 148 162.5 304 t135.5 238l49 82q-285 -334 -422 -459q-28 -25 -71.5 -64t-68 -61t-58.5 -51.5t-56 -45.5t-47 -31.5t-45 -22t-37 -6.5q-56 3 -90 37q-33 31 -45 82t-1 102zM719 1354q5 33 27 58.5t51 29.5q29 7 55 -19.5t31 -58.5q0 -27 -41 -71t-74 -56q-27 -7 -40.5 36t-8.5 81z M938 1255q0 32 31 74.5t57 42.5q30 0 57 -26.5t23 -61.5q-3 -23 -42.5 -67.5t-66.5 -51.5q-28 -6 -46 25.5t-13 64.5z" />
<glyph unicode="&#x2c6;" horiz-adv-x="747" d="M396.5 1194.5q-0.5 13.5 9.5 15.5q30 0 143 80q120 86 139 117q11 13 27 9.5t30 -17.5q29 -29 29 -58q3 -31 21 -110q22 -87 53 -103q31 -11 8 -34q-11 -11 -29 -17t-28 -2q-38 16 -70 105q-29 79 -29 98q-47 -33 -98 -70q-107 -75 -131 -88q-18 -6 -35.5 7.5t-29.5 35.5 q-9 18 -9.5 31.5z" />
<glyph unicode="&#x2dc;" horiz-adv-x="675" d="M422 1143q-19 43 0 69q35 45 82 68q48 21 86 14q24 -4 37 -17t26 -36q11 -17 15 -24t16 -17t25 -14q42 -9 79 28q25 25 21 46q0 17 20 -3q3 -3 13 -18q9 -77 -35 -119q-22 -22 -70 -30q-44 -6 -71 12q-24 17 -47.5 54t-40.5 40q-22 3 -48 -10q-42 -22 -67 -66 q-8 -13 -20.5 -5t-20.5 28z" />
<glyph unicode="&#x2000;" horiz-adv-x="875" />
<glyph unicode="&#x2001;" horiz-adv-x="1751" />
<glyph unicode="&#x2002;" horiz-adv-x="875" />
<glyph unicode="&#x2003;" horiz-adv-x="1751" />
<glyph unicode="&#x2004;" horiz-adv-x="583" />
<glyph unicode="&#x2005;" horiz-adv-x="437" />
<glyph unicode="&#x2006;" horiz-adv-x="291" />
<glyph unicode="&#x2007;" horiz-adv-x="291" />
<glyph unicode="&#x2008;" horiz-adv-x="218" />
<glyph unicode="&#x2009;" horiz-adv-x="350" />
<glyph unicode="&#x200a;" horiz-adv-x="97" />
<glyph unicode="&#x2010;" horiz-adv-x="864" d="M291 361.5q2 16.5 14 19.5q35 8 287 0q226 -7 270 -12q27 -3 39 -31q9 -19 1 -37t-30 -18h-268q-53 0 -113 0.5t-98.5 1t-40.5 0.5q-34 0 -55 41q-8 19 -6 35.5z" />
<glyph unicode="&#x2011;" horiz-adv-x="864" d="M291 361.5q2 16.5 14 19.5q35 8 287 0q226 -7 270 -12q27 -3 39 -31q9 -19 1 -37t-30 -18h-268q-53 0 -113 0.5t-98.5 1t-40.5 0.5q-34 0 -55 41q-8 19 -6 35.5z" />
<glyph unicode="&#x2012;" horiz-adv-x="864" d="M291 361.5q2 16.5 14 19.5q35 8 287 0q226 -7 270 -12q27 -3 39 -31q9 -19 1 -37t-30 -18h-268q-53 0 -113 0.5t-98.5 1t-40.5 0.5q-34 0 -55 41q-8 19 -6 35.5z" />
<glyph unicode="&#x2013;" horiz-adv-x="1282" d="M285.5 370q6.5 21 46.5 17q25 -3 77.5 -6t99 -4t123.5 -3t109 -3q114 -3 222.5 2t128.5 4q18 0 33.5 -13.5t23.5 -33.5q13 -25 4 -45.5t-39 -14.5q-82 13 -366 13q-14 0 -91.5 1.5t-146 1.5t-100.5 -3q-64 -5 -107 41q-24 25 -17.5 46z" />
<glyph unicode="&#x2014;" horiz-adv-x="1798" d="M347.5 368q-6.5 18 4 27t37.5 2q34 -8 99.5 -12.5t128 -5t182 -1.5t200.5 -3q159 -4 277 -3t221 2.5t121 0.5q22 -1 38 -19.5t23 -42.5t-2 -37.5t-35 -9.5q-55 9 -253.5 15t-382.5 6q-106 0 -287 -5.5t-240 -2.5q-60 5 -106 51q-19 20 -25.5 38z" />
<glyph unicode="&#x2018;" horiz-adv-x="593" d="M450.5 675q-17.5 67 2.5 171q47 194 131 268q35 33 82 10q23 -12 33.5 -31t-1.5 -28q-29 -14 -74.5 -88.5t-62.5 -140.5q-22 -87 -17 -142t34 -73q14 -11 9.5 -19.5t-22.5 -13.5q-35 -12 -61 0q-36 20 -53.5 87z" />
<glyph unicode="&#x2019;" horiz-adv-x="491" d="M446 601q-4 11 7 24q52 72 94 198q17 51 24 102t5 83.5t-9 48.5q-6 14 16 17q19 2 44 -5q34 -10 51 -33q19 -39 11.5 -96.5t-27.5 -108.5q-61 -195 -138 -245q-13 -11 -31.5 -11.5t-29.5 7.5q-13 8 -17 19z" />
<glyph unicode="&#x201a;" horiz-adv-x="759" d="M264.5 -579q-5.5 12 3.5 26q53 69 97 199q16 51 23 101.5t5 83t-10 48.5q-3 7 2.5 11.5t16.5 6t26 -0.5q44 -7 68 -37q14 -19 13.5 -58.5t-9 -77.5t-21.5 -69q-65 -201 -139 -246q-24 -21 -55 -6q-15 7 -20.5 19z" />
<glyph unicode="&#x201c;" horiz-adv-x="839" d="M190 711q2 69 56 198q25 54 57 104t55 70q35 28 66 9q14 -8 18 -21t-6 -24q-13 -15 -47 -75.5t-55 -117.5q-24 -65 -31.5 -125t2.5 -80q18 -34 -12 -45q-39 -15 -74 23q-29 23 -29 84zM473 684q-14 70 6 150q47 194 131 268q34 32 80 10q24 -12 35.5 -31t-0.5 -28 q-29 -14 -74.5 -89t-62.5 -141q-22 -87 -17.5 -142t33.5 -73q13 -11 9 -19.5t-21 -13.5q-35 -12 -62 0q-41 20 -57 109z" />
<glyph unicode="&#x201d;" horiz-adv-x="864" d="M456 586q-4 11 7 24q51 71 94 199q17 51 24 101.5t5.5 83t-8.5 48.5q-7 14 17 17q13 2 30 -2q41 -7 63 -35q19 -39 11.5 -96.5t-27.5 -108.5q-61 -197 -137 -246q-13 -11 -32 -11.5t-30 7.5q-13 8 -17 19zM715 526q-6 12 0 21l9 15q9 16 11 20l10.5 21t13 26.5t13 29 t14.5 37t14 41t15 49.5q11 41 16 84t4.5 66.5t-3.5 59t-3 40.5q-1 18 13.5 26.5t36.5 6.5q45 -4 65 -43q19 -53 11 -125t-31 -141q-74 -209 -138 -254q-24 -15 -51 0q-14 8 -20 20z" />
<glyph unicode="&#x201e;" horiz-adv-x="1015" d="M285 -324q51 67 96 199q16 51 23 102t5 83.5t-10 48.5q-6 13 16 17q21 3 48 -5q29 -10 49 -33q19 -39 11.5 -96.5t-27.5 -108.5q-64 -199 -140 -245q-13 -11 -31.5 -12t-29.5 7q-31 19 -10 43zM537 -387q58 95 102 240q9 34 14 65.5t5.5 61.5t-0.5 47t-4 44.5t-3 30.5 q0 33 43 33q51 -4 72 -43q17 -36 14 -104q-6 -77 -32 -162q-74 -209 -138 -254q-24 -15 -47 -2q-15 7 -23 20.5t-3 22.5z" />
<glyph unicode="&#x2022;" horiz-adv-x="622" d="M246 686q15 58 53 106t88 58q54 8 115 -39t57 -104q0 -55 -76.5 -112t-140.5 -54q-35 1 -60 28t-33 59.5t-3 57.5z" />
<glyph unicode="&#x2026;" horiz-adv-x="958" d="M134.5 40.5q-1.5 30.5 19.5 39.5q20 11 52.5 8t61.5 -18q29 -14 39 -40t-10 -38t-65.5 -9t-71.5 15q-24 12 -25.5 42.5zM453.5 40.5q-1.5 30.5 19.5 39.5q20 11 53 8t62 -18q29 -14 38.5 -40t-10.5 -38t-65.5 -9t-71.5 15q-24 12 -25.5 42.5zM773.5 40.5 q-1.5 30.5 19.5 39.5q20 11 52.5 8t61.5 -18q29 -14 39 -40t-10 -38t-65.5 -9t-71.5 15q-24 12 -25.5 42.5z" />
<glyph unicode="&#x202f;" horiz-adv-x="350" />
<glyph unicode="&#x2039;" horiz-adv-x="765" d="M463 528q-14 52 24 99q7 7 30.5 30t59 56.5t60.5 58.5q80 76 104 107q8 7 19 1t20 -20q23 -31 13 -51q-9 -21 -99 -111q-125 -125 -131 -141q-9 -26 25 -106q26 -64 47 -93q12 -16 -12 -26q-40 -18 -66 0q-24 14 -51 76q-37 80 -43 120z" />
<glyph unicode="&#x203a;" horiz-adv-x="765" d="M440 283q3 25 19 43l88 82q94 86 92 100q0 14 -64 113q-63 97 -73 120q-16 30 -8 70q5 22 16 33t20 2q23 -23 97 -139l88 -136q23 -29 20 -69q-3 -31 -24 -60q-23 -34 -115 -114q-62 -55 -117 -99q-19 -9 -33 15q-9 14 -6 39z" />
<glyph unicode="&#x205f;" horiz-adv-x="437" />
<glyph unicode="&#x20ac;" horiz-adv-x="901" d="M97.5 457q4.5 15 21.5 12q45 -8 184 -14q20 58 62 137q-126 3 -142 14q-25 9 -39 49q-11 26 -5 42t30 5q23 -14 215 -14q119 173 256 297q115 103 219 152q87 40 150 -9q55 -43 59 -104q2 -30 -10 -92q-22 -90 -21 -101q6 -32 -20 -32q-13 0 -31 8.5t-25 19.5 q-8 16 0 109q7 76 -2 108q-66 40 -311 -200q-74 -71 -133 -154q28 0 79 1t71 1q83 0 98 -6q24 -6 44.5 -22t26.5 -33q5 -13 -3 -21.5t-31 -11.5q-11 -1 -32 -1.5t-56 -1t-62 -1.5q-61 -2 -203 -2q-43 -73 -73 -143l200 -7q96 -3 148 0q24 1 50.5 -15t37.5 -36 q9 -13 3.5 -25.5t-26.5 -15.5q-43 -6 -209 -6q-124 0 -241 6q-46 -138 -27 -217q11 -42 43.5 -66.5t80.5 -30t99.5 -0.5t110.5 19q140 33 264 90q27 11 39 3t6 -29q-10 -39 -69 -74q-45 -25 -129 -53.5t-170 -40.5q-205 -29 -291 59q-51 57 -66 131q-20 93 6 215 q-65 6 -96 13q-56 11 -74 53q-11 20 -6.5 35z" />
<glyph unicode="&#x2122;" horiz-adv-x="954" d="M413.5 1246q1.5 13 12.5 14q60 13 164 24q135 13 160 0q17 -10 34 -35q15 -27 -2 -30q-6 0 -129 -5q-28 -32 -94 -135q-51 -77 -55 -102q0 -17 -25 -25q-15 -5 -32.5 0t-20.5 15q-5 15 53 118q60 100 74 121q-23 -2 -51.5 -6t-36.5 -4q-26 -6 -45 25q-8 12 -6.5 25z M655 997q6 15 82 117q109 149 115 164q5 18 35 18q14 0 26 -6.5t11 -13.5q0 -6 -17 -80l-18 -76q28 35 61 70q59 67 76 78q5 5 23.5 1t29.5 -14q19 -16 8 -49q-19 -57 -36 -164q-13 -76 -13 -94q1 -7 -3.5 -8.5t-12.5 0.5q-23 4 -35 16q-14 16 -6 93l18 96q-26 -31 -55 -64 q-55 -67 -63 -82q-3 -8 -16 -7.5t-27 7.5t-13 15q0 12 11 69l12 70q-35 -51 -68 -102l-65 -103q-2 -6 -12 -4t-21 10q-33 20 -27 43z" />
<glyph unicode="&#x25fc;" horiz-adv-x="716" d="M0 0v717h717v-717h-717z" />
</font>
</defs>
</svg>
